<svg width="24" height="25" viewBox="0 0 24 25" fill="none" xmlns="http://www.w3.org/2000/svg">
<g id="Facebook logo 2019" clip-path="url(#clip0_343_2596)">
<path id="Vector" d="M24 12.9952C24 6.3273 18.6274 0.921875 12 0.921875C5.37258 0.921875 0 6.3273 0 12.9952C0 19.0214 4.38823 24.0162 10.125 24.9219V16.4852H7.07812V12.9952H10.125V10.3353C10.125 7.30943 11.9165 5.63803 14.6576 5.63803C15.9705 5.63803 17.3438 5.87384 17.3438 5.87384V8.84502H15.8306C14.3399 8.84502 13.875 9.77567 13.875 10.7305V12.9952H17.2031L16.6711 16.4852H13.875V24.9219C19.6118 24.0162 24 19.0214 24 12.9952Z" fill="#1877F2"/>
</g>
<defs>
<clipPath id="clip0_343_2596">
<rect width="24" height="24" fill="white" transform="translate(0 0.921875)"/>
</clipPath>
</defs>
</svg>
