<svg width="24" height="25" viewBox="0 0 24 25" fill="none" xmlns="http://www.w3.org/2000/svg">
<g id="Linkedin" clip-path="url(#clip0_343_2597)">
<path id="Vector" d="M12 0.921875C5.37253 0.921875 0 6.29441 0 12.9219C0 19.5493 5.37253 24.9219 12 24.9219C18.6274 24.9219 24 19.5493 24 12.9219C24 6.29441 18.6273 0.921875 12 0.921875ZM8.79836 18.7233H6.16364V10.2113H8.79836V18.7233ZM7.46845 9.09657C6.60798 9.09657 5.91041 8.39332 5.91041 7.52596C5.91041 6.6585 6.60807 5.9553 7.46845 5.9553C8.32882 5.9553 9.02638 6.6585 9.02638 7.52596C9.02643 8.39337 8.32887 9.09657 7.46845 9.09657ZM18.672 18.7233H16.05V14.2552C16.05 13.0297 15.5845 12.3457 14.6155 12.3457C13.5609 12.3457 13.01 13.0581 13.01 14.2552V18.7233H10.483V10.2113H13.01V11.3577C13.01 11.3577 13.7701 9.95165 15.575 9.95165C17.3799 9.95165 18.672 11.0537 18.672 13.3336L18.672 18.7233Z" fill="url(#paint0_linear_343_2597)"/>
</g>
<defs>
<linearGradient id="paint0_linear_343_2597" x1="3.51471" y1="4.43659" x2="20.4853" y2="21.4071" gradientUnits="userSpaceOnUse">
<stop stop-color="#2489BE"/>
<stop offset="1" stop-color="#0575B3"/>
</linearGradient>
<clipPath id="clip0_343_2597">
<rect width="24" height="24" fill="white" transform="translate(0 0.921875)"/>
</clipPath>
</defs>
</svg>
