<svg width="136" height="246" viewBox="0 0 136 246" fill="none" xmlns="http://www.w3.org/2000/svg">
<g opacity="0.3">
<path d="M276.249 19.1961C218.949 -6.50733 146.323 16.5819 114.033 70.7545C81.7427 124.927 102.007 189.685 159.307 215.388C216.607 241.092 289.233 218.002 321.523 163.83C353.806 109.633 333.549 44.8996 276.249 19.1961Z" stroke="#03C0FF" stroke-width="2" stroke-miterlimit="10" stroke-linecap="round" stroke-linejoin="round"/>
<path d="M137.101 210.02C113.231 225.175 144.282 242.12 136.922 255.576C145.312 242.603 179.208 254.775 179.663 229.115" stroke="#03C0FF" stroke-width="2" stroke-miterlimit="10" stroke-linecap="round" stroke-linejoin="round"/>
<path d="M96.7159 161.543C68.6634 164.298 85.0908 193.658 71.6206 202.394C85.7149 194.56 107.07 220.949 121.521 198.102" stroke="#03C0FF" stroke-width="2" stroke-miterlimit="10" stroke-linecap="round" stroke-linejoin="round"/>
<path d="M88.7481 100.984C63.9491 90.6464 61.4457 124.602 45.4777 126.302C61.4673 125.668 64.7048 159.175 89.2516 145.213" stroke="#03C0FF" stroke-width="2" stroke-miterlimit="10" stroke-linecap="round" stroke-linejoin="round"/>
<path d="M115.232 44.6167C100.358 24.0454 79.6972 53.4089 65.5079 47.661C79.1245 54.3702 63.458 85.975 91.3984 84.616" stroke="#03C0FF" stroke-width="2" stroke-miterlimit="10" stroke-linecap="round" stroke-linejoin="round"/>
<path d="M169.658 7.90527C168.591 -17.5257 135.202 -0.448252 126.556 -12.1337C134.178 0.168867 103.706 21.5367 127.755 33.1324" stroke="#03C0FF" stroke-width="2" stroke-miterlimit="10" stroke-linecap="round" stroke-linejoin="round"/>
<path d="M118.859 179.257L321.993 164.322L218.625 11.8511L118.859 179.257Z" stroke="#03C0FF" stroke-width="2" stroke-miterlimit="10" stroke-linecap="round" stroke-linejoin="round"/>
<path d="M316.723 55.3195L113.579 70.2713L216.957 222.726L316.723 55.3195Z" stroke="#03C0FF" stroke-width="2" stroke-miterlimit="10" stroke-linecap="round" stroke-linejoin="round"/>
</g>
</svg>
