<svg width="40" height="42" viewBox="0 0 40 42" fill="none" xmlns="http://www.w3.org/2000/svg">
<g id="logo">
<g id="Group 1171275105">
<g id="Group">
<path id="Vector" fill-rule="evenodd" clip-rule="evenodd" d="M29.5188 34.3135V1.53686C29.5188 -0.512285 31.8954 -0.512285 31.8954 1.53686C31.8954 6.28987 31.8954 4.31819 31.8954 4.31819C31.8954 4.31819 32.0188 27.8951 32.0188 34.3135C32.0188 37.7567 29.5188 37.7567 29.5188 34.3135Z" fill="#03C0FF"/>
</g>
<g id="Group_2">
<path id="Vector_2" fill-rule="evenodd" clip-rule="evenodd" d="M20.0186 35.0234V11.2551C20.0186 9.76914 22.3952 9.76914 22.3952 11.2551C22.3952 14.7018 22.3952 13.272 22.3952 13.272C22.3952 13.272 22.5186 30.3691 22.5186 35.0234C22.5186 37.5203 20.0186 37.5203 20.0186 35.0234Z" fill="#03C0FF"/>
</g>
<g id="Group_3">
<path id="Vector_3" fill-rule="evenodd" clip-rule="evenodd" d="M2.0185 4.08887C6.88881 4.08887 18.025 4.09384 19.0849 4.09384C20.1448 4.09384 20.1925 4.81993 19.8349 5.12113C13.1767 10.7287 6.63778 22.2252 6.01854 26.6897C6.03839 25.512 16.4012 13.1454 40 14.3357C38.8873 16.3552 8.70747 14.7994 2.00782 40.118C1.79529 40.9211 0.690971 41.7312 0.0194351 39.8944C-0.192772 39.3139 1.09211 18.9536 16.0849 6.14841C16.0849 6.14841 6.11014 6.14344 2.0185 6.14344C0.0950862 6.14344 0.0950862 4.08887 2.0185 4.08887Z" fill="#25D366"/>
</g>
</g>
</g>
</svg>
