<svg xmlns="http://www.w3.org/2000/svg" width="25" height="25" viewBox="0 0 28 28" fill="none">
<path d="M19.8856 3.66708C22.4216 3.66708 24.4608 5.71937 24.4608 8.24224C24.4608 10.7128 22.5 12.7259 20.0556 12.8174C19.9426 12.8043 19.8286 12.8043 19.7157 12.8174M22.4085 24.5821C23.3497 24.386 24.2386 24.007 24.9706 23.4449C27.0098 21.9154 27.0098 19.3926 24.9706 17.8632C24.2516 17.3141 23.3758 16.9481 22.4477 16.739M10.4085 12.6475C10.2778 12.6344 10.1209 12.6344 9.97712 12.6475C8.47674 12.5965 7.05509 11.9636 6.01324 10.8827C4.97139 9.80183 4.39116 8.35787 4.39543 6.85662C4.39543 3.65401 6.98366 1.0527 10.1993 1.0527C11.7369 1.02497 13.2225 1.60916 14.3293 2.67677C15.4362 3.74438 16.0736 5.20795 16.1013 6.74551C16.129 8.28308 15.5448 9.76868 14.4772 10.8755C13.4096 11.9823 11.9461 12.6197 10.4085 12.6475ZM3.87255 17.471C0.70915 19.5887 0.70915 23.0396 3.87255 25.1442C7.46732 27.5494 13.3627 27.5494 16.9575 25.1442C20.1209 23.0266 20.1209 19.5756 16.9575 17.471C13.3758 15.0788 7.48039 15.0788 3.87255 17.471Z" stroke="white" stroke-width="1.5" stroke-linecap="round" stroke-linejoin="round"/>
</svg>