<svg xmlns="http://www.w3.org/2000/svg" width="25" height="25" viewBox="0 0 26 31" fill="none">
<path d="M23.6426 15.0262C23.4102 14.9402 23.2695 14.664 23.2721 14.4564C23.2765 14.0649 23.2855 13.6677 23.2944 13.2838L23.295 13.266C23.309 12.6726 23.323 12.0589 23.3198 11.4542C23.3116 9.89128 23.097 8.41561 22.6826 7.06854C22.0371 4.97154 20.9115 3.44304 19.2417 2.39581C17.9475 1.58413 16.4712 1.10731 14.7288 0.937332C14.0934 0.875581 13.4746 0.84375 12.8909 0.84375C11.5062 0.84375 10.2636 1.01309 9.09092 1.36132C6.82267 2.03549 5.20822 3.26033 4.15399 5.10587C3.25319 6.68339 2.78782 8.51683 2.69106 10.8755C2.65604 11.7222 2.66496 12.5937 2.67387 13.4359C2.67769 13.8224 2.68214 14.2221 2.68214 14.6213V14.8709L2.38485 15.0007C2.33264 15.023 2.27153 15.0491 2.21105 15.0778C1.14473 15.5788 0.571775 16.3866 0.507478 17.4778C0.444453 18.5422 0.779311 19.5436 1.53179 20.5386C1.95322 21.0956 2.42113 21.4197 2.96289 21.5279C3.14178 21.5636 3.3474 21.5642 3.52884 21.5642C3.61924 21.5642 3.70391 21.5648 3.78603 21.568L4.01585 21.5782L4.11388 21.7864C4.26221 22.1015 4.40354 22.4153 4.53978 22.7196C4.84344 23.3957 5.12864 24.0304 5.46796 24.6358C6.67052 26.78 8.15128 28.3161 9.99427 29.3321C11.8194 30.338 13.6643 30.4233 15.4768 29.5849C16.9766 28.891 18.2976 27.768 19.5142 26.151C20.4659 24.886 21.2031 23.467 21.769 21.8125L21.8575 21.554H22.1306C22.1682 21.554 22.2045 21.5534 22.2401 21.5527H22.2541C22.3617 21.5508 22.4521 21.5496 22.5495 21.5566C23.1021 21.5967 23.6063 21.3955 24.0914 20.9416C24.6739 20.3966 25.0762 19.6849 25.3583 18.7033C25.823 17.085 25.1176 15.5724 23.6426 15.0262ZM4.13999 11.0665C4.14826 10.9602 4.1559 10.8589 4.1629 10.7615L4.16418 10.7482C4.17946 10.5394 4.1941 10.3426 4.21192 10.144C4.30614 9.11461 4.46147 7.90823 4.89819 6.76997C5.70732 4.66279 7.22246 3.28516 9.40031 2.67528C9.8122 2.56006 10.254 2.46838 10.7136 2.40281C11.1013 2.34743 11.4935 2.31178 11.8723 2.2774C12.0384 2.26212 12.202 2.24748 12.365 2.23093L14.0597 2.2704L14.1787 2.28313C15.4965 2.36016 16.587 2.60144 17.582 3.03306C19.6071 3.91222 20.9033 5.56168 21.4342 7.93561C21.6398 8.85551 21.7334 9.76841 21.8321 10.7348L21.9288 11.6776L21.3158 11.3873C18.6579 10.1294 16.0523 9.49531 13.3486 9.45011L12.9157 9.44247L12.7171 9.44565C9.90769 9.49276 7.28167 10.144 4.69002 11.437L4.08651 11.7375L4.13999 11.0665ZM4.47612 13.0113C6.33439 12.0882 8.04942 11.4936 9.71862 11.1932C10.4596 11.0601 11.214 10.9691 11.9436 10.8806L11.9518 10.8799C12.2778 10.8405 12.6247 10.8475 12.9488 10.8048L13.1671 10.794L13.3218 10.8417C16.0637 10.9137 18.7547 11.633 21.5462 13.0406C21.7519 13.1444 21.9473 13.4283 21.9116 13.6855C21.8448 14.168 21.769 14.7143 21.6411 15.2452C21.5825 15.4865 21.4889 15.7526 21.2368 15.8945C21.135 15.9518 21.0185 15.9811 20.8905 15.9811C20.7403 15.9811 20.5958 15.941 20.4863 15.9066C19.6886 15.652 18.9622 15.3929 18.2664 15.114L18.1792 15.079C17.0339 14.6194 15.8492 14.1438 14.6231 13.9026C13.1086 13.604 11.5476 13.7224 9.98408 14.2546C9.27044 14.4972 8.55425 14.7785 7.86162 15.0504L7.85143 15.0542C7.35933 15.2471 6.85004 15.447 6.33821 15.6342C6.0581 15.7367 5.77226 15.785 5.49597 15.8315C5.3992 15.8481 5.30244 15.864 5.20695 15.8824C4.80015 15.962 4.44556 15.7201 4.36407 15.3076C4.24566 14.7111 4.15208 14.1649 4.0776 13.6384C4.03622 13.3462 4.29977 13.0985 4.47612 13.0113ZM24.0698 17.9909C23.9463 18.483 23.7432 19.0012 23.4656 19.5321C23.2033 20.0331 22.8965 20.2903 22.102 20.1223C21.7512 20.0478 21.4087 19.9695 21.0459 19.8861L20.909 19.8549L20.8275 20.1242C20.7161 20.4909 20.6047 20.8588 20.4914 21.2255C19.814 23.425 18.6808 25.2922 17.1231 26.7761C16.1401 27.7126 15.1419 28.3148 14.0711 28.6185C13.7102 28.7204 13.3435 28.7726 12.9813 28.7726C12.2154 28.7726 11.4527 28.5504 10.6506 28.0939C8.6281 26.9423 7.11933 25.1668 6.03836 22.6662C5.75571 22.013 5.54562 21.3267 5.34191 20.6634C5.26042 20.3979 5.17703 20.1248 5.08854 19.8555L4.91729 19.8905C4.44683 19.9873 4.00311 20.079 3.5473 20.1516C3.26719 20.1961 2.95971 20.0491 2.80055 19.881C2.2537 19.3042 1.93985 18.5747 1.86728 17.7127C1.81381 17.078 2.22251 16.549 2.96034 16.2988L3.22072 16.2103L3.38687 16.4293C3.98783 17.22 4.84599 17.4854 5.86966 17.1964C6.76919 16.9418 7.66936 16.6056 8.53961 16.2797L8.55616 16.2733C8.84518 16.1651 9.14439 16.053 9.43978 15.9461C10.4374 15.5839 11.5673 15.1732 12.7954 15.13C14.0565 15.0854 15.1967 15.4648 16.3515 15.892C16.6195 15.9913 16.8875 16.0912 17.1555 16.1918L17.1823 16.202C18.1537 16.5662 19.1583 16.9424 20.1584 17.2531C20.9013 17.4841 21.6188 17.3498 22.2319 16.8647C22.3197 16.7953 22.4037 16.6967 22.4935 16.5916C22.5368 16.5413 22.5903 16.4783 22.6463 16.4178L22.8048 16.2466L23.0302 16.3096C23.8718 16.5464 24.2703 17.1907 24.0698 17.9909Z" fill="white"/>
</svg>