<svg xmlns="http://www.w3.org/2000/svg" width="25" height="25" viewBox="0 0 28 27" fill="none">
<path d="M18.9406 23.8577C18.9406 21.0839 16.1787 18.822 12.7621 18.822C9.3454 18.822 6.5835 21.072 6.5835 23.8577M12.7621 16.1553C13.6493 16.1553 14.5002 15.8029 15.1275 15.1755C15.7549 14.5482 16.1073 13.6973 16.1073 12.8101C16.1073 11.9229 15.7549 11.072 15.1275 10.4446C14.5002 9.81729 13.6493 9.46484 12.7621 9.46484C11.8749 9.46484 11.024 9.81729 10.3966 10.4446C9.76927 11.072 9.41683 11.9229 9.41683 12.8101C9.41683 13.6973 9.76927 14.5482 10.3966 15.1755C11.024 15.8029 11.8749 16.1553 12.7621 16.1553Z" stroke="white" stroke-width="1.5" stroke-linecap="round" stroke-linejoin="round"/>
<path d="M24.119 14.6904C24.119 20.9404 19.0595 25.9999 12.8095 25.9999C6.55952 25.9999 1.5 20.9404 1.5 14.6904C1.5 8.44038 6.55952 3.38086 12.8095 3.38086C14.369 3.38086 15.8571 3.69038 17.2143 4.26181C17.0595 4.738 16.9762 5.238 16.9762 5.76181C16.9762 6.65467 17.2262 7.49991 17.6667 8.21419C17.9048 8.61895 18.2143 8.988 18.5714 9.29752C19.4048 10.0594 20.5119 10.5237 21.7381 10.5237C22.2619 10.5237 22.7619 10.4404 23.2262 10.2737C23.7976 11.6309 24.119 13.1309 24.119 14.6904Z" stroke="white" stroke-width="1.5" stroke-linecap="round" stroke-linejoin="round"/>
<path d="M23.5118 5.7381H19.9642M21.738 4.00001V7.55953M26.4999 5.76191C26.4999 6.14286 26.4523 6.51191 26.357 6.86905C26.2499 7.34524 26.0594 7.80953 25.8094 8.21429C25.238 9.17858 24.3213 9.92858 23.2261 10.2738C22.7618 10.4405 22.2618 10.5238 21.738 10.5238C20.5659 10.5273 19.4354 10.0895 18.5713 9.29762C18.2142 8.9881 17.9047 8.61905 17.6666 8.21429C17.2134 7.4767 16.9743 6.62759 16.9761 5.76191C16.9761 5.2381 17.0594 4.7381 17.2142 4.26191C17.5288 3.31116 18.1355 2.48397 18.9478 1.89826C19.7601 1.31255 20.7365 0.998193 21.738 1.00001C23.1427 1.00001 24.4166 1.60715 25.2737 2.58334C26.0356 3.42858 26.4999 4.54763 26.4999 5.76191Z" stroke="white" stroke-width="1.5" stroke-miterlimit="10" stroke-linecap="round" stroke-linejoin="round"/>
</svg>