 <svg xmlns="http://www.w3.org/2000/svg" width="25" height="25" viewBox="0 0 28 27" fill="none">
<path d="M2.15 7.34551H25.85M9.65 1.09551V7.17051M18.35 1.09551V6.60801M26.5 17.208V9.70801C26.5 3.45801 24 0.958008 17.75 0.958008H10.25C4 0.958008 1.5 3.45801 1.5 9.70801V17.208C1.5 23.458 4 25.958 10.25 25.958H17.75C24 25.958 26.5 23.458 26.5 17.208Z" stroke="white" stroke-width="1.5" stroke-linecap="round" stroke-linejoin="round"/>
<path d="M11.1875 16.5202V15.0202C11.1875 13.0952 12.55 12.3077 14.2125 13.2702L15.5125 14.0202L16.8125 14.7702C18.475 15.7327 18.475 17.3077 16.8125 18.2702L15.5125 19.0202L14.2125 19.7702C12.55 20.7327 11.1875 19.9452 11.1875 18.0202V16.5202Z" stroke="white" stroke-width="1.5" stroke-miterlimit="10" stroke-linecap="round" stroke-linejoin="round"/>
</svg>