<svg width="232" height="232" viewBox="0 0 232 232" fill="none" xmlns="http://www.w3.org/2000/svg">
<circle cx="116.281" cy="116" r="115.421" fill="white"/>
<path opacity="0.2" d="M65.4492 187.54C59.0387 187.392 51.8842 186.62 47.663 181.622C42.9123 176 43.7995 167.397 40.8518 160.589C37.7467 153.425 30.5779 148.678 28.0738 141.262C25.2835 132.985 29.104 123.878 34.0264 116.744C38.9487 109.609 45.1303 103.157 47.9492 94.8801C50.6822 86.8556 49.9381 78.045 51.3261 69.6497C54.7174 49.0619 72.4607 31.9598 92.5077 29.9277C100.85 29.0823 109.679 30.7584 116.39 35.9795C127.494 44.627 131.014 61.1654 142.59 69.1306C153.522 76.6656 168.446 74.3369 180.122 80.5666C189.295 85.4614 195.533 95.7553 195.82 106.435C196.063 115.913 191.999 125.317 193.587 134.661C194.489 140.001 197.179 144.837 198.724 150.013C201.615 159.729 200.241 170.705 195.047 179.323C189.853 187.94 180.938 194.052 171.251 195.624C152.821 198.62 136.179 186.739 118.321 184.648C108.548 183.505 100.735 189.008 91.5061 188.919C82.9492 188.83 74.1062 187.733 65.4492 187.54Z" fill="url(#paint0_linear_343_2344)"/>
<mask id="mask0_343_2344" style="mask-type:luminance" maskUnits="userSpaceOnUse" x="42" y="33" width="143" height="155">
<path d="M184.765 115.978C184.765 155.387 152.812 187.34 113.404 187.34C73.9949 187.34 42.042 155.387 42.042 115.978C42.042 76.5695 73.9949 33.6523 113.404 33.6523C152.812 33.6523 184.765 76.5695 184.765 115.978Z" fill="white"/>
</mask>
<g mask="url(#mask0_343_2344)">
<path d="M95.7988 142.323C96.0024 144.641 98.211 161.276 99.1194 172.835C100.028 184.395 105.385 219.057 105.385 219.057C105.385 219.057 111.76 222.284 119.309 216.285C119.309 216.285 111.791 171.457 113.514 155.731V136.324L95.7988 142.323Z" fill="#EDDCC6"/>
<g opacity="0.3">
<path d="M111.399 219.809C113.623 219.527 116.286 218.619 119.121 216.41C118.103 210.004 113.138 178.082 113.263 161.166C113.263 159.114 113.342 157.282 113.514 155.731V136.324L103.834 139.66C104.852 152.003 108.69 200.622 111.399 219.809Z" fill="#EDDCC6"/>
</g>
<path d="M113.514 155.089C113.514 155.089 116.443 164.69 116.02 176.751C115.597 188.812 116.443 223.96 116.443 223.96C116.443 223.96 123.46 227.985 133.657 223.96C133.657 223.96 133.062 178.787 132.874 171.191C132.686 163.594 132.874 138.548 132.874 138.548L113.514 136.309V155.089Z" fill="#EDDCC6"/>
<g opacity="0.3">
<path d="M133.657 223.976C133.657 223.976 133.062 178.803 132.874 171.206C132.686 163.61 132.874 138.564 132.874 138.564L123.57 137.483C123.304 152.363 124.431 215.33 124.102 225.761C126.765 225.808 129.992 225.417 133.657 223.976Z" fill="#EDDCC6"/>
</g>
<path d="M123.209 66.6377C123.209 66.6377 135.333 70.1306 135.458 71.133C135.583 72.1355 133.453 89.0047 133.077 94.2519C132.701 99.4991 133.61 123.996 133.986 127.865C134.362 131.734 134.737 143.246 134.737 143.246C134.737 143.246 129.616 144.249 114.657 144.499V68.345L123.209 66.6377Z" fill="#03C0FF"/>
<path d="M106.121 66.6377C106.121 66.6377 93.9973 70.1306 93.872 71.133C93.7467 72.1355 95.8769 89.0047 96.2528 94.2519C96.6287 99.4991 94.9998 123.746 94.6239 127.63C94.2479 131.499 93.872 142.996 93.872 142.996C93.872 142.996 99.7144 144.249 114.673 144.499V68.345L106.121 66.6377Z" fill="#03C0FF"/>
<path d="M107.358 64.9626L121.737 64.665L116.161 88.7707L111.587 88.0189L107.358 64.9626Z" fill="#03C0FF"/>
<path d="M109.003 60.2637L108.501 63.4276C108.501 63.4276 111.838 67.1711 114.673 67.1711V60.8432L109.003 60.2637Z" fill="#F8BE86"/>
<path d="M120.327 60.2637L120.829 63.4276C120.829 63.4276 117.492 67.1711 114.657 67.1711V60.8432L120.327 60.2637Z" fill="#F8BE86"/>
<g opacity="0.3">
<path d="M109.003 60.2637L108.501 63.4276C108.501 63.4276 111.838 67.1711 114.673 67.1711V60.8432L109.003 60.2637Z" fill="#F8BE86"/>
</g>
<g opacity="0.3">
<path d="M120.327 60.2637L120.829 63.4276C120.829 63.4276 117.492 67.1711 114.657 67.1711V60.8432L120.327 60.2637Z" fill="#F8BE86"/>
</g>
<path d="M114.657 67.1859C114.657 67.1859 110.365 65.4786 108.486 63.4424L106.105 66.6533C106.105 66.6533 109.347 71.5246 112.48 73.2789L114.657 67.1859Z" fill="#EDDCC6"/>
<path d="M114.657 67.1859C114.657 67.1859 118.949 65.4786 120.829 63.4424L123.209 66.6533C123.209 66.6533 119.951 71.5246 116.834 73.2789L114.657 67.1859Z" fill="#EDDCC6"/>
<path d="M114.625 48.6415V64.0071C114.625 64.0071 112.621 64.2577 110.757 63.0046C108.877 61.7516 106.763 58.2743 106.512 56.3321C106.261 54.3898 104.883 54.7658 104.883 53.638C104.883 52.5103 104.131 49.0174 104.883 49.1427C105.635 49.268 106.011 50.0198 106.011 50.0198C106.011 50.0198 105.134 45.1486 105.76 43.7702C106.387 42.3918 107.64 36.8157 114.625 36.6904V48.6415Z" fill="#F8BE86"/>
<path d="M114.626 48.6415V64.0071C114.626 64.0071 116.631 64.2577 118.495 63.0046C120.374 61.7516 122.489 58.2743 122.74 56.3321C122.99 54.3898 124.369 54.7658 124.369 53.638C124.369 52.5103 125.12 49.0174 124.369 49.1427C123.617 49.268 123.241 50.0198 123.241 50.0198C123.241 50.0198 124.118 45.1486 123.491 43.7702C122.865 42.3918 121.612 36.8157 114.61 36.6904V48.6415H114.626Z" fill="#F8BE86"/>
<path d="M105.228 112.938L102.456 143.999C103.16 144.046 103.928 144.108 104.727 144.155L105.228 112.938Z" fill="#EDDCC6"/>
<path d="M115.628 36.7529C121.737 37.3638 123.491 41.0446 123.726 42.4543C124.352 46.1822 123.256 50.0197 123.256 50.0197C121.752 49.4871 120.656 45.1484 119.669 41.7808C118.635 38.2253 117.68 37.1758 115.628 36.7529Z" fill="#9C9991"/>
<path d="M121.737 43.3943C121.737 43.3943 120.374 40.4653 119.904 38.3037C118.651 37.3953 116.975 36.7374 114.626 36.6904C111.697 36.7374 109.786 37.7555 108.501 39.0086V44.4594C108.501 44.4594 110.146 46.8402 114.626 46.8872C119.105 46.9498 121.737 43.3943 121.737 43.3943Z" fill="#9C9991"/>
<path d="M121.737 48.1395C121.909 50.9746 121.737 52.8542 121.737 52.8542L123.193 52.1807L123.71 45.4142L121.737 43.3779V48.1395Z" fill="#9C9991"/>
<path d="M113.623 36.7529C107.515 37.3638 105.76 41.0446 105.525 42.4543C104.899 46.1822 105.995 50.0197 105.995 50.0197C107.499 49.4871 108.611 45.1484 109.582 41.7808C110.616 38.2253 111.571 37.1758 113.623 36.7529Z" fill="#9C9991"/>
<path d="M107.499 48.1395C107.327 50.9746 107.499 52.8542 107.499 52.8542L106.042 52.1807L105.525 45.4142L107.499 43.3779V48.1395Z" fill="#9C9991"/>
<g opacity="0.5">
<path d="M133.986 127.881C133.751 125.532 133.328 115.617 133.124 106.986C131.855 110.229 124.932 119.517 123.209 123.574C122.019 126.362 117.696 127.991 114.673 128.821V130.231L134.424 134.835C134.283 132.126 134.142 129.416 133.986 127.881Z" fill="#EDDCC6"/>
</g>
<path d="M135.458 71.1484C140.141 75.5498 145.89 98.1831 147.378 102.882C148.866 107.581 134.361 128.037 134.361 128.037C134.361 128.037 131.307 130.152 125.026 125.594C124.791 125.421 124.713 125.108 124.854 124.858C126.561 121.929 136.523 104.762 136.069 103.18C135.583 101.457 130.508 86.9056 130.508 86.9056L135.458 71.1484Z" fill="#03C0FF"/>
<g opacity="0.5">
<path d="M114.657 130.246V128.836C111.634 128.006 107.295 126.377 106.12 123.589C104.241 119.188 96.2056 108.552 95.9863 106.281C95.5634 114.974 94.8586 125.234 94.6236 127.646C94.467 129.243 94.3104 132.157 94.1851 135.023L114.657 130.246Z" fill="#EDDCC6"/>
</g>
<path d="M128.707 88.7705H121.408V90.838H128.707V88.7705Z" fill="black"/>
<path d="M93.872 71.1484C89.1731 75.5498 83.4404 98.1831 81.9523 102.882C80.4643 107.581 94.9685 128.037 94.9685 128.037C94.9685 128.037 98.0228 130.152 104.304 125.594C104.539 125.421 104.617 125.108 104.476 124.858C102.769 121.929 92.8069 104.762 93.2612 103.18C93.7624 101.457 98.8216 86.9056 98.8216 86.9056L93.872 71.1484Z" fill="#03C0FF"/>
<path d="M167.348 132.704C169.509 133.19 178.108 134.96 179.784 134.74C185.314 134.051 187.224 132.751 196.826 133.534C206.412 134.333 211.314 138.171 214.948 136.589C216.969 135.711 217.188 135.179 218.754 135.476C219.773 135.664 231.959 142.729 226.445 143.794C223.359 144.389 180.411 144.42 177.231 144.091C174.052 143.778 164.074 144.53 164.074 144.53L167.348 132.704Z" fill="#F8BE86"/>
<g opacity="0.3">
<path d="M167.348 132.704C169.509 133.19 178.108 134.96 179.784 134.74C185.314 134.051 187.224 132.751 196.826 133.534C206.412 134.333 211.314 138.171 214.948 136.589C216.969 135.711 217.188 135.179 218.754 135.476C219.773 135.664 231.959 142.729 226.445 143.794C223.359 144.389 180.411 144.42 177.231 144.091C174.052 143.778 164.074 144.53 164.074 144.53L167.348 132.704Z" fill="#F8BE86"/>
</g>
<path d="M169.76 133.284C171.921 133.77 180.52 135.54 182.196 135.32C187.725 134.631 189.636 133.331 199.238 134.114C208.824 134.913 213.726 138.751 217.36 137.169C219.381 136.292 219.6 135.759 221.166 136.057C222.184 136.245 234.37 143.309 228.857 144.374C225.771 144.969 181.585 145.83 178.406 145.501C175.226 145.188 164.168 144.765 164.168 144.765L169.76 133.284Z" fill="#F8BE86"/>
<path d="M74.2606 146.253C74.2606 146.253 74.5425 144.969 73.7437 144.515L74.5425 144.718C74.5425 144.703 74.6991 145.501 74.2606 146.253Z" fill="#45383C"/>
<path d="M67.1973 142.166C67.7611 143.231 69.6407 144.531 71.3167 144.938C73.0083 145.345 73.1493 145.236 73.7445 145.048C74.7469 144.734 75.4361 145.768 75.9373 146.332C76.7361 147.194 77.3157 148.212 78.0519 147.178C78.882 146.019 79.3519 146.473 79.6338 146.927C79.8531 147.241 80.464 146.802 80.6519 146.661C80.6519 146.661 81.1375 147.35 81.5761 147.021C82.0146 146.677 82.0303 146.222 82.3906 146.254C82.7508 146.285 84.1135 146.88 84.6931 146.301C85.2883 145.721 85.1629 143.92 85.2413 142.996C85.3039 142.213 85.8834 140.803 86.8076 140.051C87.2931 139.644 88.0137 140.411 88.4522 140.067C90.5981 138.344 91.3812 136.01 87.904 132.705C86.5883 131.452 82.6882 132.674 82.5785 132.768C82.4532 132.862 72.7107 138.078 72.7107 138.078L67.1973 142.166Z" fill="#F8BE86"/>
<path d="M84.9591 128.71C84.9591 128.71 85.5073 132.234 87.0423 132.266C89.6111 132.313 94.0437 131.279 94.2317 130.527C94.5293 129.305 103.833 149.338 100.325 146.723C97.5366 144.655 94.1221 142.556 90.8641 141.006C90.3316 140.755 89.3604 139.753 88.4206 140.019C81.9047 141.961 69.8754 142.713 69.8754 142.713L67.6982 137.513C67.6982 137.513 75.7648 125.405 75.7805 125.703C75.8118 126 84.9591 128.71 84.9591 128.71Z" fill="#F8BE86"/>
<path d="M85.2566 142.98C85.2566 142.98 85.8832 138.86 91.5846 141.414C97.286 143.967 91.2713 133.206 91.2713 133.206L83.7373 138.579L85.2566 142.98Z" fill="#F8BE86"/>
<path d="M67.7138 142.87C66.3042 142.604 62.7487 138.688 63.0619 133.551C63.3752 128.413 64.9728 125.625 71.6296 123.886C74.4647 123.15 79.6492 123.777 82.0613 125.562C84.3012 127.207 84.5361 128.209 86.2434 130.324C87.2615 131.593 88.4833 132.204 88.4833 132.204C88.217 133.112 83.2048 135.9 81.5602 135.555C81.2626 135.493 82.9072 134.537 81.5758 134.255C79.9312 133.895 79.242 132.579 79.242 132.579C79.242 132.579 78.3179 131.718 77.0335 132.204C75.7491 132.689 75.7961 134.334 76.1407 134.757C76.4852 135.18 77.0178 135.728 77.0178 135.728C77.0178 135.728 75.9371 137.153 75.0443 137.216C74.1515 137.278 72.6321 136.934 72.1622 137.874C71.6923 138.813 71.0814 140.035 69.7814 141.241C68.4657 142.447 67.7138 142.87 67.7138 142.87Z" fill="black"/>
<g opacity="0.3">
<path d="M82.5005 137.059C85.1476 136.981 87.1681 140.755 87.1681 140.771C85.7271 141.241 85.3356 142.557 85.2729 142.901C85.2729 142.933 85.2572 142.964 85.2572 142.98C85.2416 143.183 85.2259 143.434 85.2259 143.7C85.4609 137.717 82.8451 137.121 82.5005 137.059Z" fill="#F8BE86"/>
</g>
<path d="M87.9668 132.548C87.9668 132.548 92.8694 139.377 93.214 141.508C93.214 141.508 101.484 147.977 104.695 149.402C108.533 151.109 112.339 149.042 115.252 146.849C118.181 144.656 131.573 147.428 131.573 147.428C134.956 146.254 141.723 127.207 139.185 127.411C137.917 127.505 129.96 131.107 126.263 130.982C121.925 130.841 110.13 128.382 108 127.99C104.053 127.254 97.9129 126.236 87.9668 132.548Z" fill="#F8BE86"/>
<path d="M65.0669 140.505C65.0669 140.505 64.4717 143.418 68.3562 145.094C72.2563 146.77 72.3816 139.079 76.3444 139.596C76.3444 139.596 75.4673 137.09 72.178 137.873C68.8887 138.656 65.0669 140.505 65.0669 140.505Z" fill="black"/>
<path d="M62.2317 126.909C63.4065 128.742 66.4295 128.993 68.9826 127.489C71.5357 125.985 72.6478 123.276 71.473 121.459C70.2983 119.626 67.2753 119.375 64.7222 120.879C62.1691 122.383 61.057 125.077 62.2317 126.909Z" fill="black"/>
<path d="M62.9995 152.347L72.6167 228.078H97.7718L111.978 190.581H188.994L209.153 228.078H221.981L228.857 154.634L62.9995 152.347Z" fill="#B7BBBF"/>
<g opacity="0.1">
<path d="M107.358 154.446C107.358 153.929 107.264 153.427 107.123 152.958L63.4852 152.347C63.3442 152.676 63.2346 153.005 63.1562 153.365L64.5033 162.199C65.4587 163.201 66.8057 163.843 68.3094 163.843H102.111C105.008 163.843 107.373 161.494 107.373 158.581C107.373 161.478 109.723 163.843 112.636 163.843H227.839L228.873 154.634L107.608 152.958C107.452 153.443 107.358 153.929 107.358 154.446Z" fill="#BA691B"/>
</g>
<path d="M99.2444 159.676H62.8275C60.6503 159.676 58.8804 157.906 58.8804 155.729V148.963C58.8804 146.786 60.6503 145.016 62.8275 145.016H99.2444C101.422 145.016 103.192 146.786 103.192 148.963V155.729C103.192 157.906 101.422 159.676 99.2444 159.676Z" fill="#EDDCC6"/>
<g opacity="0.5">
<path d="M97.9283 157.594H64.1271C61.2294 157.594 58.8643 155.244 58.8643 152.331V154.414C58.8643 157.312 61.2138 159.677 64.1271 159.677H97.9283C100.826 159.677 103.191 157.328 103.191 154.414V152.331C103.191 155.244 100.826 157.594 97.9283 157.594Z" fill="#EDDCC6"/>
</g>
<path d="M230.142 159.676H107.139C104.961 159.676 103.191 157.906 103.191 155.729V148.963C103.191 146.786 104.961 145.016 107.139 145.016H230.142C232.319 145.016 234.089 146.786 234.089 148.963V155.729C234.089 157.906 232.319 159.676 230.142 159.676Z" fill="#EDDCC6"/>
<g opacity="0.5">
<path d="M228.841 157.592H108.454C105.556 157.592 103.191 155.242 103.191 152.329V154.412C103.191 157.31 105.54 159.675 108.454 159.675H228.841C231.739 159.675 234.104 157.326 234.104 154.412V152.329C234.088 155.242 231.739 157.592 228.841 157.592Z" fill="#EDDCC6"/>
</g>
<path d="M174.224 145.219C172.798 140.473 173.08 136.401 173.472 134.067C173.221 134.02 172.955 133.973 172.72 133.91C171.953 133.19 169.055 132.689 164.152 130.793C160.315 129.321 156.54 127.003 151.168 125.875C145.106 124.591 140.72 125.703 138.136 126.752C137.259 127.113 128.675 131.075 126.247 130.981C125.167 132.626 126.31 134.694 126.247 141.867C126.232 143.763 126.075 146.316 125.84 149.057C125.214 156.7 124.086 165.848 124.321 166.474C124.65 167.336 139.279 168.15 144.401 166.647C149.93 165.018 162.962 166.255 167.254 167.054C171.545 167.853 173.441 167.461 174.302 167.054C175.179 166.647 176.479 152.675 174.224 145.219Z" fill="#25D366"/>
<g opacity="0.3">
<path d="M127.485 164.203C127.062 165.864 129.787 144.593 134.111 144.515C138.434 144.436 146.766 143.262 147.456 142.87C148.145 142.479 165.515 143.544 166.392 143.7C167.254 143.873 169.87 146.755 170.214 152.346C170.559 157.938 171.264 162.809 171.953 164.188C171.953 164.188 167.27 156.622 166.565 152.331C165.875 148.039 163.432 146.144 159.093 147.616C154.755 149.088 144.855 147.021 142.772 147.616C140.689 148.227 133.045 142.666 127.485 164.203Z" fill="#6DDBDC"/>
</g>
<path d="M93.7462 140.364C93.3076 134.631 97.1138 133.269 106.621 134.584C116.129 135.916 124.352 137.31 124.352 137.31L123.068 144.687L105.541 144.828C105.541 144.828 94.0595 144.609 93.7462 140.364Z" fill="#F8BE86"/>
<path d="M124.336 137.309C129.098 136.886 131.04 137.857 135.582 138.735C139.451 139.486 148.223 141.867 150.118 140.63C152.013 139.392 154.989 137.153 157.385 137.247C159.782 137.325 165.985 138.797 163.635 139.251C161.286 139.721 155.475 141.053 155.083 142.071C154.707 143.089 158.043 142.149 158.56 142.964C159.077 143.762 156.195 143.59 154.112 144.201C152.029 144.812 151.684 144.796 149.288 144.373C146.891 143.95 133.75 144.53 130.335 144.969C127.61 145.313 123.052 144.671 123.052 144.671L124.336 137.309Z" fill="#F8BE86"/>
<g opacity="0.3">
<path d="M93.7462 140.364C93.3076 134.631 97.1138 133.269 106.621 134.584C116.129 135.916 124.352 137.31 124.352 137.31L123.068 144.687L105.541 144.828C105.541 144.828 94.0595 144.609 93.7462 140.364Z" fill="#F8BE86"/>
<path d="M124.336 137.309C129.098 136.886 131.04 137.857 135.582 138.735C139.451 139.486 148.223 141.867 150.118 140.63C152.013 139.392 154.989 137.153 157.385 137.247C159.782 137.325 165.985 138.797 163.635 139.251C161.286 139.721 155.475 141.053 155.083 142.071C154.707 143.089 158.043 142.149 158.56 142.964C159.077 143.762 156.195 143.59 154.112 144.201C152.029 144.812 151.684 144.796 149.288 144.373C146.891 143.95 133.75 144.53 130.335 144.969C127.61 145.313 123.052 144.671 123.052 144.671L124.336 137.309Z" fill="#F8BE86"/>
</g>
<path d="M126.232 125.955C123.443 127.083 122.927 128.649 120.185 129.26C117.444 129.871 121.188 130.905 122.551 130.106C122.989 129.855 124.697 129.652 125.809 129.981C128.127 130.685 130.711 132.377 133.64 132.878C136.929 133.442 139.874 132.706 139.436 131.735C138.997 130.764 131.87 129.26 132.34 128.117C132.841 126.973 126.232 125.955 126.232 125.955Z" fill="#F8BE86"/>
<path d="M103.082 125.955C105.87 127.083 106.387 128.649 109.112 129.26C111.853 129.871 108.11 130.905 106.747 130.106C106.309 129.855 104.601 129.652 103.489 129.981C101.171 130.685 98.5866 132.377 95.6576 132.878C92.384 133.442 89.4236 132.706 89.8622 131.735C90.3007 130.764 97.4275 129.26 96.9576 128.117C96.4877 126.973 103.082 125.955 103.082 125.955Z" fill="#F8BE86"/>
<g opacity="0.5">
<path d="M126.232 125.955C123.443 127.083 122.927 128.649 120.185 129.26C117.444 129.871 121.188 130.905 122.551 130.106C122.989 129.855 124.697 129.652 125.809 129.981C128.127 130.685 130.711 132.377 133.64 132.878C136.929 133.442 139.874 132.706 139.436 131.735C138.997 130.764 131.87 129.26 132.34 128.117C132.841 126.973 126.232 125.955 126.232 125.955Z" fill="#F8BE86"/>
</g>
<g opacity="0.5">
<path d="M103.082 125.955C105.87 127.083 106.387 128.649 109.112 129.26C111.853 129.871 108.11 130.905 106.747 130.106C106.309 129.855 104.601 129.652 103.489 129.981C101.171 130.685 98.5866 132.377 95.6576 132.878C92.384 133.442 89.4236 132.706 89.8622 131.735C90.3007 130.764 97.4275 129.26 96.9576 128.117C96.4877 126.973 103.082 125.955 103.082 125.955Z" fill="#F8BE86"/>
</g>
<path d="M93.1043 117.842C95.0935 117.168 97.2863 116.573 99.1189 115.461C101.437 119.659 103.74 123.606 104.476 124.875C104.617 125.125 104.538 125.438 104.303 125.611C98.0225 130.153 94.9682 128.054 94.9682 128.054C94.9682 128.054 92.1958 124.138 89.1885 119.33C90.4885 118.782 91.8042 118.28 93.1043 117.842Z" fill="#03C0FF"/>
<path d="M136.209 117.842C134.22 117.168 132.027 116.573 130.195 115.461C127.876 119.659 125.574 123.606 124.838 124.875C124.697 125.125 124.775 125.438 125.01 125.611C131.291 130.153 134.345 128.054 134.345 128.054C134.345 128.054 137.118 124.138 140.125 119.33C138.841 118.782 137.525 118.28 136.209 117.842Z" fill="#03C0FF"/>
</g>
<defs>
<linearGradient id="paint0_linear_343_2344" x1="27.1304" y1="45.3184" x2="197.199" y2="253.774" gradientUnits="userSpaceOnUse">
<stop stop-color="#25D366"/>
<stop offset="1" stop-color="#03C0FF"/>
</linearGradient>
</defs>
</svg>
