<svg width="231" height="232" viewBox="0 0 231 232" fill="none" xmlns="http://www.w3.org/2000/svg">
<circle cx="115.504" cy="116" r="115.421" fill="white"/>
<path opacity="0.2" d="M88.7486 55.9398C86.9933 61.3046 84.4743 66.9567 79.5435 69.557C76.2071 71.3224 72.2142 71.4045 68.8511 73.1152C65.0323 75.0586 62.4999 78.8495 60.3025 82.5857C58.4802 85.6786 56.7384 88.9495 56.3364 92.5351C55.7736 97.5167 57.8505 102.361 59.4316 107.11C61.8702 114.432 63.1967 122.151 63.3575 129.883C63.5451 139.299 62.0444 148.92 64.4696 157.993C68.0873 171.515 81.4729 181.916 95.1667 180.848C99.5884 180.506 103.876 179.097 108.271 178.495C114.287 177.673 120.504 178.412 126.172 180.629C131.076 182.545 135.886 185.597 141.125 185.187C146.887 184.735 151.617 180.082 154.216 174.799C159.603 163.81 157.566 150.617 154.163 138.82C150.759 127.037 146.07 115.267 146.539 102.977C147.155 86.5956 156.923 70.8161 153.761 54.7491C152.782 49.795 150.612 45.1692 148.012 40.8719C145.574 36.8484 142.68 33.0164 138.834 30.3887C134.68 27.5558 129.656 26.3241 124.698 25.6946C116.632 24.6682 107.36 25.5851 102.174 31.9763C96.1314 39.4076 91.7366 46.7978 88.7486 55.9398Z" fill="url(#paint0_linear_434_1552)"/>
<path d="M121.148 64.795C121.161 65.0003 121.202 65.2056 121.282 65.3972C121.925 66.9026 123.319 66.7931 122.97 68.7501C122.756 69.9408 122.019 71.0493 120.974 71.6104C119.085 72.6232 116.311 72.1305 115.159 73.9644C114.877 74.416 114.743 74.9497 114.382 75.3466C113.323 76.5373 111.38 75.634 109.839 75.9351C108.03 76.2909 106.838 78.3301 105.002 78.5217C103.729 78.6585 102.55 77.8237 101.304 77.5637C99.7632 77.2352 98.1821 77.7553 96.6412 78.0837C95.1003 78.4259 93.3317 78.5217 92.0856 77.5363C91.0404 76.7015 90.6251 75.374 89.9551 74.2654C89.2316 73.0611 88.1061 72.6505 87.3021 71.5694C86.0426 69.8997 88.0123 68.0522 88.5884 66.5468C89.0038 65.4382 88.7894 64.3023 89.1378 63.1801C89.379 62.4274 90.0757 61.9484 90.7725 61.5926C91.8712 61.0315 92.4071 60.7577 92.8091 59.5945C93.2513 58.308 93.3585 56.9805 93.747 55.6804C94.3098 53.8465 95.5827 52.4095 96.8824 51.0683C98.5707 49.3439 101.009 48.5912 103.301 48.208C105.846 47.7975 108.151 48.5639 110.429 49.8229C112.01 50.6988 113.43 51.9716 114.207 53.6275C114.408 54.0655 114.583 54.5582 114.824 54.9687C115.011 55.3109 115.252 55.612 115.587 55.8172C116.204 56.1868 117.035 56.1457 117.557 56.6384C118.294 57.3227 117.972 58.4312 118.401 59.2386C118.803 59.9914 119.513 60.2651 120.063 60.8535C120.585 61.4147 120.96 61.921 121.161 62.7011C121.336 63.3991 121.108 64.1244 121.148 64.795Z" fill="#3B2645"/>
<path d="M111.407 56.3369C111.407 56.3369 111.527 68.4761 117.45 69.7351C117.45 69.7351 116.204 79.2193 111.889 80.9163C107.575 82.627 106.194 71.7606 106.194 71.7606L105.578 63.4945L111.407 56.3369Z" fill="#25182B"/>
<path d="M133.957 59.5939C132.524 54.2018 130.367 49.0149 128.156 43.9239C127.151 41.5973 126.092 39.216 124.886 36.9579C124.257 35.7946 123.587 34.6587 122.85 33.5639C122.622 33.2217 122.327 32.948 121.979 32.7564C120.317 31.8121 117.611 32.469 116.592 34.1387C116.003 35.1103 116.311 36.4105 116.994 37.3137C117.182 37.5601 117.383 37.7653 117.597 37.9706C118.2 38.5317 118.897 38.9834 119.58 39.4487C120.264 39.9277 120.8 40.4751 121.228 41.0909C122.528 42.9522 122.81 45.3335 123.426 47.6737C124.471 51.711 125.53 55.7619 126.588 59.7992C126.588 59.7992 125.315 61.3046 123.479 63.0974C121.979 64.5755 120.344 65.903 118.857 67.381C118.24 67.9832 117.504 68.4348 116.807 68.9275C116.552 69.1054 116.298 69.297 116.043 69.4749C114.998 70.255 113.98 71.0898 112.841 71.733C112.291 72.0478 111.702 72.3215 111.099 72.4994C110.429 72.7047 109.987 73.1016 109.437 73.5532C108.566 74.2649 107.709 75.0176 106.999 75.9072C106.757 76.2219 106.53 76.5367 106.342 76.8925C106.235 77.0978 106.168 77.6179 106.021 77.7684L106.007 77.8779C105.887 78.6032 107.695 78.6853 110.161 78.4664C111.112 78.3843 112.157 78.2611 113.243 78.0969C113.805 78.0147 114.382 77.9189 114.944 77.8368C115.226 77.7958 115.48 77.7684 115.735 77.7547C118.374 77.5768 119.674 78.8633 120.13 79.4791C120.277 79.657 120.331 79.7939 120.331 79.7939C120.331 79.7939 128.035 70.5424 129.067 69.2149C129.268 68.9549 129.482 68.6948 129.67 68.4348C132.256 65.0271 134.493 61.3867 133.957 59.5939Z" fill="#F5A784"/>
<path d="M121.108 101.403C121.188 101.69 121.269 101.964 121.362 102.237C119.46 102.771 117.544 103.264 115.614 103.688C115.239 103.784 114.864 103.866 114.489 103.948C112.854 104.318 111.407 104.359 110.228 105.399C110.054 105.549 109.893 105.686 109.732 105.837C109.236 106.261 108.767 106.672 108.272 107.055C107.816 107.411 107.32 107.753 106.758 108.068C104.587 109.313 102.322 111.092 101.384 113.487C100.956 114.582 100.808 115.444 100.085 116.429C99.7364 116.908 97.2844 118.893 97.2844 119.276C97.2442 117.196 97.4318 115.239 97.7802 113.323C98.2357 110.791 98.9727 108.369 99.7632 105.837C99.8302 105.618 99.9106 105.399 99.9776 105.166C100.098 104.783 100.205 104.386 100.286 103.976C101.009 100.623 100.54 96.7222 100.085 93.4376C100.058 93.205 100.004 92.986 99.9642 92.767C99.6158 90.8647 99.2139 89.0172 98.7315 87.1696C98.7181 87.1012 98.6913 87.0191 98.6779 86.9369C98.5975 86.6222 98.5171 86.3211 98.4367 86.0337C98.1553 84.9799 97.8338 83.9398 97.4452 82.886C96.7083 80.8332 95.6631 78.5613 95.7703 76.2758C95.8239 75.1536 96.5877 74.5378 97.5658 74.1683C98.4233 73.8398 99.3613 73.7029 100.125 73.525C100.272 73.4977 100.406 73.4566 100.54 73.4429C100.581 73.4292 100.621 73.4156 100.661 73.4156C100.969 73.3471 101.264 73.2924 101.518 73.2513C101.76 73.2103 101.974 73.1692 102.175 73.1281C102.242 73.1145 102.309 73.1008 102.376 73.0871C102.952 72.9913 103.26 72.9229 103.26 72.8544L101.92 64.3557C101.92 64.3557 102.872 64.0956 104.078 63.9862C105.82 63.8219 108.057 63.9725 108.432 65.7379L110.281 71.9101C110.281 71.9101 110.362 71.9101 110.509 71.8964C110.737 71.8828 112.05 71.8417 112.211 71.8417C112.841 71.828 113.578 71.828 114.288 71.8554C114.475 71.8691 114.69 71.8828 114.918 71.8964C115.279 71.9101 115.681 71.9238 116.083 71.9375C117.209 72.0196 118.254 72.266 118.656 73.3882C119.259 75.1536 119.473 76.8643 120.304 78.6161C120.424 78.8761 120.545 79.1361 120.666 79.3962C121.295 80.8605 121.711 82.4617 121.228 83.9398C121.027 84.5693 120.666 85.1304 120.384 85.7326C120.224 86.0884 120.09 86.5401 119.982 87.0601C119.379 90.0436 119.661 95.5726 120.853 100.239C120.907 100.677 121.001 101.047 121.108 101.403Z" fill="#F5A784"/>
<path d="M104.265 75.2237C104.252 75.1826 104.252 75.1279 104.225 75.1005C104.158 74.9089 104.064 74.731 103.971 74.5531C103.783 74.2383 103.542 73.9509 103.234 73.7046C102.966 73.4993 102.684 73.3077 102.389 73.1572C102.296 73.0887 95.3148 71.1317 92.3938 70.5843C91.898 70.4885 91.3889 70.4064 90.8529 70.2969C90.0088 70.1463 89.2048 69.9547 88.4813 69.7631C82.6795 68.1756 80.4821 65.4111 80.4821 65.4111C80.3347 61.2233 80.1873 57.0492 80.0399 52.8614C79.9595 50.658 79.6111 48.482 80.0935 46.4839C80.3079 45.567 80.6964 44.7048 81.353 43.87C81.6344 43.5278 81.9158 43.172 82.1838 42.8162C82.5991 42.2824 82.9743 41.7076 83.2155 41.0644C83.6174 40.0106 83.537 38.6557 82.6929 37.9167C80.9242 36.3429 77.2395 36.9587 76.5294 39.2168C76.3552 39.7506 76.2078 40.2843 76.0738 40.8181C75.846 41.6939 75.6584 42.5972 75.4708 43.4731C75.0019 45.8681 74.6937 48.3178 74.4123 50.6991C73.729 56.2281 73.1662 61.8392 73.327 67.4092C73.3404 69.5852 79.5307 73.8551 85.4263 77.4271C86.257 77.9334 87.0744 78.4261 87.8783 78.8914C91.5899 81.0675 95.8239 82.5455 98.2492 86.2954C98.3429 86.4322 98.4233 86.5691 98.5037 86.7059C98.5439 86.788 98.5975 86.8838 98.6511 86.966C98.8789 87.3081 99.1603 87.6366 99.5087 87.6639C99.5623 87.6776 99.6158 87.6776 99.6694 87.6639C100.071 87.6092 100.326 87.2123 100.527 86.8565C101.813 84.5025 105.31 78.5767 104.265 75.2237ZM79.504 45.2796C79.4906 45.2385 79.5039 45.2111 79.5173 45.1838C79.5173 45.2111 79.5173 45.2385 79.504 45.2796Z" fill="#F5A784"/>
<path d="M130.085 202.486C129.897 202.581 130.085 204.593 130.098 204.785L130.112 204.881C129.482 204.908 128.839 204.949 128.209 205.017C127.606 205.004 126.99 204.99 126.373 204.922C126.253 204.908 126.146 204.922 126.025 204.922C125.958 203.868 125.851 202.828 125.663 201.801C125.489 200.898 125.315 199.995 125.168 199.105C124.243 193.932 109.491 104.36 109.491 104.36C109.906 104.346 110.442 104.209 111.058 104.045C111.849 103.826 112.773 103.539 113.711 103.237C114.154 103.101 114.609 102.95 115.065 102.813C115.373 102.717 115.668 102.635 115.962 102.567C118.079 102.006 119.969 99.2686 120.813 100.281C121.067 100.582 121.309 100.897 121.55 101.253C122.126 102.06 122.716 103.018 123.278 104.059C124.578 106.399 125.851 109.177 126.896 111.736C127.191 112.434 127.459 113.118 127.713 113.762C127.888 114.2 128.048 114.624 128.196 115.034C129.254 117.867 129.857 121.426 130.179 125.162C130.608 130.198 130.487 135.563 130.219 139.956C130.085 142.091 129.911 144.007 129.737 145.553C129.67 146.169 129.589 146.73 129.536 147.209C128.718 153.231 128.584 161.442 129.924 174.717C130.165 177.181 130.34 179.672 130.433 182.108C130.688 188.417 130.527 194.329 130.366 198.147C130.219 200.843 130.085 202.486 130.085 202.486Z" fill="#F5A784"/>
<path d="M115.641 103.237C115.641 103.237 115.627 103.388 115.601 103.689C115.601 103.812 115.587 103.976 115.574 104.154C115.293 107.37 108.151 200.843 108.057 201.76C107.95 202.8 107.936 203.84 107.963 204.908C107.843 204.921 107.735 204.921 107.628 204.935C107.025 205.045 106.409 205.127 105.806 205.195C105.176 205.181 104.533 205.209 103.903 205.236V205.14C103.89 204.935 103.903 202.923 103.702 202.841C103.702 202.841 103.421 201.213 103.073 198.544C102.563 194.712 101.88 188.731 101.585 182.327C101.478 179.973 101.425 177.55 101.451 175.169C101.626 161.825 100.768 153.655 99.4415 147.729C99.3477 147.25 99.2137 146.703 99.0931 146.101C98.9189 145.28 98.7447 144.308 98.5706 143.227C97.2173 135.221 95.6764 121.029 97.78 113.324C98.3562 111.216 99.1333 111.613 99.7631 109.93C100.58 107.685 101.411 105.783 102.108 104.277C102.148 104.195 102.188 104.1 102.228 104.017C103.448 101.636 104.212 100.295 104.212 100.295C104.212 100.295 104.948 101.321 107.133 102.156C107.561 102.32 108.057 102.471 108.593 102.621C108.874 102.704 109.169 102.786 109.491 102.84C110.187 102.977 110.898 103.073 111.688 103.142C112.037 103.169 112.398 103.21 112.773 103.224C113.082 103.237 113.39 103.251 113.711 103.251C114.314 103.265 114.958 103.265 115.641 103.237Z" fill="#F5A784"/>
<path d="M102.497 206.551C102.765 206.154 103.073 205.771 103.18 205.401C103.368 204.772 103.22 204.087 103.14 203.43C103.113 203.239 103.1 203.047 103.167 202.869C103.287 202.596 103.582 202.459 103.863 202.349C104.761 201.993 105.712 201.624 106.677 201.733C107.87 201.87 108.553 202.719 108.607 203.882C108.62 204.402 108.553 204.662 108.767 205.141C109.049 205.771 109.518 206.154 109.612 206.907C109.705 207.687 109.33 208.549 108.607 208.823C108.258 208.959 107.883 208.946 107.521 208.918C106.449 208.877 105.378 208.836 104.306 208.782C103.703 208.754 103.059 208.713 102.564 208.344C101.8 207.769 102.081 207.153 102.497 206.551Z" fill="#25D366"/>
<path d="M125.222 206.578C125.449 206.167 125.731 205.743 125.811 205.36C125.945 204.717 125.731 204.046 125.597 203.403C125.557 203.211 125.53 203.02 125.583 202.842C125.677 202.554 125.972 202.39 126.226 202.253C127.097 201.815 128.009 201.364 128.973 201.377C130.179 201.405 130.93 202.185 131.077 203.334C131.144 203.854 131.104 204.128 131.345 204.58C131.68 205.182 132.189 205.524 132.336 206.263C132.497 207.029 132.202 207.933 131.506 208.261C131.171 208.425 130.796 208.439 130.434 208.466C129.362 208.521 128.29 208.576 127.218 208.631C126.615 208.658 125.972 208.685 125.449 208.357C124.645 207.864 124.873 207.221 125.222 206.578Z" fill="#25D366"/>
<path d="M109.531 69.5298C106.637 70.1046 104.198 69.4203 102.564 68.6676L102.095 65.7388L104.038 64.0418C105.793 63.8776 108.03 64.0281 108.406 65.7936L109.531 69.5298Z" fill="#E0855C"/>
<path d="M111.555 58.1309C111.126 55.9275 110.603 54.0799 109.732 53.1904C105.927 49.29 99.2542 51.3017 98.3431 54.9148C98.0483 56.0917 98.1421 57.6792 98.5039 59.5268C97.6061 59.5131 95.9849 59.7595 96.628 61.9355C97.1506 63.742 98.6378 63.8925 99.7098 63.7283C101.746 68.4088 105.927 68.5183 107.95 68.1761C110.107 67.8066 112.868 64.7958 111.555 58.1309Z" fill="#F5A784"/>
<path d="M108.593 59.075C108.593 59.075 109.196 59.1981 108.942 58.1854C108.714 57.2685 108.325 57.4737 108.325 57.4737C108.325 57.4737 107.937 57.5422 108.124 58.3359C108.312 59.1297 108.593 59.075 108.593 59.075Z" fill="#3B2645"/>
<path d="M103.233 60.1287C103.233 60.1287 103.836 60.2518 103.582 59.2391C103.354 58.3222 102.966 58.5274 102.966 58.5274C102.966 58.5274 102.577 58.5959 102.765 59.3896C102.966 60.1834 103.233 60.1287 103.233 60.1287Z" fill="#3B2645"/>
<path d="M106.007 61.7983C106.289 61.7025 106.972 61.7709 107.066 61.4288C107.133 61.1414 106.423 59.6633 106.302 59.4033C106.182 59.1296 106.061 58.8696 105.954 58.6232C105.981 58.5958 105.994 58.5822 106.021 58.5548C106.074 58.5137 106.128 58.4727 106.195 58.459C106.637 59.4854 107.012 60.5666 107.428 61.5382C107.468 61.6204 107.414 61.7298 107.32 61.7435C106.892 61.812 106.503 61.9762 106.088 62.0446C105.954 62.072 105.873 61.8393 106.007 61.7983Z" fill="#E0855C"/>
<path d="M107.454 56.0643C107.829 55.7769 108.58 55.599 108.942 55.9822C109.009 56.0506 108.955 56.1875 108.861 56.1875C108.66 56.2148 108.459 56.1464 108.258 56.1601C108.03 56.1738 107.829 56.2696 107.642 56.3654C107.468 56.4612 107.293 56.1875 107.454 56.0643Z" fill="#3B2645"/>
<path d="M101.961 57.6664C102.095 57.0368 103.1 56.8042 103.582 57.1052C103.689 57.1737 103.662 57.3379 103.555 57.3926C103.314 57.5158 103.033 57.4611 102.778 57.5295C102.55 57.5842 102.389 57.7211 102.188 57.8306C102.081 57.8853 101.934 57.7895 101.961 57.6664Z" fill="#3B2645"/>
<path d="M105.592 63.5087C106.021 63.6456 106.369 63.8235 106.838 63.7688C107.2 63.7277 107.575 63.4814 107.937 63.5498C107.99 63.5635 108.044 63.6182 108.017 63.6866C107.816 64.1383 107.133 64.2888 106.691 64.3299C106.222 64.3709 105.645 64.2888 105.337 63.8919C105.19 63.6866 105.377 63.4403 105.592 63.5087Z" fill="#E0855C"/>
<path d="M98.8655 51.9173L96.7082 54.3123C96.5876 55.6809 96.3464 56.981 96.7618 58.2812C96.8958 58.7054 97.0834 59.1297 97.4184 59.4171C97.7132 59.6634 98.1419 59.7455 98.4769 59.5813C98.5305 59.5539 98.5841 59.5266 98.6243 59.4855C98.9191 59.2255 98.9593 58.7738 98.9727 58.377C98.9861 57.6106 98.9727 56.8442 99.0932 56.0778C99.2272 55.2703 99.589 54.3944 100.125 53.7786C100.728 53.0669 101.733 52.9027 102.497 52.4374C103.033 52.1089 103.341 51.3836 103.823 51.1236C104.413 50.8088 105.592 51.2878 106.181 51.4384C107.146 51.6847 108.432 52.0268 109.143 52.8069C109.973 53.7102 110.978 55.1882 111.42 56.3241C111.474 56.4473 111.862 57.1726 111.983 57.2137C112.653 57.4874 112.238 54.9282 112.278 54.5587C112.372 53.4775 112.13 52.3553 111.554 51.4384C110.616 49.9329 109.129 49.3445 107.468 49.1802C106.57 49.0981 105.86 49.3171 104.962 49.3992C103.81 49.5087 102.523 49.6318 101.478 50.2614C100.581 50.8088 99.7632 51.3973 98.8655 51.9173Z" fill="#3B2645"/>
<path d="M130.206 139.957C125.221 141.928 120.438 143.05 116.043 143.625C115.829 142.311 114.221 132.402 113.604 128.776C113.336 132.183 112.573 142.461 112.465 143.98C106.878 144.35 102.095 143.857 98.5707 143.228C97.7533 138.383 96.869 131.239 96.7618 124.656C96.6948 120.386 96.9628 116.363 97.7935 113.325C98.2625 110.793 98.986 108.37 99.7766 105.839C99.8436 105.62 99.924 105.401 99.991 105.168C100.112 104.785 100.219 104.388 100.299 103.977C100.956 103.991 101.612 104.005 102.242 104.005C106.195 103.991 109.745 103.663 112.787 103.211C113.591 103.088 114.355 102.951 115.078 102.814C115.159 102.8 115.226 102.8 115.279 102.773C117.624 102.335 119.594 101.829 121.121 101.377C121.269 101.336 121.403 101.281 121.55 101.24C122.006 101.87 122.448 102.595 122.903 103.375C123.024 103.594 123.158 103.827 123.278 104.046C123.479 104.388 123.667 104.744 123.855 105.113C124.953 107.207 125.998 109.547 126.896 111.723C127.178 112.421 127.459 113.106 127.714 113.749C127.888 114.187 128.048 114.611 128.196 115.022C129.254 117.855 129.857 121.413 130.179 125.149C130.594 130.199 130.474 135.564 130.206 139.957Z" fill="#25D366"/>
<path d="M161.157 107.699C160.179 99.0908 142.693 94.123 119.915 95.4094C119.982 96.0116 120.076 96.6274 120.17 97.2296C122.367 97.1064 124.511 97.0517 126.615 97.0517C144.743 97.0517 158.638 101.294 159.388 107.904C160.326 116.225 140.148 125.723 115.319 128.638C102.938 130.102 91.1205 129.788 82.0494 127.776C73.4204 125.86 68.2082 122.548 67.7795 118.675C67.3373 114.816 71.6652 110.368 79.651 106.495C85.426 103.689 92.6614 101.376 100.661 99.7477C100.647 99.1319 100.62 98.516 100.567 97.9002C92.3265 99.5835 84.8498 101.965 78.8738 104.866C70.0305 109.15 65.4614 114.131 65.9974 118.894C66.5334 123.657 72.094 127.447 81.6608 129.569C87.0874 130.773 93.452 131.375 100.339 131.375C105.189 131.375 110.308 131.074 115.52 130.458C141.514 127.406 161.211 117.84 161.211 108.452C161.197 108.192 161.184 107.945 161.157 107.699Z" fill="#868788"/>
<path d="M107.401 204.621C107.119 204.128 106.422 204.074 105.913 204.046C105.31 204.005 104.707 204.06 104.252 204.498C104.225 204.525 104.252 204.566 104.279 204.58C104.828 204.635 105.351 204.498 105.9 204.566C106.382 204.621 106.838 204.895 107.32 204.813C107.401 204.785 107.427 204.69 107.401 204.621Z" fill="#6B779C"/>
<path d="M106.918 205.62C106.087 205.455 104.734 204.922 103.997 205.551C103.85 205.674 103.984 205.907 104.145 205.907C104.64 205.921 105.069 205.866 105.578 205.962C106.007 206.044 106.422 206.181 106.851 206.181C107.159 206.181 107.24 205.674 106.918 205.62Z" fill="#6B779C"/>
<path d="M129.884 204.498C129.134 203.813 127.365 203.704 126.601 204.416C126.467 204.539 126.574 204.785 126.749 204.785C127.218 204.771 127.66 204.593 128.142 204.593C128.678 204.607 129.12 204.84 129.629 204.949C129.857 205.004 130.085 204.689 129.884 204.498Z" fill="#6B779C"/>
<path d="M129.857 205.648C128.973 205.333 127.606 205.141 126.816 205.812C126.735 205.88 126.802 206.017 126.896 206.017C127.352 206.017 127.78 205.88 128.236 205.867C128.745 205.853 129.227 205.963 129.71 206.14C130.018 206.236 130.152 205.744 129.857 205.648Z" fill="#6B779C"/>
<path d="M123.841 105.14C120.116 106.659 113.658 108.876 107.414 109.177C97.8337 109.643 96.7618 124.697 96.7618 124.697C96.6948 120.386 96.9628 116.362 97.7801 113.324C98.2491 110.792 98.9726 108.37 99.7632 105.838C99.8302 105.619 99.9106 105.4 99.9776 105.167C100.098 104.784 100.205 104.387 100.286 103.977C100.942 103.99 101.599 104.004 102.229 104.004C106.181 103.99 109.732 103.662 112.774 103.21C113.578 103.087 114.341 102.95 115.065 102.814C115.145 102.8 115.212 102.8 115.266 102.772L122.89 103.375C123.01 103.594 123.144 103.826 123.265 104.045C123.466 104.415 123.654 104.771 123.841 105.14Z" fill="#12853D"/>
<path d="M129.657 68.4487C129.456 68.7088 129.255 68.9688 129.054 69.2288C128.478 69.9678 120.786 79.2467 120.626 79.4383C120.934 80.1636 121.175 80.9163 121.309 81.6553C121.456 82.4354 121.43 83.2292 121.188 83.9819C120.987 84.6114 120.639 85.1726 120.344 85.7747C120.197 86.1306 120.05 86.5822 119.942 87.1022C119.098 91.2353 119.822 95.601 121.858 99.2961C122.703 100.829 124.444 103.689 122.167 104.688C120.21 105.55 117.504 105.893 115.4 106.303C113.698 106.645 111.863 106.892 109.933 106.987C109.384 107.028 108.821 107.042 108.258 107.042C105.914 107.042 103.716 106.673 101.412 106.317C99.4017 106.002 99.2409 105.236 99.3615 103.087C99.683 97.8181 98.8121 92.4807 96.829 87.6086C95.9447 85.4189 94.8058 83.6945 93.1309 82.0933C91.5498 80.5879 89.741 79.9447 87.8651 78.8635C87.0612 78.3982 86.2438 77.9055 85.4131 77.3991L88.4547 69.7489C89.1916 69.9542 89.9822 70.1321 90.8263 70.2826C91.3623 70.3784 91.8714 70.4742 92.3672 70.57C94.0822 70.8985 102.122 72.5544 103.113 72.6228C103.18 72.9924 103.81 74.1967 103.957 74.5388C104.051 74.7578 104.158 74.9905 104.252 75.2094C105.471 77.9329 107.2 81.1764 108.567 81.4774C109.384 81.6554 109.866 80.3142 110.134 78.4803C110.295 77.3991 110.362 76.318 110.416 75.2231C110.442 74.662 110.456 74.0872 110.469 73.5261C110.483 72.9787 110.349 72.4997 110.322 71.9522C110.322 71.9522 112.278 71.268 112.466 71.1859C115.293 69.8994 121.952 64.5757 123.453 63.0977L129.657 68.4487Z" fill="#03C0FF"/>
<path d="M127.057 71.7334C126.481 72.4314 120.786 79.2605 120.612 79.4521L118.857 75.8528C118.857 75.8528 122.836 74.4705 127.057 71.7334Z" fill="#6B779C"/>
<path d="M108.366 86.3223C107.374 87.0202 106.476 87.6635 105.284 87.9509C104.091 88.2246 103.006 87.8824 101.827 88.0056C101.746 88.0193 101.693 88.1014 101.76 88.1698C103.555 89.949 107.481 88.5393 108.768 86.7465C108.955 86.5002 108.607 86.158 108.366 86.3223Z" fill="#6B779C"/>
<path d="M75.4969 93.4523C69.7354 95.4914 64.0006 98.6528 59.4315 102.786C57.3413 104.674 55.452 106.837 54.0183 109.287C53.4288 110.286 51.5261 112.872 52.6516 113.967C52.8392 114.145 53.067 113.885 52.9196 113.693C52.33 112.941 54.1791 110.327 54.6213 109.642C55.3314 108.548 56.122 107.507 56.9661 106.522C58.6142 104.606 60.4767 102.909 62.4999 101.417C66.6268 98.3654 71.2494 96.4084 75.7381 94.0134C76.0195 93.8492 75.8185 93.3291 75.4969 93.4523Z" fill="#747474"/>
<path d="M164.051 120.385C160.621 123.547 157.445 126.653 153.359 128.952C149.312 131.238 145.024 132.552 140.549 133.592C140.335 133.647 140.375 134.016 140.603 133.989C149.285 133.222 159.428 128.159 164.56 120.796C164.788 120.481 164.306 120.153 164.051 120.385Z" fill="#747474"/>
<path d="M172.84 117.306C170.924 123.533 167.199 127.762 162.135 131.621C161.786 131.881 162.121 132.483 162.483 132.223C167.347 128.692 172.706 123.848 173.457 117.402C173.497 117.032 172.934 116.991 172.84 117.306Z" fill="#747474"/>
<defs>
<linearGradient id="paint0_linear_434_1552" x1="56.2422" y1="40.3264" x2="216.178" y2="159.711" gradientUnits="userSpaceOnUse">
<stop stop-color="#25D366"/>
<stop offset="1" stop-color="#03C0FF"/>
</linearGradient>
</defs>
</svg>
