<svg width="231" height="232" viewBox="0 0 231 232" fill="none" xmlns="http://www.w3.org/2000/svg">
<circle cx="115.579" cy="116" r="115.421" fill="white"/>
<path opacity="0.2" d="M152.109 164.762C150.851 167.532 150.432 170.623 149.397 173.501C147.34 179.188 142.911 183.738 137.802 186.829C132.692 189.921 126.927 191.674 121.162 193.066C113.353 194.939 105.243 196.21 97.303 194.979C89.3631 193.748 81.5543 189.747 77.1258 182.908C75.8942 181.008 74.9378 178.934 73.6538 177.074C70.7844 172.898 66.6965 170.757 62.8183 167.786C59.4904 165.244 56.8569 161.122 54.7475 157.442C50.1879 149.493 47.7116 140.286 47.7771 131.065C47.8034 126.877 48.3667 122.621 50.1355 118.847C52.0222 114.846 55.1405 111.607 58.2719 108.516C62.8314 104.006 67.6137 99.4829 70.352 93.6348C73.1428 87.6931 73.5751 80.935 75.1605 74.5517C78.6719 60.5136 88.2102 48.175 100.775 41.4571C111.794 35.5555 125.237 34.0299 136.911 38.4461C148.585 42.8623 158.057 53.5146 160.18 66.0405C162.368 78.9812 157.114 93.0995 162.525 105.01C164.687 109.761 168.225 114.377 171.592 118.299C175.064 122.353 176.859 127.198 177.448 132.604C177.593 133.929 177.658 135.281 177.475 136.606C175.522 150.777 157.468 152.945 152.109 164.762Z" fill="url(#paint0_linear_434_1589)"/>
<path d="M138.469 69.5599C138.116 70.122 137.631 70.5369 137.068 70.858C136.557 71.1658 135.98 71.38 135.404 71.5405C133.884 71.9822 132.128 72.0892 130.857 71.1257C130.137 70.577 129.612 69.6937 128.761 69.3726C127.411 68.8774 126.036 70.0417 124.607 70.2291C123.625 70.3629 122.629 70.0016 121.817 69.4128C121.017 68.8106 120.389 68.0076 119.865 67.1377C119.275 66.1876 118.751 65.1036 117.807 64.5416C116.956 64.033 115.934 64.0196 114.951 64.033C113.733 64.0732 112.357 64.207 111.584 65.1839C111.256 65.5988 110.968 66.2946 110.549 66.7095C110.248 67.0173 109.894 67.1511 109.409 66.9638C108.033 66.4151 108.662 64.9029 109.199 64.0063C110.444 61.9053 112.75 60.4466 115.174 60.393C116.17 60.3663 117.152 60.567 118.148 60.5938C119.196 60.6205 120.244 60.4733 121.24 60.1388C122.341 59.7641 123.363 59.1886 124.463 58.8407C126.612 58.1582 129.206 58.5195 130.713 60.2191C131.172 60.7276 131.512 61.3298 132.036 61.7848C132.888 62.5208 134.054 62.6814 135.102 63.0428C136.426 63.4844 137.67 64.3141 138.378 65.5185C139.098 66.7363 139.229 68.3689 138.469 69.5599Z" fill="#3B2645"/>
<path d="M137.068 70.858C136.557 71.1658 135.98 71.38 135.404 71.5405C133.884 71.9822 132.128 72.0892 130.857 71.1257C130.137 70.577 129.613 69.6938 128.761 69.3726C127.411 68.8774 126.036 70.0417 124.608 70.2291C123.625 70.3629 122.629 70.0016 121.817 69.4128C121.018 68.8106 120.389 68.0076 119.865 67.1377C119.275 66.1876 118.751 65.1036 117.808 64.5416C116.956 64.033 115.934 64.0197 114.951 64.033C113.733 64.0732 112.357 64.207 111.584 65.1839C111.257 65.5988 110.968 66.2947 110.549 66.7095C109.802 63.2569 114.113 62.106 116.655 62.2398C118.358 62.3335 120.061 63.0294 121.201 64.3274C121.895 65.117 122.393 66.1341 123.324 66.6025C124.175 67.0441 125.184 66.9236 126.127 66.8032C127.66 66.6025 129.364 66.4686 130.569 67.4456C131.539 68.2351 131.984 69.6402 133.111 70.1755C134.329 70.751 135.888 70.1086 137.041 70.8179L137.068 70.858Z" fill="#2C1C33"/>
<path d="M114.375 135.013C113.274 136.204 112.016 137.341 110.654 138.412C109.33 139.456 107.929 140.419 106.5 141.302C100.893 144.755 91.4461 151.005 88.4588 153.226C87.9217 153.628 87.7382 154.364 88.0396 154.966C89.2319 157.308 90.4504 162.192 91.5378 167.666C93.6997 178.612 95.3374 191.928 95.3374 191.928C93.8045 194.176 89.9525 193.199 89.9525 193.199C89.9525 193.199 84.9868 181.195 80.7941 170.141C77.6234 161.751 74.9113 153.909 75.1471 152.263C75.7105 148.221 88.5505 135.602 97.722 126.809C102.897 121.844 106.907 118.111 106.907 117.83C106.907 117.83 108.243 117.642 110.051 118.004C112.265 118.445 115.2 119.73 117.27 123.196C119.563 127.05 117.807 131.266 114.375 135.013Z" fill="#F5A784"/>
<path d="M173.767 158.673C173.832 159.543 173.596 160.439 173.334 161.149C173.007 162.045 172.588 162.687 172.588 162.687C172.588 162.687 160.023 163.584 148.139 163.838C138.679 164.039 129.665 163.838 127.844 162.46C125.433 160.667 120.585 149.854 116.353 139.777C115.659 138.158 115.004 136.552 114.362 135.013C111.27 127.532 108.859 121.456 108.571 121.376C108.571 121.376 108.885 119.784 110.038 117.977C111.231 116.077 113.34 113.949 116.956 113.159C124.005 111.634 130.477 121.711 130.831 129.847C130.897 131.386 131.08 133.179 131.316 135.08C132.141 141.45 133.714 148.997 134.369 152.008C134.513 152.691 135.168 153.159 135.849 153.052C138.522 152.637 143.671 152.959 149.305 153.574C160.311 154.765 173.203 157.054 173.203 157.054C173.57 157.549 173.727 158.111 173.767 158.673Z" fill="#F5A784"/>
<path d="M103.802 100.286C103.002 95.8433 101.928 91.3067 100.945 91.842C99.0586 92.8858 97.0147 98.493 95.5211 106.549C94.0405 114.605 91.2629 117.094 91.2629 117.094C87.2667 117.416 83.2706 117.723 79.2745 118.045C76.2086 118.299 73.2606 119.088 70.614 117.094C69.7362 116.425 68.8845 115.703 67.8495 115.355C66.8144 115.007 65.5304 115.141 64.8491 115.997C63.421 117.817 64.1547 121.484 66.3558 122.099C69.9196 123.09 73.7454 123.424 77.4271 123.732C82.7334 124.187 88.1315 124.522 93.464 124.134C95.4031 124.053 98.2201 120.239 100.578 116.372C103.042 112.344 105.02 108.262 105.02 108.262C105.02 108.262 104.535 104.314 103.802 100.286ZM72.0421 118.901C72.0159 118.888 71.9897 118.888 71.9635 118.861C71.9897 118.861 72.0159 118.874 72.0421 118.888V118.901Z" fill="#F5A784"/>
<path d="M105.02 108.261C105.02 108.261 103.041 112.356 100.578 116.371C100.998 108.649 99.7529 103.216 99.7529 103.216C99.2943 100.205 102.321 100.138 103.801 100.272C104.535 104.313 105.02 108.261 105.02 108.261Z" fill="#E0855C"/>
<path d="M124.281 116.264C118.057 118.914 112.908 119.797 109.056 119.945C107.051 119.396 106.724 118.887 106.724 118.887C106.514 118.794 105.859 117.148 105.794 116.933C105.427 115.622 104.562 114.431 104.156 113.133C103.343 110.537 103.239 107.74 101.404 105.545C100.985 105.063 100.5 104.622 100.16 104.086C99.2294 102.668 99.3211 100.821 99.5962 99.1216C99.6093 99.0279 99.6355 98.9208 99.6486 98.8138C99.9762 96.9536 99.7403 95.2809 99.8583 93.4475C99.95 92.136 101.129 91.6543 102.321 91.2662C102.544 91.1993 103.409 90.9048 103.579 90.8513C104.3 90.6238 105.047 90.4097 105.689 90.2491C106.645 89.9948 107.353 89.8342 107.353 89.8342L107.51 83.5178C107.34 80.5603 113.825 79.1953 113.825 79.1953L114.205 88.8306C114.218 88.8975 114.572 88.8707 115.227 88.8038C115.633 88.7637 116.157 88.7101 116.786 88.6566C116.825 88.6432 116.852 88.6432 116.904 88.6432C117.048 88.6299 117.179 88.6165 117.323 88.6031C117.585 88.5897 117.861 88.5629 118.149 88.5496C118.725 88.496 119.328 88.4693 119.904 88.5228C120.913 88.6165 121.791 88.9778 122.132 90.035C122.813 92.1494 122.407 94.5582 122.237 96.7128C122.119 98.1179 122.092 99.4695 122.119 100.848C122.132 101.276 122.132 101.691 122.145 102.119C122.21 103.645 122.302 105.157 122.42 106.683C122.433 106.91 122.446 107.124 122.459 107.338C122.512 107.927 123.73 116.264 124.281 116.264Z" fill="#F5A784"/>
<path d="M117.153 97.9842C137.382 104.006 139.937 106.562 139.937 106.562C139.872 110.657 139.806 114.752 139.741 118.847C139.688 121.979 140.199 125.057 137.998 127.559C137.12 128.55 136.151 129.513 135.81 130.851C135.587 131.748 135.771 132.752 136.439 133.381C138.103 134.946 141.68 134.518 142.466 132.363C143.763 128.831 144.457 124.976 145.113 121.256C146.043 115.903 147.012 110.457 147.012 104.997C147.012 97.1412 126.809 90.5437 121.516 88.9512C120.743 88.7237 120.14 89.2857 119.406 89.6203C116.563 90.9585 115.161 97.382 117.153 97.9842ZM139.885 126.275C139.872 126.301 139.859 126.315 139.832 126.341C139.846 126.315 139.846 126.288 139.859 126.261L139.885 126.275Z" fill="#F5A784"/>
<path d="M131.329 135.095C130.425 135.041 129.547 135.068 128.682 135.135C128.224 135.175 127.778 135.202 127.333 135.282C122.511 135.978 118.541 138.266 116.353 139.792C115.659 138.173 115.004 136.567 114.362 135.028C113.261 136.219 112.003 137.356 110.641 138.427C110.051 137.49 109.291 136.54 108.44 135.59C105.177 132.03 100.408 128.618 97.709 126.811C102.884 121.846 106.894 118.112 106.894 117.831C106.894 117.831 108.23 117.644 110.038 118.005C111.23 116.105 113.34 113.977 116.956 113.188C124.005 111.662 130.477 121.739 130.831 129.876C130.897 131.401 131.08 133.194 131.329 135.095Z" fill="#25D366"/>
<path d="M95.3373 191.928C93.8043 194.177 89.9523 193.2 89.9523 193.2C89.9523 193.2 81.1477 171.079 80.7939 170.142C83.7681 169.941 87.9608 169.352 91.5377 167.68C91.7342 168.657 92.861 174.946 92.9265 175.348C94.3677 183.993 95.3373 191.928 95.3373 191.928Z" fill="#03C0FF"/>
<path d="M96.5164 195.38C96.5295 196.116 96.0447 196.785 95.4551 197.2C94.8655 197.615 94.158 197.816 93.4636 198.016C90.7122 198.846 88.2752 200.184 85.3796 200.666C83.6502 200.947 80.0995 201.429 79.5623 199.007C79.5623 199.007 79.5492 198.967 79.5492 198.886C79.523 198.659 79.5099 198.15 79.7326 197.575C80.0602 196.705 80.9511 195.675 83.1785 195.166C83.6633 195.059 84.0825 194.912 84.4494 194.738C84.6459 194.644 84.8294 194.55 85.0128 194.443C85.0652 194.403 85.1176 194.376 85.1569 194.336C85.4583 194.136 85.6941 193.921 85.9037 193.694C85.9299 193.667 85.9561 193.654 85.9692 193.627C86.192 193.373 86.3754 193.132 86.5195 192.864C86.5326 192.851 86.5588 192.824 86.5588 192.797C86.7292 192.516 86.8602 192.275 86.9912 192.021C87.3974 191.178 87.6987 190.509 88.4455 190.375C90.2143 190.094 92.7299 190.763 92.612 192.597C92.612 192.597 94.7869 192.556 95.1014 191.245C95.2979 190.415 95.6779 191.125 95.8089 191.566C96.0316 192.329 95.9137 193.172 96.1627 193.962C96.202 194.069 96.2282 194.162 96.2675 194.269C96.3854 194.604 96.4902 194.925 96.5033 195.26C96.5164 195.313 96.5164 195.353 96.5164 195.38Z" fill="#25D366"/>
<path d="M173.767 158.672L173.334 161.148C173.007 162.045 172.588 162.687 172.588 162.687C172.588 162.687 164.438 163.262 155.057 163.624C154.625 163.637 149.069 163.824 148.139 163.838C148.886 159.903 149.187 156.009 149.305 153.587C150.34 153.707 155.922 154.403 156.289 154.457C165.119 155.634 173.203 157.066 173.203 157.066C173.57 157.548 173.727 158.11 173.767 158.672Z" fill="#03C0FF"/>
<path d="M112.266 64.4484C111.846 63.7927 111.086 63.7258 110.366 63.6589C109.632 63.5919 108.898 63.6856 108.204 63.9131C107.247 64.2477 107.641 65.6127 108.623 65.4387C109.16 65.3451 109.711 65.2915 110.261 65.3584C110.811 65.4253 111.296 65.7064 111.846 65.519C112.252 65.3852 112.528 64.8766 112.266 64.4484Z" fill="#FF4590"/>
<path d="M113.969 82.3265C112.043 85.7524 109.357 86.8765 107.431 87.1976L107.522 83.5042C107.352 80.5467 113.838 79.1816 113.838 79.1816L113.969 82.3265Z" fill="#E0855C"/>
<path d="M102.111 77.2291C102.111 77.2291 99.3207 66.1619 107.182 65.3858C117.991 64.3152 118.948 73.1877 116.249 77.3094C113.785 81.0833 102.164 81.7925 102.111 77.2291Z" fill="#3B2645"/>
<path d="M116.537 75.1556C116.275 73.3089 115.096 74.0851 114.414 74.7007C114.309 72.9342 114.021 71.4622 113.471 70.4585C111.728 67.2735 104.941 67.0326 102.269 71.6762C101.666 72.7334 101.614 74.6204 101.731 76.8151C102.098 83.4661 105.439 85.6073 107.562 85.4199C109.501 85.2459 113.261 84.162 114.218 79.5852C115.122 78.8358 116.825 77.0961 116.537 75.1556Z" fill="#F5A784"/>
<path d="M104.785 76.975C104.785 76.975 104.247 77.2427 104.234 76.2122C104.234 75.2889 104.641 75.3825 104.641 75.3825C104.641 75.3825 105.034 75.3424 105.034 76.1454C105.047 76.9483 104.785 76.975 104.785 76.975Z" fill="#3B2645"/>
<path d="M110.104 76.6274C110.104 76.6274 109.567 76.895 109.554 75.8646C109.554 74.9412 109.96 75.0349 109.96 75.0349C109.96 75.0349 110.353 74.9948 110.353 75.7977C110.379 76.614 110.104 76.6274 110.104 76.6274Z" fill="#3B2645"/>
<path d="M107.876 78.9013C107.588 78.8879 106.946 79.1154 106.789 78.8076C106.658 78.5534 106.985 76.9742 107.025 76.7066C107.064 76.4122 107.116 76.1445 107.169 75.8903C107.143 75.8769 107.116 75.8501 107.09 75.8367C107.025 75.81 106.959 75.7966 106.907 75.7832C106.736 76.8672 106.645 77.9913 106.474 79.0084C106.461 79.102 106.527 79.1823 106.618 79.1823C107.038 79.1422 107.444 79.1957 107.863 79.1556C108.007 79.1422 108.02 78.9147 107.876 78.9013Z" fill="#E0855C"/>
<path d="M105.125 73.8435C104.706 73.6695 103.946 73.6829 103.697 74.1379C103.645 74.2182 103.736 74.3253 103.815 74.3253C104.012 74.2985 104.182 74.178 104.378 74.1513C104.588 74.1111 104.798 74.1513 105.02 74.1914C105.217 74.2182 105.309 73.9104 105.125 73.8435Z" fill="#3B2645"/>
<path d="M110.72 73.9778C110.444 73.4157 109.435 73.4559 109.042 73.844C108.951 73.9377 109.029 74.0848 109.134 74.1116C109.383 74.1651 109.645 74.0447 109.907 74.0447C110.13 74.0447 110.326 74.125 110.536 74.1919C110.654 74.2187 110.772 74.0848 110.72 73.9778Z" fill="#3B2645"/>
<path d="M108.689 80.4145C108.309 80.642 108.033 80.9096 107.575 80.9631C107.221 81.0167 106.815 80.8695 106.487 81.0301C106.435 81.0568 106.396 81.1237 106.448 81.1773C106.749 81.552 107.431 81.5252 107.85 81.4449C108.309 81.3646 108.833 81.1371 109.029 80.6821C109.108 80.4814 108.872 80.3074 108.689 80.4145Z" fill="#E0855C"/>
<path d="M114.873 69.4948C116.078 70.726 115.227 72.6798 114.65 74.018C114.598 74.1384 114.506 74.2723 114.388 74.2321C114.283 73.8039 114.257 73.3489 114.139 72.9207C114.021 72.4924 113.786 72.0642 113.392 71.8635C112.868 71.6092 112.2 71.7296 111.637 71.5824C110.274 71.2211 110.235 69.3476 109.016 68.9461C107.693 68.5045 106.068 69.749 105.282 70.6858C104.378 71.7564 103.645 73.0411 102.439 73.737C101.627 74.2054 100.67 74.3392 99.727 74.4061C98.8361 74.473 97.932 74.473 97.1066 74.1518C96.3991 73.8708 95.0102 72.7467 95.8095 72.1579C96.1894 71.8768 97.1721 71.9304 97.6438 71.8367C98.2071 71.7163 98.7574 71.5557 99.2684 71.288C100.592 70.5788 100.919 69.4279 101.81 68.3439C102.636 67.3268 103.893 66.5239 105.125 66.1358C106.344 65.7611 107.824 65.7611 109.043 66.1492C110.471 66.6042 111.755 67.3804 112.986 68.2101C113.55 68.5848 114.349 68.9595 114.873 69.4948Z" fill="#3B2645"/>
<path d="M96.5164 195.38C96.5295 196.117 96.0447 196.786 95.4551 197.2C94.8655 197.615 94.158 197.816 93.4636 198.017C90.7122 198.847 88.2752 200.185 85.3796 200.667C83.6502 200.948 80.0995 201.429 79.5623 199.007C79.5623 199.007 79.5492 198.967 79.5492 198.887C79.523 198.659 79.5099 198.151 79.7326 197.575C79.7457 197.602 79.772 197.642 79.7851 197.669C81.1215 201.978 88.6814 199.074 91.3673 198.003C93.1754 197.267 94.8262 196.224 96.5033 195.273C96.5164 195.314 96.5164 195.354 96.5164 195.38Z" fill="#868788"/>
<path d="M87.8169 196.451C87.0308 196.263 86.3102 195.701 85.5896 195.34C85.2096 195.139 84.8166 194.965 84.4497 194.751C84.6462 194.657 84.8297 194.564 85.0131 194.457C85.0655 194.417 85.1179 194.39 85.1572 194.35C85.3799 194.443 85.5896 194.537 85.7992 194.631C86.5591 194.992 87.5156 195.327 88.0921 195.942C88.3148 196.17 88.1052 196.518 87.8169 196.451Z" fill="#868788"/>
<path d="M89.3103 195.314C88.4587 195.273 87.6988 194.604 86.9651 194.216C86.6506 194.042 86.2707 193.895 85.9038 193.708C85.93 193.681 85.9562 193.667 85.9693 193.641C86.1921 193.386 86.3755 193.146 86.5196 192.878C86.7948 192.998 87.0699 193.159 87.3188 193.266C88.105 193.641 89.1531 193.989 89.6117 194.778C89.7558 194.992 89.5855 195.314 89.3103 195.314Z" fill="#868788"/>
<path d="M92.3242 171.828C89.1535 173.233 85.6159 174.076 82.3142 174.076C82.1701 173.715 82.0391 173.34 81.8818 172.979C84.1616 172.778 86.4152 172.564 88.6556 171.921C89.861 171.573 91.0009 171.132 92.1146 170.637C92.1801 171.038 92.2456 171.426 92.3242 171.828Z" fill="white"/>
<path d="M92.9272 175.334C89.8089 176.311 86.4416 176.847 83.3233 176.686C83.1792 176.298 83.022 175.896 82.8647 175.508C85.4065 175.361 87.9484 175.254 90.5033 174.692C91.2501 174.518 91.9838 174.317 92.7044 174.09C92.783 174.505 92.8616 174.92 92.9272 175.334Z" fill="white"/>
<path d="M152.319 163.718C151.86 163.732 151.401 163.745 150.943 163.758C151.336 162.514 151.69 161.243 151.926 159.931C152.292 157.937 152.345 155.943 152.437 153.949C152.83 153.989 153.236 154.043 153.629 154.096C153.812 157.201 153.301 160.654 152.319 163.718Z" fill="white"/>
<path d="M114.375 135.013C113.274 136.204 112.016 137.341 110.654 138.412C110.064 137.475 109.304 136.525 108.453 135.575L114.375 135.013Z" fill="#6B779C"/>
<path d="M128.683 135.134C128.224 135.16 127.779 135.2 127.333 135.281C126.455 128.389 125.381 122.005 121.005 116.117C120.821 115.863 121.201 115.649 121.385 115.809C126.455 119.904 128.237 128.148 128.683 135.134Z" fill="#6B779C"/>
<path d="M144.719 123.879C143.684 123.116 142.007 122.942 140.776 122.755C140.173 122.661 139.452 122.581 138.902 122.956C138.483 123.237 138.142 123.893 138.443 124.388C138.928 125.177 139.937 125.191 140.736 125.418C141.549 125.646 142.675 125.753 143.344 126.275C144.732 127.318 146.134 124.923 144.719 123.879Z" fill="#8695C2"/>
<path d="M74.2306 117.683C73.89 116.679 72.3177 116.505 72.0557 117.683C71.8592 118.579 71.8854 119.489 71.7674 120.399C71.6495 121.309 71.3089 122.259 71.4268 123.183C71.584 124.454 73.1563 125.123 73.9031 123.865C74.4403 122.969 74.4665 121.831 74.5058 120.801C74.5451 119.77 74.5582 118.659 74.2306 117.683Z" fill="#8695C2"/>
<path d="M124.595 115.85C116.222 120.708 106.055 118.767 106.055 118.767C105.846 118.674 105.4 117.229 105.335 117.014C104.968 115.703 104.562 114.418 104.168 113.107C103.356 110.511 103.251 107.714 101.417 105.519C100.998 105.037 100.513 104.596 100.172 104.06C99.2421 102.642 99.3338 100.795 99.6089 99.0955L102.334 91.2401C102.557 91.1731 103.422 90.8787 103.592 90.8252C104.313 90.5977 105.059 90.3836 105.701 90.223C105.112 92.9664 104.444 98.9081 108.086 99.0821C112.239 99.2828 114.571 92.9663 115.253 88.7777C115.659 88.7375 116.183 88.684 116.812 88.6305C116.851 88.6171 116.877 88.6171 116.93 88.6171C117.074 88.6037 117.205 88.5903 117.349 88.5769C117.611 88.5636 117.886 88.5368 118.175 88.5234C118.03 90.0624 117.86 92.886 118.319 95.6027C118.777 98.3594 119.852 100.996 122.171 102.08C122.236 103.605 122.328 105.118 122.446 106.643C122.459 106.871 122.472 107.085 122.485 107.299C122.498 107.406 122.551 107.74 122.642 108.236C123.035 110.511 124.136 115.85 124.595 115.85Z" fill="#03C0FF"/>
<path d="M122.63 108.276C117.743 104.716 118.306 96.0979 118.306 95.6562C118.764 98.3996 119.839 101.023 122.158 102.12C122.223 103.645 122.315 105.158 122.433 106.683C122.446 106.911 122.459 107.125 122.472 107.339C122.485 107.446 122.538 107.781 122.63 108.276Z" fill="#0696C7"/>
<path d="M88.2888 95.2411C79.5104 94.7326 70.5748 95.094 61.7833 95.2545C61.5475 95.2545 61.5475 95.6292 61.7833 95.6426C70.5748 95.8032 79.5104 96.1645 88.2888 95.656C88.5509 95.6426 88.5509 95.2679 88.2888 95.2411Z" fill="#C1CAE3"/>
<path d="M86.9522 98.6267C83.3754 98.2653 79.6282 98.5598 76.0382 98.7605C75.9072 98.7739 75.9072 98.9746 76.0382 98.9746C79.6151 99.1753 83.3754 99.4697 86.9522 99.1084C87.2405 99.0683 87.2536 98.6668 86.9522 98.6267Z" fill="#C1CAE3"/>
<path d="M170.701 141.557C166.01 141.236 161.254 141.437 156.551 141.463C151.834 141.477 147.117 141.423 142.4 141.718C142.204 141.731 142.204 142.012 142.4 142.025C147.104 142.32 151.834 142.266 156.551 142.28C161.241 142.293 166.01 142.507 170.701 142.186C171.094 142.146 171.094 141.584 170.701 141.557Z" fill="#C1CAE3"/>
<path d="M134.906 171.212C129.652 170.904 124.333 171.132 119.079 171.159C114.074 171.186 109.043 171.052 104.038 171.4C103.881 171.413 103.894 171.681 104.051 171.694C109.161 172.042 114.323 171.908 119.446 171.935C124.569 171.962 129.744 172.176 134.854 171.881C135.26 171.855 135.339 171.226 134.906 171.212Z" fill="#C1CAE3"/>
<path d="M161.123 54.0499C153.747 53.7019 146.344 53.9026 138.955 53.9026C131.604 53.9026 124.123 53.528 116.786 54.0499C116.511 54.0633 116.511 54.4647 116.786 54.4781C124.123 55.0134 131.591 54.6253 138.955 54.6253C146.331 54.6253 153.747 54.8261 161.123 54.4781C161.399 54.4915 161.399 54.0633 161.123 54.0499Z" fill="#C1CAE3"/>
<path d="M150.93 57.9711C147.432 57.3422 143.763 57.6901 140.304 58.4128C140.055 58.4663 140.107 58.9079 140.369 58.8811C143.894 58.4127 147.327 58.4796 150.864 58.4663C151.126 58.4529 151.205 58.0247 150.93 57.9711Z" fill="#C1CAE3"/>
<path d="M175.954 169.594C175.823 170.116 175.627 170.785 175.365 171.441C175.352 171.467 175.339 171.508 175.326 171.534C175.09 172.11 174.775 172.685 174.395 173.113C173.95 173.622 173.4 173.943 172.718 173.93C172.718 173.93 172.679 173.93 172.6 173.916C172.417 173.89 172.063 173.796 171.67 173.568C170.871 173.1 169.914 171.976 170.006 169.38C170.019 168.831 169.98 168.349 169.914 167.908C169.888 167.72 169.849 167.546 169.796 167.386C169.744 167.225 169.692 167.078 169.626 166.931C169.508 166.677 169.377 166.436 169.246 166.222C169.076 165.967 168.919 165.78 168.761 165.593C168.722 165.526 168.67 165.472 168.617 165.419C168.395 165.191 168.198 164.99 167.988 164.803C167.307 164.174 166.731 163.719 166.796 162.943C166.98 161.123 168.264 158.808 169.967 159.383C169.967 159.383 170.478 157.229 169.325 156.586C168.447 156.104 169.626 156.038 169.993 155.997C170.805 155.904 172.718 155.676 172.849 155.663C173.085 155.636 173.334 155.609 173.57 155.636C173.648 155.649 173.714 155.649 173.793 155.676C174.356 155.837 174.736 156.359 175.011 156.881C175.837 158.487 176.007 160.347 176.151 162.153C176.348 164.629 176.557 167.172 175.954 169.594Z" fill="#25D366"/>
<path d="M175.955 169.593C175.824 170.115 175.627 170.784 175.365 171.44C175.352 171.466 175.339 171.507 175.326 171.533C175.051 172.082 174.736 172.617 174.396 173.112C173.95 173.621 173.4 173.942 172.719 173.929C172.719 173.929 172.679 173.929 172.601 173.915C172.417 173.889 172.063 173.795 171.67 173.567C176.806 169.205 175.182 161.389 173.57 155.648C173.649 155.662 173.714 155.662 173.793 155.689C174.356 155.849 174.736 156.371 175.011 156.893C175.837 158.499 176.007 160.359 176.151 162.166C176.348 164.628 176.557 167.171 175.955 169.593Z" fill="#868788"/>
<path d="M171.919 163.959C171.199 164.374 170.544 164.655 169.967 165.284C169.705 165.565 169.443 165.886 169.207 166.207C169.076 165.993 168.919 165.806 168.762 165.632C168.984 165.351 169.22 165.096 169.338 164.949C169.928 164.227 170.793 163.397 171.749 163.357C172.063 163.343 172.194 163.798 171.919 163.959Z" fill="#868788"/>
<path d="M172.535 165.539C172.47 165.914 172.181 166.007 171.893 166.181C171.513 166.409 171.146 166.65 170.806 166.931C170.491 167.212 170.203 167.586 169.902 167.921C169.875 167.734 169.836 167.56 169.784 167.399C169.731 167.239 169.679 167.091 169.613 166.944C169.836 166.69 170.085 166.449 170.308 166.262C170.766 165.847 171.788 164.856 172.417 165.258C172.509 165.325 172.548 165.432 172.535 165.539Z" fill="#868788"/>
<path d="M155.07 163.611C154.638 163.624 154.205 163.651 153.773 163.665C154.101 162.594 154.389 161.523 154.598 160.426C155.005 158.365 155.083 156.344 155.175 154.297C155.555 154.337 155.922 154.391 156.289 154.444C156.42 157.442 155.961 160.667 155.07 163.611Z" fill="white"/>
<defs>
<linearGradient id="paint0_linear_434_1589" x1="47.7759" y1="50.8571" x2="214.118" y2="210.306" gradientUnits="userSpaceOnUse">
<stop stop-color="#25D366"/>
<stop offset="1" stop-color="#03C0FF"/>
</linearGradient>
</defs>
</svg>
