<svg width="231" height="232" viewBox="0 0 231 232" fill="none" xmlns="http://www.w3.org/2000/svg">
<circle cx="115.529" cy="116" r="115.099" fill="white"/>
<path opacity="0.2" d="M43.2861 172.05C37.5337 162.393 37.7882 149.272 43.897 139.844C46.5611 135.745 50.2603 132.21 51.7535 127.513C54.6043 118.507 48.4616 109.449 45.4242 100.513C40.8257 87.0041 43.5067 71.5076 50.7185 59.2828C57.9302 47.058 69.2653 37.8761 81.6525 31.5087C101.184 21.4649 124.838 18.1581 144.895 27.0057C164.952 35.8533 179.783 58.5792 176.203 80.8653C174.726 90.0823 170.382 98.8772 170.824 108.2C171.434 120.794 180.53 131.066 184.348 143.045C189.184 158.207 184.602 176.131 173.199 186.878C161.779 197.626 144.182 200.633 130.014 194.336C124.482 191.874 119.289 188.092 113.282 187.529C106.834 186.931 100.929 189.992 94.8712 191.698C86.7601 193.985 83.1288 192.525 75.9171 188.848C64.0899 182.833 51.4481 185.77 43.2861 172.05Z" fill="url(#paint0_linear_343_2340)"/>
<path d="M135.665 147.143C134.986 148.779 134.053 150.292 133.493 151.981C133.136 153.071 132.95 154.215 132.491 155.252C132.067 156.185 131.439 156.994 130.659 157.645C129.878 158.295 128.945 158.753 127.978 158.964C124.669 159.65 120.868 157.662 118.051 159.579C117.932 159.667 117.83 159.738 117.712 159.843C117.169 160.265 116.71 160.793 116.15 161.198C113.741 162.974 110.381 162.13 107.7 160.811C105.036 159.491 102.389 157.697 99.4192 157.732C98.3841 157.75 97.3321 157.996 96.314 157.873C94.4304 157.68 92.8524 156.36 91.6645 154.865C86.7606 148.709 87.4223 138.401 91.9021 132.192C92.7166 131.049 93.6499 129.941 93.9383 128.569C94.2098 127.25 93.8365 125.86 94.0402 124.523C94.3117 122.676 95.6352 121.234 96.7043 119.739C98.0618 117.857 99.0969 115.728 99.7756 113.477C99.9962 112.72 100.183 111.964 100.336 111.208C100.828 108.569 100.896 105.685 102.525 103.609C105.307 100.091 111.365 99.3523 115.421 100.126C120.019 101.041 124.228 103.187 125.738 108.165C126.501 110.698 126.4 113.406 126.569 116.027C126.739 118.666 127.265 121.445 129.013 123.362C129.827 124.259 130.879 124.945 131.405 126.018C132.254 127.724 131.558 129.747 131.456 131.665C131.405 132.526 131.473 133.406 131.66 134.268C131.914 135.376 132.373 136.449 133.017 137.364C133.204 137.627 133.391 137.874 133.577 138.12C134.562 139.351 135.732 140.459 136.225 141.955C136.768 143.661 136.343 145.525 135.665 147.143Z" fill="#403E3E"/>
<path d="M133.578 138.12C133.578 138.155 133.578 138.208 133.561 138.243C133.289 139.668 132.509 140.916 131.881 142.218C129.929 146.193 129.318 150.837 130.15 155.199C130.303 156.008 130.506 156.835 130.659 157.662C129.878 158.313 128.945 158.77 127.978 158.981C124.669 159.667 120.868 157.679 118.051 159.597C117.932 159.685 117.831 159.755 117.712 159.861C117.101 157.011 117.474 153.915 118.136 151.031C118.238 150.591 118.306 150.045 117.949 149.782C117.729 149.623 117.457 149.658 117.186 149.658C115.251 149.676 113.554 148.111 112.842 146.246C112.129 144.382 112.214 142.306 112.519 140.318C112.808 138.348 113.283 136.378 113.317 134.373C113.334 131.365 112.282 128.393 112.587 125.402C112.876 122.5 114.471 119.774 116.796 118.173C117.474 117.698 120.189 116.168 120.936 117.065C121.36 117.575 120.427 120.477 120.376 121.198C120.189 124.189 120.834 127.337 122.735 129.677C124.72 132.122 127.757 133.406 130.761 134.056C131.049 134.109 131.355 134.18 131.626 134.267C131.881 135.376 132.339 136.449 132.984 137.363C133.187 137.627 133.391 137.873 133.578 138.12Z" fill="#403E3E"/>
<path d="M146.032 185.172C137.259 188.62 126.45 191.487 117.847 192.824C116.727 193.369 109.685 201.249 105.273 193.791C105.103 193.492 104.934 193.175 104.764 192.824C102.711 192.507 100.556 192.103 98.3159 191.628C90.0182 189.851 80.7872 187.054 73.5415 183.906C65.3795 180.353 59.7289 176.325 60.7301 172.684C61.5615 169.623 68.2303 168.568 76.6638 168.568C88.3892 168.55 103.559 170.502 111.297 171.611C117.559 170.713 128.69 169.254 138.956 168.761C150.444 168.181 160.812 168.814 161.881 172.701C163.001 176.747 155.789 181.32 146.032 185.172Z" fill="#25D366"/>
<path d="M99.4417 169.948C99.4082 169.935 99.3781 169.922 99.3514 169.911C100.256 163.593 99.8475 156.144 98.5894 152.249L98.5895 152.249L98.5885 152.246C98.3654 151.588 98.1229 151.012 97.8764 150.574L97.8765 150.574L97.8724 150.567C97.7302 150.335 97.5767 150.104 97.4261 149.877C97.3416 149.75 97.2581 149.624 97.178 149.5C96.9511 149.15 96.7421 148.8 96.5794 148.429L96.5788 148.428C95.6492 146.349 96.2124 143.891 96.9594 141.638C96.9949 141.537 97.0257 141.432 97.0547 141.333L97.0555 141.33C97.0855 141.228 97.1136 141.132 97.1454 141.042L97.1457 141.042L97.1492 141.03C97.459 139.95 97.6261 138.891 97.7748 137.841C97.7962 137.69 97.8173 137.538 97.8384 137.387C97.9636 136.488 98.0879 135.595 98.2894 134.685L98.2896 134.684C98.4374 133.998 98.802 133.553 99.2962 133.243C99.7991 132.926 100.44 132.748 101.137 132.617C101.345 132.581 101.555 132.547 101.764 132.514C102.053 132.467 102.339 132.422 102.614 132.371L102.614 132.371L102.616 132.37C102.889 132.317 103.155 132.265 103.387 132.231L103.387 132.231L103.392 132.23C104.408 132.055 105.466 131.952 106.329 131.869C106.41 131.861 106.489 131.853 106.567 131.846C107.301 131.775 107.882 131.723 108.158 131.723H108.172L108.185 131.722C108.257 131.712 108.315 131.703 108.356 131.696C108.376 131.693 108.392 131.69 108.403 131.687L108.417 131.685L108.42 131.684L108.422 131.684L108.422 131.684L108.422 131.684L108.422 131.684L108.422 131.684L108.378 131.472L108.422 131.684L108.527 131.662L108.573 131.566C108.588 131.535 108.596 131.499 108.597 131.491C108.602 131.473 108.606 131.451 108.611 131.427C108.62 131.38 108.63 131.323 108.64 131.267C108.65 131.211 108.659 131.157 108.666 131.116L108.674 131.068L108.676 131.054L108.676 131.05L108.677 131.049L108.677 131.049L108.677 131.049L108.677 131.049L108.463 131.015L108.677 131.049L108.679 131.032V131.027L108.68 131.023L108.688 130.973C108.694 130.93 108.704 130.87 108.716 130.799C108.74 130.656 108.772 130.468 108.804 130.281C108.835 130.095 108.867 129.909 108.891 129.77L108.92 129.602L108.928 129.555L108.93 129.543L108.931 129.54L108.931 129.539L108.931 129.539L108.931 129.539L108.931 129.539L110.017 123.33L110.018 123.322L110.019 123.313C110.119 122.267 110.798 121.608 111.758 121.196C112.723 120.781 113.942 120.633 115.035 120.607C115.789 120.589 116.473 120.624 116.969 120.663C117.216 120.683 117.416 120.703 117.554 120.719C117.56 120.72 117.566 120.72 117.571 120.721L117.121 131.568L117.121 131.568V131.577C117.121 131.662 117.163 131.723 117.2 131.759C117.235 131.793 117.274 131.814 117.306 131.827C117.368 131.854 117.445 131.87 117.528 131.88C117.703 131.908 117.968 131.926 118.301 131.945C118.378 131.95 118.46 131.954 118.546 131.959C118.837 131.976 119.177 131.995 119.562 132.022L119.562 132.022L119.566 132.022C119.824 132.036 120.116 132.062 120.436 132.09C120.51 132.096 120.585 132.103 120.662 132.11L120.671 132.11H120.681C120.737 132.11 120.751 132.112 120.763 132.116L120.787 132.125L120.813 132.127C120.906 132.136 120.994 132.145 121.084 132.153L121.084 132.153C121.173 132.162 121.261 132.171 121.355 132.18C121.63 132.209 121.918 132.233 122.213 132.258C122.994 132.322 123.82 132.391 124.582 132.579C125.235 132.742 125.798 132.981 126.221 133.339C126.64 133.692 126.931 134.169 127.034 134.829L127.034 134.83C127.257 136.238 127.13 137.697 126.865 139.155C126.688 140.13 126.451 141.091 126.22 142.034C126.104 142.506 125.989 142.974 125.883 143.437C125.457 145.237 125.151 147.001 124.913 148.799C124.903 148.854 124.898 148.911 124.894 148.957L124.894 148.958L124.894 148.961C124.889 149.012 124.886 149.055 124.879 149.098L124.879 149.098L124.878 149.103C124.555 151.536 124.351 153.985 124.147 156.446C124.139 156.516 124.13 156.589 124.12 156.662C124.092 156.88 124.062 157.11 124.062 157.344C123.944 162.417 124.471 167.099 125.074 169.962C124.115 170.718 122.525 171.281 120.311 171.655C118.027 172.042 115.109 172.222 111.602 172.222C108.105 172.222 105.002 171.628 102.773 171.033C101.658 170.736 100.763 170.439 100.148 170.216C99.8401 170.105 99.6022 170.013 99.4417 169.948ZM108.678 131.034L108.678 131.034C108.678 131.037 108.678 131.038 108.678 131.034Z" fill="#F5A784" stroke="black" stroke-width="0.432703"/>
<path d="M125.59 93.9996C126.295 94.9653 128.264 97.7118 130.189 100.397C131.871 102.744 133.519 105.044 134.261 106.067L134.323 106.152L134.294 106.254L134.086 106.194C134.294 106.254 134.294 106.254 134.294 106.254L134.294 106.254L134.294 106.255L134.293 106.259L134.288 106.275L134.27 106.334C134.254 106.387 134.231 106.465 134.199 106.566C134.136 106.768 134.04 107.064 133.91 107.442C133.652 108.197 133.258 109.277 132.719 110.581C131.64 113.189 129.975 116.693 127.633 120.277C127.428 120.601 127.184 120.881 126.948 121.141C126.909 121.183 126.871 121.225 126.834 121.266C126.636 121.483 126.449 121.687 126.284 121.908L126.282 121.911L126.282 121.91C124.021 124.836 122.206 126.907 120.79 128.452C120.271 129.018 119.808 129.511 119.398 129.948C118.683 130.709 118.127 131.302 117.71 131.817C116.947 132.762 116.677 133.413 116.739 134.268C117.177 139.987 119.302 143.582 121.306 145.747C122.31 146.83 123.285 147.557 124.008 148.013C124.369 148.24 124.667 148.4 124.873 148.502C124.928 148.53 124.977 148.553 125.018 148.572C125.058 148.502 125.11 148.41 125.174 148.298C125.338 148.008 125.578 147.582 125.881 147.037C126.489 145.946 127.352 144.381 128.373 142.478C130.414 138.674 133.088 133.526 135.615 128.15C138.143 122.773 140.521 117.175 141.977 112.468C142.704 110.114 143.198 107.991 143.367 106.235C143.536 104.47 143.372 103.116 142.83 102.265C140.964 99.373 138.287 96.8573 135.573 94.4835L135.571 94.4818C135.065 94.0286 134.557 93.5811 134.054 93.1374C133.196 92.3805 132.35 91.6348 131.547 90.8911L131.546 90.8903C129.101 88.6029 126.671 86.2774 124.359 83.8274L124.358 83.8263C124.025 83.4688 123.655 83.089 123.269 82.6918C122.577 81.9812 121.832 81.2151 121.145 80.4213C120.072 79.1804 119.107 77.8349 118.66 76.4473C118.464 75.8745 118.429 75.2696 118.396 74.6991L118.395 74.6899C118.21 72.8106 117.773 70.9489 117.102 69.1919L117.1 69.1871L117.1 69.1871C116.983 68.8568 116.832 68.5478 116.589 68.3788C116.493 68.3152 116.353 68.2849 116.224 68.304C116.098 68.3227 116.014 68.3817 115.975 68.4623C115.945 68.5379 115.942 68.6325 115.942 68.7804V68.7815H115.942C115.938 69.6205 115.877 70.5607 115.811 71.5398C115.807 71.5952 115.803 71.6507 115.8 71.7062C115.737 72.6367 115.671 73.6012 115.645 74.5579C115.59 76.5924 115.716 78.5538 116.398 80.0353L116.398 80.0355C116.803 80.9181 117.405 81.7683 118.051 82.6155C118.208 82.821 118.367 83.0267 118.527 83.2325C119.02 83.8684 119.514 84.5057 119.929 85.1437C120.694 86.3095 121.413 87.4868 122.127 88.6555C122.325 88.9803 122.523 89.3045 122.721 89.6275C123.635 91.115 124.56 92.582 125.59 93.9996ZM125.59 93.9996C125.59 93.9997 125.59 93.9999 125.59 94L125.415 94.1272L125.59 93.9996ZM131.694 90.7323C129.25 88.4457 126.824 86.1239 124.516 83.6789C124.176 83.3142 123.804 82.9313 123.416 82.5327C121.652 80.7204 119.575 78.5853 118.865 76.3792C118.679 75.8339 118.645 75.2535 118.611 74.673C118.424 72.7733 117.983 70.8912 117.304 69.1146C117.185 68.7804 117.016 68.411 116.71 68.2L131.694 90.7323ZM118.36 83.3707C118.852 84.0049 119.338 84.6322 119.748 85.262L115.726 68.7804C115.722 69.6588 115.654 70.6512 115.584 71.6927C115.387 74.5933 115.165 77.8738 116.201 80.1258C116.719 81.2547 117.547 82.3221 118.36 83.3707Z" fill="#F5A784" stroke="#403E3E" stroke-width="0.432703"/>
<path d="M91.9528 106.194C91.745 106.255 91.7451 106.255 91.7451 106.255L91.7452 106.255L91.7455 106.256L91.7467 106.26L91.7512 106.276L91.7692 106.336C91.7851 106.388 91.8089 106.466 91.8409 106.567C91.9048 106.77 92.0011 107.067 92.1311 107.445C92.3911 108.202 92.7861 109.284 93.3268 110.589C94.4079 113.199 96.0725 116.703 98.4065 120.279L98.4072 120.28C98.6204 120.602 98.863 120.881 99.0998 121.142C99.1441 121.19 99.188 121.238 99.2314 121.286C99.4234 121.496 99.6067 121.696 99.7744 121.912C102.851 125.902 105.112 128.318 106.665 129.979C107.295 130.652 107.809 131.201 108.213 131.681L108.214 131.681C109.084 132.705 109.41 133.368 109.317 134.263L109.316 134.274V134.285C109.316 134.395 109.315 134.462 109.303 134.526L109.301 134.535L109.3 134.544C108.719 140.149 106.776 143.853 104.986 146.153C104.09 147.304 103.232 148.105 102.6 148.616C102.284 148.872 102.024 149.056 101.845 149.175C101.811 149.198 101.78 149.218 101.752 149.236C101.693 149.133 101.61 148.989 101.505 148.807C101.274 148.403 100.936 147.812 100.513 147.061C99.6675 145.561 98.4804 143.425 97.1153 140.884C93.8414 134.792 89.5526 126.383 86.4942 118.855C84.9646 115.089 83.746 111.552 83.1146 108.639C82.7989 107.182 82.6316 105.889 82.6432 104.805C82.6548 103.718 82.8461 102.863 83.2266 102.265C85.2312 99.1234 88.2641 96.4369 91.1972 93.8389C91.3384 93.7138 91.4794 93.5889 91.62 93.4642C92.6212 92.6023 93.591 91.7557 94.5107 90.8907L94.5114 90.89C94.6416 90.7664 94.7718 90.6428 94.9021 90.5191C97.199 88.3388 99.5083 86.1467 101.681 83.8277M101.681 83.8277C101.681 83.8278 101.681 83.8278 101.681 83.8278L101.523 83.6797L101.681 83.8276C101.681 83.8277 101.681 83.8277 101.681 83.8277Z" fill="#F5A784" stroke="#403E3E" stroke-width="0.432703"/>
<path d="M125.33 170.045C123.345 171.716 118.644 172.437 111.619 172.437C104.577 172.437 99.1304 170.045 99.1304 170.045C100.064 163.712 99.6564 156.202 98.4007 152.314C98.1801 151.663 97.9426 151.101 97.705 150.678C97.2638 149.957 96.7377 149.289 96.3984 148.515C95.4311 146.351 96.025 143.818 96.7717 141.567C96.8395 141.373 96.8905 141.162 96.9584 140.969C90.4084 128.779 79.786 107.302 83.0779 102.131C85.199 98.7888 88.457 95.9744 91.5114 93.2832C92.5465 94.321 96.6699 98.5425 97.1281 99.0175C95.4142 101.392 93.7173 103.802 91.9865 106.176C91.9695 106.212 93.9549 113.036 98.6043 120.16C99.0116 120.776 99.5376 121.233 99.9618 121.779C104.306 127.372 106.97 129.852 108.361 131.488C108.735 132.438 109.142 133.493 109.532 134.549C110.211 136.483 110.822 138.471 110.992 139.667L117.355 131.207L117.338 131.594C117.338 131.629 117.406 131.664 117.558 131.682C118.899 130.046 121.614 127.601 126.128 121.779C126.552 121.233 127.078 120.776 127.468 120.16C132.135 113.036 134.103 106.194 134.103 106.194C132.525 103.995 130.947 101.797 129.369 99.5803L135.715 94.3034C138.43 96.6956 141.145 99.2109 143.012 102.131C147.678 109.448 125.11 148.831 125.11 148.831C125.093 148.919 125.093 149.025 125.076 149.13C124.753 151.558 124.55 154.003 124.346 156.465C124.329 156.764 124.278 157.046 124.278 157.327C124.176 162.481 124.719 167.213 125.33 170.045Z" fill="#03C0FF"/>
<path d="M120.397 113.953L120.366 114.382L120.729 114.151C121.132 113.895 121.537 113.74 121.888 113.781C122.213 113.82 122.554 114.038 122.822 114.684C123.247 115.735 122.842 117.043 122.073 118.153C121.692 118.702 121.232 119.187 120.766 119.549C120.297 119.913 119.839 120.138 119.462 120.192L119.334 120.211L119.29 120.333C117.284 125.848 112.454 126.556 110.001 126.435C107.434 126.303 103.541 123.062 104.216 114.39L104.216 114.39C104.326 112.95 104.474 111.629 104.713 110.514C104.952 109.394 105.279 108.504 105.734 107.909L105.734 107.908C107.794 105.198 110.94 104.216 113.786 104.462C116.644 104.708 119.135 106.183 119.935 108.311C120.445 109.673 120.566 111.623 120.397 113.953Z" fill="#F5A784" stroke="black" stroke-width="0.432703"/>
<path d="M111.501 118.208C111.128 118.138 110.279 118.313 110.126 117.891C109.991 117.539 110.686 115.534 110.788 115.2C110.89 114.831 111.009 114.479 111.111 114.162C111.077 114.145 111.043 114.11 111.009 114.092C110.924 114.039 110.856 114.004 110.771 113.986C110.364 115.358 110.041 116.801 109.668 118.12C109.634 118.243 109.719 118.366 109.838 118.366C110.381 118.384 110.907 118.524 111.433 118.56C111.62 118.542 111.687 118.243 111.501 118.208Z" fill="#262626"/>
<path d="M108.836 111.102C108.327 110.803 107.36 110.68 106.953 111.225C106.885 111.33 106.97 111.489 107.071 111.489C107.326 111.489 107.564 111.366 107.835 111.366C108.123 111.348 108.378 111.436 108.649 111.541C108.887 111.612 109.057 111.242 108.836 111.102Z" fill="#3B2645"/>
<path d="M115.997 112.297C115.743 111.523 114.453 111.383 113.876 111.822C113.741 111.928 113.808 112.139 113.944 112.192C114.266 112.315 114.606 112.209 114.945 112.244C115.234 112.28 115.471 112.438 115.726 112.543C115.862 112.614 116.048 112.455 115.997 112.297Z" fill="#3B2645"/>
<path d="M112.281 120.319C111.755 120.547 111.365 120.847 110.754 120.829C110.279 120.829 109.787 120.565 109.346 120.706C109.278 120.723 109.227 120.811 109.261 120.882C109.583 121.427 110.466 121.515 111.009 121.497C111.602 121.48 112.315 121.286 112.655 120.723C112.807 120.477 112.536 120.213 112.281 120.319Z" fill="#262626"/>
<path d="M109.006 114.127C108.412 114.338 107.852 114.532 107.224 114.303C106.834 114.162 106.562 113.828 106.189 113.67C106.138 114.215 106.698 114.549 107.122 114.708C107.784 114.954 108.564 114.866 109.192 114.514C109.379 114.409 109.243 114.039 109.006 114.127Z" fill="#3B2645"/>
<path d="M116.438 114.76C115.607 115.024 114.215 115.604 113.774 114.373C113.706 114.18 113.469 114.215 113.435 114.426C113.35 115.112 114.165 115.481 114.708 115.569C115.369 115.675 116.184 115.552 116.608 114.989C116.676 114.866 116.54 114.725 116.438 114.76Z" fill="#3B2645"/>
<path d="M120.766 103.802C119.832 103.028 118.814 102.342 117.694 101.937C115.828 101.304 113.825 101.55 111.874 101.779C109.821 102.025 107.683 102.289 105.901 103.362C104.289 104.347 102.032 107.355 103.525 109.36C104.968 111.313 108.616 107.636 109.668 106.528C110.16 107.918 111.755 108.516 113.181 108.621C114.606 108.727 116.099 108.533 117.423 109.079C118.305 109.448 118.95 110.204 119.578 110.926C119.815 111.207 120.07 111.506 120.24 111.84C120.545 112.456 120.613 113.16 120.664 113.846C120.918 113.441 121.427 113.353 121.886 113.318C122.344 113.283 122.836 113.265 123.192 112.948C123.447 112.72 123.548 112.386 123.65 112.051C123.973 110.908 123.684 109.501 123.633 108.322C123.532 106.229 122.327 105.086 120.766 103.802Z" fill="#403E3E"/>
<path d="M109.668 195.163L73.5586 183.906C65.3966 180.352 59.746 176.324 60.7472 172.683C61.5786 169.623 68.2473 168.567 76.6808 168.567C84.6901 171.522 95.8725 179.579 109.668 195.163Z" fill="#25D366"/>
<path d="M146.032 185.172C138.481 184.591 131.625 182.78 131.625 182.78C131.625 182.78 139.991 176.623 138.973 168.761C150.461 168.18 160.829 168.813 161.898 172.701C163.001 176.746 155.789 181.32 146.032 185.172Z" fill="#25D366"/>
<path d="M148.05 192.316L148.05 192.316C148.624 192.006 149.376 191.65 150.241 191.24C152.346 190.242 155.124 188.925 157.641 187.177C161.187 184.714 164.11 181.461 163.837 177.165M148.05 192.316L96.2402 201.012C96.132 200.091 96.7067 199.289 97.8068 198.581C98.9019 197.875 100.459 197.303 102.168 196.838C104.887 196.097 107.936 195.639 110.015 195.326C110.548 195.246 111.017 195.175 111.4 195.112L111.401 195.112C111.801 195.044 112.361 194.815 113.039 194.469C113.724 194.12 114.548 193.642 115.484 193.06C118.849 190.967 123.69 187.514 128.735 183.916C129.298 183.514 129.863 183.111 130.43 182.707C136.076 178.684 141.799 174.649 145.87 172.254C151.665 168.859 156.229 169.371 159.041 170.406L159.041 170.406C161.587 171.342 163.622 173.939 163.837 177.165M148.05 192.316C145.037 193.956 140.545 195.464 134.848 196.905M148.05 192.316L159.115 170.203C161.745 171.17 163.833 173.844 164.053 177.151M163.837 177.165C163.837 177.165 163.837 177.165 163.837 177.164L164.053 177.151M163.837 177.165C163.837 177.165 163.837 177.165 163.837 177.165L164.053 177.151M164.053 177.151C164.532 184.705 155.385 189.041 150.31 191.447C149.453 191.853 148.712 192.204 148.153 192.507C145.116 194.16 140.602 195.673 134.901 197.115M134.901 197.115L134.848 196.905C134.848 196.905 134.848 196.905 134.848 196.905M134.901 197.115C128.741 198.663 121.241 200.105 112.757 201.512M134.901 197.115L112.757 201.512M134.848 196.905C128.696 198.451 121.203 199.892 112.721 201.299M134.848 196.905L112.721 201.299M112.721 201.299C110.883 201.602 109.142 201.939 107.531 202.251C107.082 202.338 106.644 202.423 106.217 202.505C104.249 202.88 102.511 203.188 101.051 203.309C99.5864 203.43 98.4367 203.36 97.6282 203.008C97.2287 202.835 96.9156 202.593 96.6863 202.273C96.4565 201.952 96.3026 201.54 96.2402 201.012L112.721 201.299ZM112.757 201.512C110.921 201.815 109.184 202.151 107.573 202.463C100.946 203.747 96.4485 204.617 96.0253 201.038C95.5832 197.276 105.304 195.815 109.99 195.111L112.757 201.512Z" fill="#F5A784" stroke="black" stroke-width="0.432703"/>
<path d="M111.401 195.112L111.4 195.112C111.017 195.175 110.548 195.246 110.015 195.326C107.936 195.639 104.887 196.097 102.168 196.838C100.459 197.303 98.9019 197.875 97.8068 198.581C96.7067 199.289 96.132 200.091 96.2402 201.012L111.401 195.112ZM111.401 195.112C111.801 195.045 112.361 194.815 113.039 194.469C113.701 194.132 114.494 193.673 115.391 193.117C119.34 194.691 126.463 197.086 133.172 197.321M111.401 195.112L133.172 197.321M133.172 197.321C127.365 198.723 120.447 200.018 112.721 201.299C110.883 201.602 109.142 201.939 107.53 202.251C107.082 202.338 106.644 202.423 106.217 202.505C104.249 202.88 102.511 203.188 101.051 203.309C99.5864 203.43 98.4367 203.36 97.6282 203.009C97.2287 202.835 96.9156 202.594 96.6863 202.273C96.4565 201.952 96.3026 201.54 96.2402 201.012L133.172 197.321Z" fill="#F6F6F6" stroke="black" stroke-width="0.432703"/>
<path d="M63.3668 170.424L63.3668 170.424C66.1784 169.389 70.7426 168.86 76.5367 172.272L76.5369 172.272C81.0198 174.905 87.5109 179.533 93.694 183.942C94.5177 184.529 95.336 185.113 96.1434 185.687C99.5739 188.127 102.806 190.402 105.414 192.104C106.717 192.955 107.868 193.666 108.811 194.182C109.745 194.694 110.502 195.031 111.008 195.113C111.368 195.171 111.804 195.235 112.298 195.308C114.373 195.616 117.469 196.074 120.225 196.825C121.932 197.291 123.489 197.864 124.584 198.571C125.683 199.282 126.258 200.086 126.15 201.013C126.088 201.54 125.934 201.953 125.704 202.274C125.475 202.594 125.162 202.835 124.762 203.009C123.954 203.361 122.804 203.431 121.339 203.309C119.88 203.188 118.142 202.881 116.173 202.505C115.746 202.423 115.308 202.339 114.86 202.252C113.248 201.94 111.507 201.603 109.669 201.299L109.669 201.299C101.493 199.954 94.2319 198.566 88.2265 197.084C82.2173 195.6 77.4798 194.027 74.3404 192.317L74.3399 192.317C73.7658 192.006 73.0135 191.65 72.1479 191.239C70.0426 190.242 67.2667 188.926 64.7517 187.18C61.2079 184.719 58.2894 181.47 58.57 177.183C58.7853 173.957 60.8206 171.36 63.3668 170.424Z" fill="#F5A784" stroke="black" stroke-width="0.432703"/>
<path d="M119.204 148.902C117.609 151.435 113.231 150.028 111.093 149.5C110.89 149.447 110.737 149.676 110.822 149.852C111.67 151.505 114.08 151.453 115.641 151.365C117.355 151.277 119.136 151.083 120.155 149.483C120.562 148.867 119.595 148.286 119.204 148.902Z" fill="#262626"/>
<path d="M134.087 106.194C132.509 103.995 130.931 101.797 129.353 99.5804L131.694 97.6279C132.933 99.4221 134.63 102.659 134.087 106.194Z" fill="#403E3E"/>
<path d="M97.1113 99.0178C95.3974 101.392 93.7005 103.802 91.9697 106.177C92.1224 105.79 94.1757 100.443 95.3296 97.1885C96.0083 97.9097 96.6531 98.5429 97.1113 99.0178Z" fill="#403E3E"/>
<path d="M93.5816 71.4375C91.6302 71.3671 89.6448 71.8596 87.7104 72.1762C85.5214 72.528 83.2476 72.739 81.1435 73.4778C80.7362 73.6185 80.8041 74.2518 81.2453 74.2694C83.1967 74.3397 85.1821 73.9176 87.0995 73.6537C89.2885 73.3371 91.6132 73.214 93.7004 72.4752C94.2434 72.2642 94.1585 71.455 93.5816 71.4375Z" fill="#747474"/>
<path d="M98.5196 59.3882C95.8216 58.0866 93.6156 56.697 91.2061 54.8501C89.2377 53.3374 87.1845 51.8247 84.6901 51.5784C84.2659 51.5432 84.0792 52.2468 84.4695 52.4227C87.1675 53.6716 89.3395 55.2547 91.6812 57.1192C93.5987 58.6495 95.7198 60.3733 98.1972 60.6019C98.8081 60.6371 99.0626 59.6521 98.5196 59.3882Z" fill="#747474"/>
<path d="M112.23 42.9067C111.976 39.5119 111.976 36.0995 111.654 32.7223C111.586 32.1066 110.771 32.089 110.72 32.7223C110.398 36.2578 110.635 39.9164 110.873 43.4695C111.094 46.6884 111.246 50.0657 112.027 53.1966C112.197 53.865 113.232 53.7419 113.215 53.0383C113.113 49.6611 112.485 46.2839 112.23 42.9067Z" fill="#747474"/>
<path d="M131.711 46.8993C128.334 49.5553 124.923 52.6511 122.005 55.8524C121.563 56.3273 122.157 57.242 122.717 56.8198C126.162 54.2693 129.59 51.1911 132.593 48.0953C133.17 47.4973 132.39 46.354 131.711 46.8993Z" fill="#747474"/>
<path d="M149.137 71.2438C146.422 70.3292 143.164 70.5226 140.331 70.3995C137.497 70.2764 134.324 69.8895 131.575 70.7162C131.303 70.8041 131.303 71.2087 131.575 71.2966C134.324 72.1409 137.48 71.8595 140.331 72.0178C143.215 72.1585 146.287 72.7917 149.137 72.3872C149.731 72.2992 149.613 71.4021 149.137 71.2438Z" fill="#747474"/>
<defs>
<linearGradient id="paint0_linear_343_2340" x1="39.1377" y1="38.3497" x2="222.463" y2="219.203" gradientUnits="userSpaceOnUse">
<stop stop-color="#25D366"/>
<stop offset="1" stop-color="#03C0FF"/>
</linearGradient>
</defs>
</svg>
