<svg width="231" height="232" viewBox="0 0 231 232" fill="none" xmlns="http://www.w3.org/2000/svg">
<circle cx="115.43" cy="116" r="115.421" fill="white"/>
<path opacity="0.2" d="M63.1417 193.596C58.9452 193.368 54.6118 191.756 52.0726 188.396C48.5299 183.743 49.1685 177.053 46.3708 171.914C44.2421 167.991 40.3193 165.345 37.8561 161.62C33.7204 155.325 34.4503 146.78 37.7801 140.029C41.11 133.278 46.6597 127.911 52.103 122.696C57.5464 117.48 63.1113 112.144 66.5019 105.423C70.3487 97.775 71.0634 88.9867 72.7511 80.5936C76.1266 63.8684 84.9149 46.7478 100.621 40.0881C108.072 36.9255 116.374 36.4389 124.478 36.515C137.736 36.6518 151.36 38.3243 163.022 44.6495C174.684 50.9747 184.081 62.6976 184.658 75.9562C185.251 89.6709 176.645 102.99 179.261 116.462C180.34 122.057 183.275 127.09 185.662 132.26C188.627 138.691 190.816 145.609 190.786 152.695C190.755 159.78 188.292 167.048 183.123 171.868C175.551 178.938 164.01 179.486 153.717 178.3C143.423 177.114 132.932 174.59 122.851 176.977C114.838 178.862 107.874 183.682 100.606 187.559C94.6156 190.752 88.0319 193.276 81.1441 193.003C75.0774 192.729 69.1476 193.93 63.1417 193.596Z" fill="url(#paint0_linear_434_1518)"/>
<path d="M93.1104 98.1087C93.5514 98.0783 93.9923 98.0175 94.4333 97.9414C95.8929 97.6982 97.4134 97.3485 98.8427 97.7438C100.348 98.1695 100.987 98.4584 102.461 98.1543C103.83 97.8806 104.909 98.4432 106.308 98.3672C107.677 98.3064 108.847 97.3485 110.185 97.014C112.907 96.3297 115.34 98.1695 117.955 98.428C119.536 98.58 120.084 98.0175 121.315 97.4093C122.76 96.6947 124.478 97.0292 125.953 96.3906C126.394 96.1929 126.789 95.9192 127.169 95.6303C127.443 95.4175 127.732 95.1894 127.884 94.8853C128.234 94.1707 127.808 93.2888 127.23 92.7262C126.652 92.1636 125.938 91.7379 125.512 91.0537C124.508 89.442 124.584 86.4618 124.083 84.5764C123.383 81.9004 123.474 78.601 121.574 76.4115C118.989 73.4465 113.546 72.96 109.927 73.7506C106.582 74.4957 103.206 76.0618 101.564 79.2548C100.682 80.9729 100.926 82.7519 100.409 84.5764C99.2532 88.7121 96.3035 92.1484 92.6239 94.2619C91.4683 94.9309 90.0999 95.6303 89.811 96.9379C89.7806 97.0444 89.7654 97.166 89.811 97.2724C89.8566 97.4093 89.9783 97.4853 90.0999 97.5613C90.997 98.0935 92.0613 98.1847 93.1104 98.1087Z" fill="#403E3E"/>
<path d="M128.249 115.079C127.96 115.748 127.504 116.341 127.123 116.979C126.911 117.359 126.713 117.831 126.53 118.408C126.272 119.26 126.029 120.324 125.831 121.525C125.208 125.114 124.903 129.964 125.649 134.024C124.098 134.632 120.099 135.985 115.218 136.137C108.923 136.335 103.966 135.635 102.142 134.267C102.613 131.834 103.678 127.957 103.465 123.548V123.441C103.45 123.183 103.419 122.939 103.389 122.696C103.161 120.567 102.857 118.484 102.552 116.386C102.537 116.31 102.537 116.219 102.507 116.128C102.431 115.656 102.34 115.2 102.248 114.729C102.051 113.649 101.807 112.6 101.503 111.521C100.865 109.164 99.9068 106.549 100.241 104.055C100.409 102.808 101.336 102.215 102.461 101.896C103.206 101.698 103.967 101.607 104.651 101.516C104.909 101.485 105.168 101.47 105.411 101.44C105.578 101.425 105.73 101.394 105.897 101.394C105.943 101.379 105.989 101.379 106.034 101.379C106.354 101.333 106.658 101.318 106.916 101.303C106.962 101.288 106.992 101.288 107.023 101.288C107.92 101.197 108.543 101.166 108.832 101.105C108.969 101.09 109.03 101.06 109.03 101.029L108.345 91.4959C108.345 91.4959 109.455 91.3135 110.809 91.2983C112.816 91.2831 115.324 91.6784 115.583 93.6702L116.982 100.269C116.982 100.299 117.058 100.664 117.058 100.664C117.073 100.695 117.149 100.695 117.271 100.71C117.529 100.725 118.061 100.74 118.715 100.786C118.989 100.801 119.278 100.832 119.597 100.862C120.205 100.908 120.874 100.953 121.543 101.029C121.802 101.06 122.045 101.105 122.273 101.136C122.714 101.181 123.155 101.242 123.596 101.303C124.873 101.501 126.029 101.866 126.363 103.158C126.682 104.359 126.834 105.515 127.063 106.686C127.184 107.309 127.321 107.948 127.534 108.586C127.595 108.753 127.64 108.936 127.716 109.103C128.461 111.019 129.054 113.193 128.249 115.079Z" fill="#F5A784"/>
<path d="M159.221 79.9243C159.221 79.9547 159.221 80.0003 159.221 80.0307C159.251 79.9851 159.236 79.9547 159.221 79.9243ZM158.263 106.517C159.464 103.735 159.966 100.512 160.376 97.349C160.589 95.7373 160.771 94.1408 161.015 92.6355C161.486 89.7162 161.973 86.8121 162.611 83.9231C163.143 81.5512 163.615 78.1605 165.135 76.2447C165.439 75.8494 165.85 75.5605 166.245 75.2564C167.538 74.2225 168.678 73.0061 169.636 71.6529C169.818 71.3944 170.001 71.1055 170.016 70.7862C170.016 70.4669 169.757 70.1324 169.438 70.178C169.317 70.1932 169.21 70.2692 169.119 70.3301C166.701 71.8962 162.657 73.5383 161.121 76.0319C160.209 77.5067 159.814 79.5138 159.129 81.1255C157.928 83.984 156.529 86.66 155.48 89.5641C154.811 91.4191 151.801 99.5385 150.98 101.758C150.98 101.758 145.065 103.507 137.63 103.355C136.991 103.34 136.398 103.172 135.805 103.112C129.374 102.473 126.272 101.576 124.432 101.348C123.352 101.211 122.699 101.317 122.045 101.804C114.123 107.901 115.689 115.123 115.689 115.123C115.689 115.123 155.237 113.466 158.263 106.517Z" fill="#F5A784"/>
<path d="M108.361 91.4807L108.68 95.9053C111.888 98.1556 114.914 98.0644 116.465 97.8059L115.598 93.6702C115.34 91.6784 112.816 91.2831 110.824 91.2983C109.456 91.2983 108.361 91.4807 108.361 91.4807Z" fill="#E0855C"/>
<path d="M103.511 86.4932C103.982 85.2768 104.894 85.4441 105.654 85.885C105.442 83.8628 105.502 82.1599 105.928 80.9131C107.312 77.0054 115.051 75.4241 118.974 80.1224C119.871 81.1867 120.266 83.3002 120.555 85.7786C121.391 93.2898 117.97 96.3459 115.507 96.5436C113.272 96.726 108.817 96.2395 106.84 91.4044C105.274 91.2523 102.72 88.5003 103.511 86.4932Z" fill="#F5A784"/>
<path d="M113.926 89.2903C114.245 89.2143 115.02 89.3511 115.157 88.9862C115.264 88.6821 114.595 86.964 114.503 86.6751C114.397 86.3558 114.291 86.0669 114.184 85.778C114.215 85.7628 114.245 85.7324 114.275 85.7172C114.336 85.6716 114.412 85.6412 114.473 85.626C114.868 86.8119 115.188 88.0435 115.568 89.1687C115.598 89.2599 115.537 89.3816 115.431 89.3816C114.944 89.412 114.488 89.5488 114.002 89.5944C113.819 89.5944 113.758 89.3207 113.926 89.2903Z" fill="#E0855C"/>
<path d="M116.115 83.0869C116.556 82.8132 117.423 82.6764 117.803 83.1325C117.879 83.2237 117.803 83.3606 117.696 83.3606C117.468 83.3606 117.255 83.2693 117.012 83.2693C116.754 83.2693 116.526 83.3454 116.297 83.4366C116.085 83.5278 115.917 83.2085 116.115 83.0869Z" fill="#3B2645"/>
<path d="M109.745 84.3035C109.957 83.6193 111.113 83.4673 111.63 83.8322C111.752 83.9234 111.691 84.1059 111.569 84.1515C111.295 84.2579 110.976 84.1819 110.672 84.2275C110.414 84.2731 110.216 84.41 109.973 84.5012C109.866 84.5772 109.699 84.4404 109.745 84.3035Z" fill="#3B2645"/>
<path d="M113.272 91.1458C113.743 91.3282 114.108 91.5715 114.656 91.5563C115.081 91.5411 115.507 91.313 115.918 91.4195C115.978 91.4347 116.039 91.5107 115.994 91.5715C115.72 92.0429 114.929 92.1493 114.443 92.1493C113.911 92.1493 113.272 91.9972 112.953 91.5259C112.801 91.2978 113.044 91.0393 113.272 91.1458Z" fill="#E0855C"/>
<path d="M116.04 85.6872C116.572 85.8544 117.089 86.0065 117.651 85.7936C118.001 85.6568 118.229 85.3679 118.564 85.2158C118.624 85.6872 118.138 85.9913 117.758 86.1433C117.165 86.3866 116.465 86.3106 115.903 86.0369C115.705 85.9608 115.827 85.6263 116.04 85.6872Z" fill="#3B2645"/>
<path d="M109.41 86.4476C110.155 86.6452 111.417 87.1166 111.797 86.037C111.858 85.8698 112.071 85.9002 112.101 86.0675C112.193 86.6604 111.478 86.9949 110.991 87.0862C110.398 87.1926 109.669 87.1166 109.273 86.63C109.197 86.5388 109.304 86.4172 109.41 86.4476Z" fill="#3B2645"/>
<path d="M105.244 77.0967C106.065 76.4125 106.946 75.7739 107.95 75.409C109.592 74.8008 111.417 74.968 113.165 75.1201C115.02 75.2721 116.921 75.4394 118.548 76.3364C120.023 77.1423 122.106 79.6815 120.828 81.4605C119.582 83.1786 116.237 80.1072 115.264 79.1797C114.868 80.3961 113.454 80.9587 112.177 81.0803C110.9 81.2172 109.562 81.0803 108.391 81.5821C107.6 81.9166 107.053 82.5856 106.521 83.2394C106.308 83.4979 106.095 83.7564 105.943 84.0605C105.684 84.5926 105.639 85.216 105.608 85.809C105.38 85.4745 104.909 85.3985 104.499 85.3833C104.088 85.3681 103.647 85.3681 103.328 85.1096C103.1 84.9272 102.993 84.6231 102.902 84.3494C102.583 83.3763 102.811 82.1447 102.826 81.126C102.841 79.271 103.875 78.2522 105.244 77.0967Z" fill="#403E3E"/>
<path d="M66.0612 155.189C66.0612 155.189 65.4226 157.941 63.7349 160.1C62.5489 161.62 60.481 165.33 60.5266 166.745C60.5266 166.745 60.6026 167.003 60.8003 167.368C60.8307 167.414 60.8612 167.474 60.8916 167.52C61.0892 167.824 61.3781 168.189 61.8038 168.493C61.8342 168.508 61.8646 168.539 61.9103 168.569C62.2144 168.782 62.5945 168.98 63.0354 169.086C63.0658 169.101 63.1115 169.101 63.1571 169.116C63.5068 169.208 63.8869 169.253 64.3278 169.253C64.3278 169.253 66.2284 165.391 67.2928 164.403C67.2928 164.403 66.7606 167.003 67.384 167.55L67.9466 167.642C67.9466 167.642 68.8437 164.905 69.3454 163.734C70.5922 160.86 69.6191 157.85 69.6191 157.85C69.6191 157.85 67.9466 153.942 66.0612 155.189Z" fill="#F5A784"/>
<path d="M63.0356 169.086C63.0661 169.101 63.1117 169.101 63.1573 169.116C63.8719 167.322 64.8602 165.695 65.8181 163.992C65.8334 163.962 65.7877 163.916 65.7573 163.947C64.4345 165.421 63.6286 167.231 63.0356 169.086Z" fill="#E0855C"/>
<path d="M61.8037 168.493C61.8341 168.508 61.8645 168.539 61.9102 168.569C62.6248 166.775 63.6131 165.148 64.571 163.445C64.5862 163.415 64.5406 163.369 64.5254 163.4C63.2026 164.859 62.3967 166.653 61.8037 168.493Z" fill="#E0855C"/>
<path d="M60.8003 167.368C60.8307 167.413 60.8612 167.474 60.8916 167.52C61.591 165.832 62.5185 164.296 63.4307 162.685C63.4611 162.654 63.4003 162.609 63.3851 162.639C62.1231 163.977 61.3781 165.649 60.8003 167.368Z" fill="#E0855C"/>
<path d="M103.602 101.866C103.602 101.866 112.406 104.131 106.217 109.848C98.25 117.192 85.9341 129.143 82.0873 134.465C78.2405 139.786 68.9504 159.294 68.9504 159.294L65.1948 157.591C65.1948 157.591 72.3411 137.217 76.6592 130.116C80.9774 123.031 96.8968 100.193 103.602 101.866Z" fill="#F5A784"/>
<path d="M113.88 151.508C132.917 155.796 156.636 158.29 156.636 158.29C156.073 160.829 156.545 165.71 157.427 171.092C159.175 181.888 162.566 194.736 162.566 194.736C166.048 195.785 168.633 193.641 168.633 193.641C168.131 182.602 170.913 152.466 165.607 148.984C156.773 143.176 124.873 133.643 119.506 133.232C115.811 132.959 112.192 133.597 110.596 136.562C109.927 137.809 109.592 139.481 109.79 141.656C109.805 141.929 109.836 142.188 109.881 142.462C110.976 149.699 105.122 149.547 113.88 151.508Z" fill="#F5A784"/>
<path d="M121.239 135.529C121.3 135.818 114.61 168.158 96.2119 177.433C84.2153 183.485 70.9872 187.438 57.8046 189.886C57.2572 189.992 56.7099 190.084 56.1777 190.175C56.1169 191.65 56.2993 193.505 56.9835 194.812C57.5309 195.861 58.1543 196.926 59.3251 197.367C59.538 197.443 59.766 197.504 59.9333 197.656C60.4198 198.051 60.2221 198.887 59.7204 199.252C59.2186 199.617 58.5496 199.647 57.9262 199.663C55.828 199.708 53.4408 199.891 52.4373 197.792C51.8139 196.5 51.3273 195.116 50.8712 193.748C50.1566 191.589 48.0279 185.765 50.932 185.005C60.6935 182.436 85.3405 169.466 89.4762 167.109C93.2165 164.981 97.0025 142.751 103.115 135.939C109.227 129.128 120.175 130.739 121.239 135.529Z" fill="#F5A784"/>
<path d="M162.049 192.699C162.125 193.368 162.17 194.037 162.201 194.706C162.277 196.303 161.136 198.203 162.657 199.374C163.478 199.998 164.588 199.906 165.531 199.967C167.598 200.104 169.682 200.013 171.749 199.937C173.103 199.891 174.471 199.83 175.824 199.754C176.949 199.693 178.728 199.906 179.686 199.268C179.808 199.192 179.93 199.085 179.96 198.933C179.99 198.796 179.945 198.675 179.884 198.553C179.641 198.097 179.154 197.884 178.698 197.702C176.615 196.926 174.395 196.668 172.342 195.847C170.761 195.223 169.21 194.174 168.313 192.608C167.675 191.483 167.614 190.236 166.367 189.643C164.375 188.716 161.775 190.206 162.049 192.699Z" fill="#F5A784"/>
<path d="M168.678 183.759C165.196 186.131 160.011 184.154 160.011 184.154C155.556 175.35 155.206 159.355 155.206 159.355C155.206 159.355 129.693 157.333 119.582 157.333C117.392 157.333 115.735 157.804 114.366 158.64C109.41 161.681 108.208 169.451 99.4808 176.719C88.3357 185.994 67.6116 187.301 67.6116 187.301C64.601 184.914 64.7683 179.364 64.7683 179.364C64.7683 179.364 67.9157 175.259 73.7999 171.701C74.8795 171.032 76.0502 170.409 77.3122 169.816C85.2035 166.121 88.9895 162.989 89.2328 162.806C93.1404 148.651 102.279 133.689 102.279 133.689C114.625 136.776 125.451 132.443 125.451 132.443C124.66 132.214 162.581 144.834 167.157 148.636C171.643 152.422 172.16 181.372 168.678 183.759Z" fill="#25D366"/>
<path d="M155.206 159.37C155.206 159.37 129.693 157.348 119.581 157.348C117.392 157.348 115.735 157.819 114.366 158.655C114.412 158.366 115.507 152.315 125.572 152.634C135.896 152.954 155.206 159.37 155.206 159.37Z" fill="#12853D"/>
<path d="M82.832 171.199C79.5478 171.913 76.2331 171.913 73.7852 171.731C74.8647 171.062 76.0355 170.438 77.2975 169.845C85.1887 166.151 88.9747 163.018 89.218 162.836C89.218 162.821 89.3853 169.769 82.832 171.199Z" fill="#12853D"/>
<path d="M128.248 115.078C127.959 115.747 127.503 116.34 127.123 116.979C127.047 117.116 126.956 117.268 126.895 117.45C126.758 117.739 126.637 118.043 126.53 118.408C126.484 118.575 126.424 118.758 126.378 118.94C126.18 119.685 125.998 120.567 125.831 121.525L103.464 123.547V123.441C103.449 123.183 103.419 122.939 103.388 122.696C103.343 122.255 103.13 120.415 103.069 119.929C102.917 118.743 102.735 117.557 102.552 116.371C102.537 116.295 102.537 116.204 102.507 116.112C102.431 115.641 102.339 115.185 102.248 114.713C103.267 111.977 105.015 106.472 104.681 101.5C104.939 101.47 105.198 101.455 105.441 101.424C105.608 101.409 105.76 101.379 105.928 101.379C105.973 101.364 106.019 101.364 106.064 101.364C106.384 101.318 106.688 101.303 106.946 101.288C107.539 104.024 109.47 110.319 114.686 109.103C119.581 107.963 119.81 103.234 119.597 100.847C120.205 100.892 120.874 100.953 121.543 101.014C121.558 101.698 122.531 102.823 122.911 103.31C123.474 104.07 124.113 104.77 124.721 105.484C126.925 108.099 129.83 111.399 128.248 115.078Z" fill="#03C0FF"/>
<path d="M126.895 117.45C126.758 117.739 126.637 118.043 126.53 118.408C126.485 118.575 126.424 118.758 126.378 118.94C122.668 118.955 118.943 119.138 115.233 119.503C112.131 119.822 109.03 120.248 105.943 120.795C105.046 120.962 104.134 121.16 103.237 121.358C103.191 120.886 103.13 120.4 103.069 119.929C104.24 119.685 105.396 119.488 106.521 119.29C109.106 118.819 111.69 118.439 114.29 118.15C118.472 117.693 122.683 117.45 126.895 117.45Z" fill="#8695C2"/>
<path d="M138.132 54.5477C138.116 54.198 137.6 54.1067 137.508 54.4564C136.535 58.06 136.474 62.0284 136.261 65.7384C136.018 69.8133 135.866 73.8729 135.927 77.9478C135.927 78.2063 136.307 78.2063 136.338 77.9478C136.657 74.0402 136.9 70.1326 137.235 66.2249C137.554 62.3933 138.269 58.3945 138.132 54.5477Z" fill="#747474"/>
<path d="M152.333 55.3387C148.38 58.1364 145.978 62.8955 144.533 67.4113C144.366 67.9283 145.126 68.1107 145.324 67.6242C147.179 63.1844 150.052 59.6721 152.744 55.7492C152.926 55.5212 152.576 55.1715 152.333 55.3387Z" fill="#747474"/>
<path d="M165.576 60.2187C162.033 62.0281 158.719 64.5217 155.48 66.8176C155.1 67.0913 155.419 67.6691 155.845 67.4562C159.403 65.6316 163.128 63.6246 166.154 60.979C166.58 60.5988 166.032 59.9907 165.576 60.2187Z" fill="#747474"/>
<defs>
<linearGradient id="paint0_linear_434_1518" x1="35.0132" y1="51.2404" x2="197.019" y2="240.464" gradientUnits="userSpaceOnUse">
<stop stop-color="#25D366"/>
<stop offset="1" stop-color="#03C0FF"/>
</linearGradient>
</defs>
</svg>
