<svg width="232" height="232" viewBox="0 0 232 232" fill="none" xmlns="http://www.w3.org/2000/svg">
<circle cx="116.356" cy="116" r="115.421" fill="white"/>
<path opacity="0.2" d="M39.3214 163.73C28.1048 163.952 14.7841 163.066 8.90238 153.257C4.18047 145.389 6.48341 135.324 6.13548 126.077C5.77099 116.728 2.52366 107.787 0.982823 98.5571C-0.558012 89.344 -0.0609683 78.9388 5.95326 71.9225C11.487 65.4512 20.4669 63.2543 26.5805 57.362C33.5391 50.6693 35.7096 40.4344 39.6528 31.5108C46.3629 16.2691 59.8162 3.66705 75.8707 0.908219C91.9252 -1.86764 109.902 6.81757 115.899 22.3658C120.522 34.3548 118.07 48.762 124.647 59.7462C128.922 66.8817 136.344 71.3265 141.795 77.5594C153.095 90.485 154.718 109.252 155.762 126.588C156.143 132.77 156.458 139.258 153.791 144.81C150.262 152.167 142.425 156.05 135.135 159.405C126.503 163.373 117.573 167.409 108.129 167.562C96.5974 167.749 85.8281 162.249 74.363 162.095C62.8647 161.959 50.9357 163.509 39.3214 163.73Z" fill="url(#paint0_linear_659_2692)"/>

 <g clip-path="url(#clip0_659_2695)">
    <path d="M56.0531 130.437C59.0878 130.672 62.2801 130.502 64.6561 131.464C65.8765 131.957 66.8463 132.425 67.2585 134.042C67.6141 135.436 66.4988 137.771 65.4603 138.79C62.4336 141.772 61.2537 143.162 60.4172 146.484C59.5808 149.805 58.4008 153.353 55.3379 155.171C54.659 155.576 53.8751 155.883 53.0467 155.838C52.2183 155.794 51.3455 155.329 51.0545 154.598C50.7312 153.781 51.1757 152.941 51.5879 152.201C52.8244 149.987 53.8548 147.631 54.166 145.11C54.4771 142.592 54.1458 141.667 52.5941 139.456C50.808 137.323 47.7935 135.618 44.4355 134.03L51.297 130.094L56.0531 130.437Z" fill="#F5A784"/>
    <path d="M52.8895 102.325C52.8895 102.325 49.4912 102.976 48.1334 102.64C37.413 100.006 14.586 88.1012 6.01934 93.2937C-1.60177 97.9165 0.382304 105.4 5.22328 111.728C9.98344 117.947 40.282 133.67 40.282 133.67L50.4448 125.346L46.505 123.584L47.9354 123.362C50.5539 123.718 53.2169 123.645 55.8111 123.14L68.645 120.646V107.291L52.8895 102.325Z" fill="#25D366"/>
    <path d="M95.4275 106.313C95.4275 106.313 100.216 111.373 100.992 120.315C101.254 123.342 99.6583 128.934 97.064 131.149C92.3281 135.19 86.1213 137.081 79.9105 136.616L51.2404 135.202L50.4443 124.4C50.4443 124.4 62.1306 120.036 65.3835 119.426L68.6404 119.018V107.291C68.6404 107.291 78.4194 107.825 82.9411 108.071C87.4629 108.318 95.4275 106.313 95.4275 106.313Z" fill="#25D366"/>
    <path d="M83.4788 113.211C83.4829 113.228 83.2525 113.276 82.8404 113.353C82.4282 113.43 81.8301 113.547 81.0987 113.708C79.6319 114.032 77.6236 114.569 75.4779 115.373C73.3322 116.181 71.4693 117.099 70.152 117.822C69.4933 118.182 68.964 118.485 68.6043 118.703C68.2407 118.917 68.0386 119.03 68.0305 119.018C68.0224 119.006 68.2124 118.869 68.5599 118.634C68.9074 118.396 69.4246 118.073 70.0793 117.693C71.3804 116.933 73.2473 115.988 75.4051 115.175C77.563 114.367 79.5875 113.85 81.0664 113.563C81.8059 113.418 82.408 113.321 82.8282 113.272C83.2445 113.219 83.4788 113.199 83.4788 113.211Z" fill="white"/>
    <path d="M96.252 130.526C96.2399 130.506 96.4824 130.405 96.8178 130.094C97.1491 129.783 97.5532 129.229 97.7633 128.437C97.9856 127.649 97.9815 126.659 97.9048 125.572C97.832 124.481 97.7431 123.281 97.529 122.04C97.3148 120.804 96.9794 119.644 96.5187 118.662C96.0621 117.676 95.4883 116.872 94.9266 116.27C93.7952 115.058 92.7809 114.714 92.8133 114.666C92.8173 114.658 92.8779 114.682 92.9911 114.726C93.1042 114.771 93.2699 114.847 93.476 114.961C93.8841 115.183 94.4498 115.567 95.0357 116.165C95.6176 116.763 96.2197 117.575 96.6925 118.573C97.1693 119.571 97.5168 120.747 97.7351 122C97.9492 123.252 98.0381 124.461 98.0987 125.556C98.1674 126.647 98.1553 127.661 97.9048 128.473C97.6664 129.286 97.2259 129.847 96.8703 130.15C96.6925 130.304 96.5309 130.397 96.4258 130.453C96.3167 130.51 96.2561 130.534 96.252 130.526Z" fill="#F5F5F5"/>
    <path d="M50.3116 124.526C50.3076 124.518 50.4127 124.473 50.6107 124.392C50.8289 124.308 51.1198 124.19 51.4875 124.049C52.2472 123.75 53.3585 123.342 54.7364 122.853C56.1184 122.372 57.763 121.81 59.6178 121.257C61.4685 120.695 63.5213 120.133 65.6993 119.657C70.0594 118.675 74.1084 118.295 77.034 118.327C77.3977 118.331 77.7492 118.331 78.0765 118.335C78.4039 118.351 78.715 118.372 79.006 118.384C79.5878 118.412 80.0849 118.444 80.493 118.497C80.885 118.541 81.1961 118.578 81.4305 118.606C81.6446 118.634 81.7538 118.65 81.7538 118.658C81.7538 118.667 81.6406 118.662 81.4264 118.65C81.1921 118.634 80.8809 118.61 80.489 118.582C80.0808 118.541 79.5838 118.521 79.006 118.505C78.715 118.493 78.4079 118.485 78.0806 118.473C77.7533 118.477 77.4058 118.477 77.0421 118.481C74.1246 118.485 70.0958 118.889 65.7519 119.867C63.5779 120.339 61.5291 120.893 59.6784 121.447C57.8277 121.988 56.175 122.538 54.7889 122.998C53.4231 123.471 52.3119 123.855 51.5199 124.13C51.1481 124.259 50.8531 124.36 50.6309 124.437C50.4248 124.502 50.3157 124.534 50.3116 124.526Z" fill="white"/>
    <path d="M46.0882 125.059C46.0841 125.059 46.0639 125.031 46.0195 124.97C45.971 124.898 45.9144 124.809 45.8376 124.7C45.676 124.445 45.4497 124.093 45.1628 123.645C45.0173 123.415 44.8557 123.16 44.6819 122.881C44.5001 122.606 44.29 122.311 44.0758 121.992C43.6353 121.358 43.1585 120.618 42.5605 119.85C42.2695 119.463 41.9624 119.054 41.6472 118.63C41.328 118.206 40.9684 117.79 40.6128 117.341C39.9096 116.44 39.0853 115.539 38.2367 114.577C36.4951 112.69 34.4827 110.706 32.2279 108.778C29.961 106.867 27.6738 105.206 25.5281 103.792C24.4411 103.109 23.4148 102.446 22.4126 101.897C21.9156 101.618 21.4428 101.331 20.9741 101.085C20.5053 100.842 20.0527 100.604 19.6204 100.382C18.7677 99.9168 17.9596 99.5693 17.2605 99.2339C16.9089 99.0723 16.5857 98.9147 16.2866 98.7773C15.9836 98.648 15.7047 98.5308 15.4542 98.4257C14.9653 98.2156 14.5814 98.0499 14.3026 97.9327C14.1813 97.8802 14.0844 97.8358 14.0035 97.7994C13.9389 97.7671 13.9025 97.7509 13.9066 97.7469C13.9066 97.7428 13.9429 97.7549 14.0116 97.7792C14.0924 97.8075 14.1935 97.8479 14.3187 97.8923C14.6016 98.0014 14.9895 98.155 15.4865 98.3489C15.7411 98.45 16.024 98.5631 16.327 98.6843C16.6342 98.8136 16.9574 98.9672 17.313 99.1248C18.0161 99.4481 18.8284 99.7915 19.6891 100.248C20.1255 100.47 20.5781 100.701 21.0508 100.939C21.5236 101.182 22.0004 101.469 22.5015 101.743C23.5117 102.289 24.5422 102.947 25.6372 103.63C27.7951 105.041 30.0943 106.701 32.3694 108.621C34.6282 110.552 36.6446 112.553 38.3822 114.452C39.2308 115.422 40.0511 116.331 40.7502 117.236C41.1057 117.685 41.4613 118.109 41.7806 118.533C42.0958 118.962 42.3988 119.374 42.6857 119.766C43.2757 120.541 43.7444 121.289 44.1768 121.928C44.391 122.251 44.593 122.546 44.7708 122.829C44.9406 123.111 45.0981 123.37 45.2396 123.604C45.5103 124.061 45.7245 124.421 45.8821 124.683C45.9467 124.801 46.0033 124.894 46.0437 124.966C46.076 125.027 46.0922 125.059 46.0882 125.059Z" fill="white"/>
    <path d="M31.4569 108.459C31.4448 108.467 31.3276 108.289 31.1256 107.958C30.9275 107.63 30.6326 107.158 30.2568 106.58C29.5132 105.424 28.4222 103.864 27.0806 102.252C25.7391 100.64 24.4056 99.282 23.4034 98.3405C22.9024 97.8677 22.4942 97.4919 22.2073 97.2373C21.9204 96.9787 21.7669 96.8292 21.779 96.8211C21.7871 96.809 21.9608 96.9383 22.2639 97.1767C22.567 97.4151 22.9953 97.7747 23.5085 98.2354C24.5389 99.1527 25.8966 100.502 27.2463 102.123C28.5919 103.743 29.6708 105.327 30.3861 106.507C30.7457 107.097 31.0205 107.582 31.1983 107.925C31.3761 108.261 31.469 108.451 31.4569 108.459Z" fill="white"/>
    <path d="M9.98346 104.172C9.93092 104.212 9.07426 103.008 7.75693 101.776C6.44364 100.535 5.19097 99.7591 5.22734 99.7025C5.23946 99.6783 5.57081 99.844 6.07188 100.171C6.57295 100.499 7.23565 100.996 7.9024 101.622C8.56915 102.248 9.10658 102.879 9.46218 103.355C9.81778 103.836 10.0037 104.156 9.98346 104.172Z" fill="#263238"/>
    <path d="M50.4443 124.525L33.1816 126.481L34.1595 135.343H54.0569L50.4443 124.525Z" fill="#F5A784"/>
    <path d="M39.0691 135.294C36.4264 135.375 31.3429 137.678 29.5488 139.404C27.7546 141.125 26.5141 143.32 25.5039 145.591C25.1685 146.346 24.7684 147.191 23.936 147.413C23.1884 147.615 22.3116 147.203 21.7903 146.581C21.269 145.954 21.0508 145.158 20.97 144.39C20.5982 140.919 22.6874 137.909 24.8008 135.302C26.9141 132.696 27.4597 131.573 28.0173 127.447C28.2072 126.037 29.3831 123.79 30.6843 123.248C32.1956 122.622 33.129 123.107 34.2362 123.774L38.1235 125.988" fill="#F5A784"/>
    <path d="M54.0571 135.343C54.0571 135.36 53.8833 135.368 53.5681 135.368C53.2125 135.368 52.768 135.372 52.2427 135.376C51.1234 135.38 49.5757 135.416 47.8664 135.449C46.1571 135.485 44.6054 135.493 43.4861 135.461C42.9244 135.445 42.4718 135.424 42.1607 135.4C41.8495 135.376 41.6758 135.356 41.6758 135.343C41.6758 135.327 41.8495 135.319 42.1647 135.319C42.5203 135.319 42.9648 135.315 43.4901 135.311C44.6095 135.307 46.1571 135.271 47.8664 135.238C49.5757 135.202 51.1234 135.194 52.2467 135.226C52.8084 135.242 53.261 135.263 53.5721 135.287C53.8833 135.307 54.0571 135.327 54.0571 135.343Z" fill="#EB996E"/>
    <path d="M46.7393 108.346C46.7515 108.338 46.8686 108.516 47.0666 108.847C47.1677 109.013 47.2889 109.215 47.4061 109.461C47.5273 109.708 47.6809 109.983 47.8061 110.306C47.9435 110.625 48.093 110.973 48.2183 111.36C48.3638 111.74 48.4729 112.165 48.5981 112.605C48.8204 113.494 48.9941 114.488 49.0709 115.543C49.1356 116.597 49.0911 117.608 48.9901 118.517C48.9255 118.969 48.8689 119.402 48.7759 119.798C48.7032 120.198 48.6022 120.566 48.5052 120.897C48.4203 121.232 48.3072 121.523 48.2183 121.786C48.1334 122.049 48.0405 122.267 47.9597 122.441C47.8061 122.796 47.7132 122.986 47.7011 122.982C47.6889 122.978 47.7536 122.772 47.8829 122.412C47.9516 122.234 48.0324 122.012 48.1052 121.75C48.1819 121.487 48.287 121.196 48.3597 120.861C48.4446 120.529 48.5375 120.166 48.6022 119.765C48.687 119.374 48.7355 118.945 48.7921 118.497C48.881 117.596 48.9214 116.601 48.8568 115.555C48.784 114.512 48.6143 113.53 48.4082 112.65C48.291 112.213 48.186 111.793 48.0526 111.417C47.9354 111.033 47.798 110.682 47.6687 110.366C47.5516 110.043 47.4101 109.768 47.301 109.518C47.1919 109.267 47.0869 109.057 46.9939 108.891C46.8202 108.544 46.7272 108.354 46.7393 108.346Z" fill="white"/>
    <path d="M54.6028 115.555C54.5867 115.555 54.5624 115.349 54.5261 114.977C54.5099 114.791 54.4897 114.565 54.4493 114.302C54.4089 114.04 54.3806 113.741 54.3119 113.413C54.2028 112.755 54.0129 111.983 53.7543 111.142C53.4795 110.306 53.1279 109.405 52.6713 108.495C52.2066 107.59 51.6894 106.774 51.1762 106.059C50.6509 105.352 50.1417 104.741 49.677 104.265C49.4548 104.014 49.2285 103.816 49.0426 103.63C48.8567 103.44 48.687 103.291 48.5456 103.17C48.2667 102.923 48.1172 102.778 48.1253 102.765C48.1334 102.753 48.3031 102.875 48.5981 103.105C48.7476 103.218 48.9294 103.359 49.1234 103.541C49.3214 103.719 49.5558 103.917 49.7861 104.16C50.267 104.628 50.7963 105.234 51.3338 105.942C51.8591 106.657 52.3884 107.485 52.8572 108.398C53.3179 109.316 53.6694 110.233 53.9361 111.082C54.1907 111.934 54.3644 112.718 54.4574 113.385C54.518 113.716 54.5382 114.019 54.5665 114.286C54.5948 114.553 54.6069 114.779 54.6069 114.969C54.619 115.349 54.619 115.555 54.6028 115.555Z" fill="white"/>
    <path d="M97.5292 124.348C97.5333 124.348 97.5171 124.388 97.4848 124.461C97.4484 124.546 97.3999 124.651 97.3393 124.784C97.2141 125.071 96.9918 125.479 96.6766 125.984C96.3574 126.485 95.925 127.075 95.3553 127.702C94.7814 128.324 94.0703 128.979 93.2095 129.613C91.4962 130.874 89.1767 132.029 86.433 132.688C83.6973 133.379 80.5858 133.605 77.3491 133.642C70.8675 133.662 65.0042 133.617 60.7572 133.597C58.6438 133.581 56.9305 133.565 55.7303 133.557C55.1485 133.549 54.6918 133.541 54.3645 133.537C54.2191 133.533 54.1019 133.529 54.0089 133.525C53.9281 133.52 53.8877 133.516 53.8877 133.512C53.8877 133.508 53.9281 133.504 54.0089 133.5C54.1019 133.496 54.2191 133.496 54.3645 133.492C54.6918 133.488 55.1485 133.484 55.7303 133.476C56.9345 133.472 58.6479 133.46 60.7572 133.452C65.0163 133.448 70.8756 133.44 77.3491 133.432C80.5818 133.391 83.6731 133.173 86.3885 132.498C89.1121 131.856 91.4113 130.724 93.1247 129.492C93.9813 128.873 94.6925 128.231 95.2744 127.621C95.8482 127.007 96.2847 126.429 96.616 125.936C96.9393 125.443 97.1736 125.043 97.311 124.764C97.3797 124.635 97.4323 124.529 97.4767 124.449C97.505 124.384 97.5292 124.348 97.5292 124.348Z" fill="white"/>
    <path d="M99.9376 116.473C99.9942 116.493 99.6062 117.713 99.0769 119.2C98.5475 120.687 98.0747 121.875 98.0182 121.855C97.9616 121.835 98.3495 120.615 98.8789 119.128C99.4082 117.645 99.881 116.457 99.9376 116.473Z" fill="white"/>
    <path d="M29.0239 124.869C29.0239 124.873 28.9916 124.861 28.9269 124.837C28.8542 124.805 28.7612 124.768 28.6521 124.724C28.3976 124.611 28.046 124.457 27.6015 124.263C26.6923 123.855 25.375 123.261 23.7667 122.493C22.1584 121.721 20.2592 120.768 18.2186 119.58C16.1779 118.392 14.008 116.957 11.9108 115.208C7.72036 111.688 4.83921 107.562 3.19053 104.406C2.35811 102.826 1.78834 101.497 1.43678 100.563C1.2509 100.099 1.13776 99.731 1.04886 99.4804C1.01249 99.3673 0.980165 99.2743 0.95592 99.1976C0.935715 99.1329 0.927633 99.1006 0.931674 99.1006C0.935715 99.1006 0.951879 99.1289 0.976124 99.1935C1.00441 99.2663 1.04482 99.3592 1.08927 99.4683C1.19029 99.7108 1.31556 100.078 1.51356 100.535C1.88532 101.456 2.47529 102.774 3.32388 104.338C4.9968 107.461 7.882 111.551 12.0481 115.046C14.1292 116.784 16.2911 118.222 18.3156 119.414C20.3441 120.606 22.2312 121.572 23.8314 122.36C25.4275 123.148 26.7327 123.762 27.6338 124.19C28.0703 124.401 28.4178 124.566 28.6683 124.687C28.7774 124.74 28.8623 124.784 28.935 124.821C28.9956 124.849 29.0279 124.865 29.0239 124.869Z" fill="#F5F5F5"/>
    <path d="M58.4008 6.71013C57.7947 5.69183 56.5824 5.06953 55.4024 5.1746C54.2225 5.27562 53.1355 6.09996 52.7153 7.20716C52.5375 7.6759 52.4647 8.19718 52.1657 8.60127C51.3575 9.70039 49.3452 9.37712 48.6946 10.5813C48.0036 11.8582 49.5997 13.3857 49.2118 14.7838C48.9007 15.9031 47.4662 16.4083 47.1388 17.5195C46.7065 18.9944 48.4804 20.4532 48.0561 21.9321C47.6884 23.205 45.8983 23.6738 45.6154 24.9669C45.3043 26.3933 47.058 27.553 47.0297 29.0158C46.9934 30.8867 44.1405 31.9131 44.4032 33.7639C44.5486 34.7862 45.6356 35.4691 45.8175 36.4874C46.1609 38.3988 43.199 39.7282 43.5505 41.6395C43.7162 42.5366 44.5648 43.1145 45.3002 43.66C46.0357 44.2015 46.7913 44.9854 46.6459 45.8865C46.4923 46.8321 45.4538 47.3251 44.884 48.0969C44.0112 49.2809 45.3972 52.3519 46.7428 52.9459L52.3354 48.7677C52.3354 48.7677 50.7312 47.4301 51.9879 46.2017C53.2446 44.9773 52.4324 44.4237 52.3839 43.4943C52.3839 43.4943 53.6325 44.5449 53.1759 45.64C52.5657 47.1028 53.4669 48.2504 53.4669 48.2504L62.0012 44.4237L62.9185 36.3298L58.4008 6.71013Z" fill="black"/>
    <path d="M45.9509 44.4074C45.9509 44.4074 45.765 44.4478 45.4094 44.4317C45.0538 44.4114 44.5164 44.3225 43.9184 43.9872C43.3243 43.6598 42.6818 43.0335 42.3707 42.1001C42.2131 41.6394 42.1444 41.11 42.2131 40.5564C42.2818 40.0028 42.504 39.4533 42.7869 38.9158C43.0657 38.3784 43.4132 37.845 43.6759 37.251C43.9305 36.661 44.1244 35.9822 44.0032 35.3033C43.886 34.6204 43.3607 34.0749 42.9526 33.4324C42.7505 33.1131 42.5525 32.7333 42.5849 32.305C42.601 31.8807 42.8718 31.4887 43.2152 31.2584C43.5506 31.0119 43.9345 30.8583 44.2861 30.6684C44.6376 30.4825 44.9851 30.2562 45.171 29.9128C45.369 29.5733 45.369 29.1531 45.2559 28.7611C45.1468 28.3651 44.9407 27.9933 44.6982 27.6418C44.4558 27.2943 44.1689 26.9508 43.9264 26.575C43.688 26.1992 43.4698 25.7749 43.4254 25.2981C43.3688 24.8212 43.5506 24.3323 43.8456 23.9646C44.1487 23.5968 44.5285 23.318 44.9003 23.0473C45.272 22.7765 45.6519 22.5179 45.9509 22.1987C46.2499 21.8795 46.452 21.4835 46.4601 21.0592C46.4601 20.6349 46.2984 20.2268 46.1004 19.8388C45.9024 19.4509 45.664 19.0791 45.4741 18.6791C45.2882 18.2831 45.1266 17.8426 45.1831 17.382C45.2034 17.1557 45.2801 16.9375 45.3811 16.7395C45.4943 16.5455 45.6276 16.3717 45.7772 16.2182C46.3712 15.6121 47.1309 15.2039 47.4501 14.4968C47.6077 14.1533 47.636 13.7654 47.5875 13.3936C47.539 13.0178 47.4258 12.6541 47.3046 12.2985C47.0541 11.5954 46.8035 10.86 46.8924 10.1205C46.9369 9.75278 47.0945 9.39718 47.3491 9.1426C47.5996 8.87995 47.9269 8.72235 48.2461 8.62537C48.8927 8.43141 49.5311 8.40716 50.109 8.26573C50.6868 8.14451 51.2081 7.86569 51.495 7.41311C51.794 6.97265 51.9557 6.47562 52.2466 6.07557C52.8245 5.2674 53.6811 4.932 54.3438 4.84714C55.0227 4.75824 55.5601 4.89159 55.8875 5.02494C56.0531 5.09364 56.1744 5.15829 56.2471 5.21082C56.3239 5.25931 56.3643 5.28356 56.3602 5.2876C56.3522 5.30376 56.2026 5.18658 55.8672 5.06535C55.5399 4.94413 55.0146 4.82694 54.3519 4.92796C53.7054 5.0209 52.881 5.36438 52.3396 6.14023C52.0648 6.52411 51.9112 7.02114 51.6001 7.48584C51.301 7.97075 50.7313 8.27785 50.1373 8.40716C49.5433 8.55264 48.9048 8.58496 48.2865 8.77488C47.9794 8.87186 47.6845 9.01734 47.4622 9.25575C47.2319 9.48608 47.0945 9.80127 47.0541 10.1407C46.9733 10.8277 47.2117 11.5308 47.4703 12.2379C47.5956 12.5976 47.7087 12.9693 47.7653 13.3653C47.8178 13.7573 47.7936 14.1897 47.6198 14.5736C47.2561 15.3575 46.4722 15.7697 45.9145 16.3556C45.7731 16.5011 45.6519 16.6627 45.5509 16.8324C45.462 17.0102 45.3933 17.2001 45.3771 17.3981C45.3246 17.7982 45.4701 18.2023 45.6519 18.5862C45.8337 18.97 46.0721 19.3418 46.2742 19.7378C46.4762 20.1338 46.6581 20.5743 46.6581 21.0551C46.65 21.536 46.4156 21.9967 46.0923 22.3361C45.7691 22.6836 45.3812 22.9422 45.0134 23.213C44.6417 23.4837 44.278 23.7544 43.9992 24.0898C43.7325 24.4293 43.5749 24.8495 43.6234 25.2738C43.6638 25.6981 43.8618 26.0941 44.0921 26.4578C44.3224 26.8255 44.6013 27.1569 44.8558 27.5205C45.1064 27.8842 45.3205 28.2762 45.4418 28.7005C45.563 29.1207 45.567 29.6097 45.3367 30.0057C45.1144 30.4057 44.7265 30.6482 44.3669 30.8381C44.0032 31.0321 43.6274 31.1856 43.3163 31.4119C43.0011 31.6261 42.7788 31.9494 42.7627 32.313C42.7344 32.6727 42.9041 33.0202 43.098 33.3313C43.486 33.9536 44.0355 34.5234 44.1648 35.271C44.2942 36.0064 44.08 36.7095 43.8173 37.3157C43.5425 37.9258 43.191 38.4552 42.9122 38.9845C42.6293 39.5099 42.4111 40.0432 42.3384 40.5726C42.2697 41.102 42.3303 41.6152 42.4758 42.0597C42.7667 42.9648 43.3809 43.5831 43.9507 43.9104C44.5285 44.2498 45.0538 44.3468 45.4054 44.3832C45.765 44.4155 45.9509 44.3953 45.9509 44.4074Z" fill="#263238"/>
    <path d="M46.2136 50.53C46.2136 50.53 46.1692 50.5138 46.1005 50.4492C46.0318 50.3885 45.9469 50.2633 45.9227 50.0774C45.8984 49.8955 45.9388 49.6571 46.0722 49.4228C46.2015 49.1803 46.4763 48.9864 46.8036 48.8772C47.1309 48.7601 47.5148 48.7156 47.9148 48.6186C48.3027 48.5257 48.7472 48.3317 48.9816 47.9317C49.0988 47.7337 49.1069 47.4831 49.022 47.2528C48.9372 47.0225 48.7755 46.8083 48.6179 46.582C48.4644 46.3557 48.2906 46.1012 48.2664 45.786C48.23 45.4748 48.3391 45.1637 48.4886 44.8929C48.6381 44.6182 48.82 44.3636 48.9816 44.0928C49.1352 43.8221 49.2847 43.5312 49.2685 43.22C49.2645 42.9089 49.0907 42.622 48.8604 42.3755C48.6341 42.1249 48.3593 41.9027 48.1128 41.6279C47.8663 41.3652 47.6481 40.9733 47.737 40.5651C47.7653 40.3631 47.8704 40.1732 48.0158 40.0317C48.1573 39.8822 48.331 39.7853 48.5048 39.6883C48.8563 39.5145 49.2241 39.3892 49.5797 39.2317C49.9353 39.0781 50.2787 38.8841 50.501 38.577C50.7232 38.2699 50.7596 37.8658 50.6667 37.4819C50.5778 37.094 50.404 36.7142 50.2383 36.3263C50.0767 35.9343 49.9029 35.5302 49.8464 35.0817C49.7898 34.6331 49.8868 34.1684 50.0646 33.7563C50.4121 32.9319 51.0142 32.2248 51.196 31.364C51.2849 30.9398 51.2162 30.4993 51.0263 30.0952C50.8445 29.6871 50.5818 29.3072 50.3393 28.9032C50.1009 28.4991 49.8787 28.0586 49.8585 27.5616C49.8383 27.0645 50.0565 26.5998 50.3353 26.2321C50.6141 25.8563 50.9374 25.5452 51.2162 25.2017C51.495 24.8663 51.7294 24.4945 51.7739 24.0824C51.8223 23.6742 51.6809 23.2621 51.4748 22.8984C51.2728 22.5266 51.0223 22.1791 50.8162 21.8033C50.606 21.4316 50.4404 21.0073 50.4525 20.5668C50.4687 20.1223 50.6667 19.7263 50.8808 19.3828C51.095 19.0353 51.3294 18.712 51.495 18.3686C51.6648 18.0291 51.7415 17.6574 51.6567 17.3018C51.4991 16.5825 50.9374 16.0087 50.8 15.2571C50.7273 14.8853 50.8323 14.4853 51.0344 14.1903C51.2324 13.8872 51.495 13.6569 51.7294 13.4225C51.9678 13.1922 52.1901 12.9619 52.3477 12.6952C52.5012 12.4325 52.5659 12.1335 52.578 11.8345C52.6022 11.2364 52.4689 10.6586 52.5012 10.0969C52.5335 9.53519 52.7194 9.022 52.974 8.60175C53.4912 7.74912 54.2994 7.30462 54.9702 7.16723C55.6491 7.02176 56.1986 7.1147 56.5421 7.21168C56.8896 7.31675 57.0513 7.42181 57.0513 7.42181C57.0472 7.43393 56.8775 7.34503 56.53 7.25613C56.1865 7.17127 55.6491 7.0945 54.9904 7.24805C54.3398 7.39756 53.564 7.83398 53.075 8.66236C52.8326 9.07049 52.6588 9.56348 52.6346 10.1009C52.6063 10.6384 52.7437 11.2122 52.7275 11.8385C52.7194 12.1496 52.6507 12.481 52.481 12.7719C52.3113 13.0588 52.0769 13.3053 51.8385 13.5357C51.6001 13.77 51.3536 14.0004 51.1718 14.2792C50.9859 14.554 50.901 14.8894 50.9657 15.2248C51.0829 15.9077 51.6445 16.4734 51.8304 17.2614C51.9274 17.6574 51.8385 18.0897 51.6607 18.4494C51.487 18.8171 51.2485 19.1404 51.0384 19.4798C50.8323 19.8192 50.6545 20.1829 50.6424 20.5708C50.6303 20.9588 50.7758 21.3467 50.9818 21.7063C51.1839 22.07 51.4344 22.4175 51.6445 22.8014C51.8547 23.1813 52.0244 23.6379 51.9678 24.1066C51.9153 24.5794 51.6526 24.9875 51.3657 25.335C51.0788 25.6866 50.7556 26.0018 50.4929 26.3574C50.2262 26.709 50.0403 27.1171 50.0565 27.5535C50.0767 27.9859 50.2747 28.4021 50.5091 28.794C50.7434 29.1901 51.0101 29.5739 51.2041 30.0063C51.4061 30.4306 51.487 30.9398 51.39 31.4045C51.1839 32.3419 50.5737 33.0491 50.2424 33.8371C50.0686 34.229 49.9878 34.6453 50.0363 35.0534C50.0848 35.4655 50.2504 35.8575 50.4121 36.2454C50.5737 36.6334 50.7515 37.0173 50.8485 37.4375C50.9536 37.8456 50.9131 38.3346 50.6505 38.6861C50.3919 39.0417 50.012 39.2478 49.6484 39.4014C49.2847 39.559 48.9129 39.6802 48.5816 39.8459C48.2583 40.0115 47.9512 40.2459 47.9067 40.5894C47.834 40.9248 48.0037 41.2521 48.2381 41.5067C48.4684 41.7693 48.7432 41.9956 48.9816 42.2583C49.216 42.5169 49.4221 42.8482 49.4261 43.2119C49.4382 43.5756 49.2685 43.8948 49.1109 44.1696C48.9412 44.4484 48.7594 44.699 48.6139 44.9616C48.4684 45.2202 48.3714 45.4991 48.3997 45.7698C48.4159 46.0405 48.5735 46.283 48.723 46.5052C48.8765 46.7315 49.0422 46.9497 49.1352 47.2084C49.2281 47.4629 49.2119 47.762 49.0786 47.9842C48.8038 48.4327 48.3351 48.6186 47.931 48.7116C47.5228 48.8005 47.143 48.8409 46.8238 48.95C46.5045 49.051 46.25 49.2248 46.1207 49.451C45.9873 49.6693 45.9429 49.8955 45.959 50.0653C46.0035 50.433 46.2378 50.5178 46.2136 50.53Z" fill="#455A64"/>
    <path d="M96.0539 106.313L89.0187 82.8558L91.2129 45.6675C86.7356 43.2268 81.4178 41.2953 73.8331 40.9922L61.7023 41.9054L48.3311 48.585L51.1476 71.0604L55.6895 90.4688L52.8932 102.329C64.333 110.552 79.5388 111.445 96.0539 106.313Z" fill="#03C0FF"/>
    <path d="M85.4512 67.375C85.4512 67.375 99.1296 68.0781 99.1296 66.9467C99.1296 64.6313 98.4143 58.0568 96.4545 52.941C94.9715 49.0698 92.4055 46.221 91.0397 45.6351C87.8676 44.2733 85.4512 67.375 85.4512 67.375Z" fill="#03C0FF"/>
    <path d="M48.5173 48.4795C48.5173 48.4795 45.9312 50.6252 43.2157 57.0785C39.9951 64.7279 39.0576 66.3038 39.0576 66.3038L47.1677 77.2708L51.5722 72.3328L48.5173 48.4795Z" fill="#F5A784"/>
    <path d="M55.6862 90.4646C55.6822 90.4646 55.67 90.4363 55.6539 90.3756C55.6337 90.3029 55.6094 90.214 55.5811 90.1089C55.5165 89.8544 55.4316 89.5109 55.3225 89.0785C55.1003 88.1815 54.7932 86.8803 54.4254 85.272C53.686 82.0555 52.7202 77.5984 51.6776 72.6725C50.6351 67.7507 49.6895 63.3017 49.0026 60.0569C48.6591 58.4567 48.3803 57.1555 48.1823 56.2342C48.0893 55.7978 48.0166 55.4503 47.9641 55.1957C47.9439 55.0866 47.9277 54.9977 47.9115 54.925C47.8994 54.8644 47.8994 54.832 47.8994 54.832C47.9035 54.832 47.9115 54.8603 47.9317 54.9209C47.9519 54.9937 47.9762 55.0826 48.0045 55.1876C48.0691 55.4422 48.154 55.7857 48.2591 56.2181C48.4773 57.1151 48.7803 58.4163 49.144 60.0246C49.8754 63.2451 50.8371 67.7022 51.8797 72.6321C52.9263 77.5499 53.8759 81.9989 54.5669 85.2437C54.9144 86.8439 55.1973 88.141 55.3953 89.0624C55.4882 89.4988 55.5609 89.8463 55.6135 90.1009C55.6337 90.21 55.6498 90.2989 55.666 90.3716C55.6862 90.4322 55.6902 90.4646 55.6862 90.4646Z" fill="#263238"/>
    <g opacity="0.3">
      <path opacity="0.3" d="M87.5282 43.8652C85.7502 42.8146 83.5964 42.4145 81.5598 42.7621C79.5232 43.1096 77.6199 44.1966 76.2905 45.7766L76.1046 44.4027C75.9915 45.8897 74.7954 47.5667 74.961 48.5365C75.1267 49.5063 75.9228 50.4074 76.9087 50.4478C78.2988 50.5044 79.5676 48.9487 80.8607 49.4699C81.2891 49.6437 81.6042 50.0235 82.0245 50.2175C82.966 50.6499 84.0369 50.0478 84.8774 49.4457C85.8472 48.7547 86.8008 48.0435 87.7343 47.3081C88.2555 46.8959 88.8132 46.4069 88.8698 45.7442C88.9384 44.932 88.2273 44.2774 87.5282 43.8652Z" fill="black"/>
    </g>
    <path d="M89.4356 46.3782C89.4801 46.4307 88.3486 46.9196 87.1646 48.4067C86.5747 49.1421 86.0372 50.1402 85.6049 51.3121C85.1725 52.4839 84.8371 53.8255 84.5057 55.2358C84.1784 56.642 84.0451 58.0159 83.9683 59.2686C83.8915 60.5213 83.8673 61.6527 83.8269 62.6023C83.7905 63.5519 83.7461 64.3237 83.6976 64.8531C83.6774 65.1198 83.6491 65.3218 83.6329 65.4633C83.6167 65.6007 83.6046 65.6734 83.5965 65.6734C83.5885 65.6734 83.5885 65.6007 83.5925 65.4592C83.6006 65.2976 83.6087 65.0955 83.6167 64.8491C83.641 64.3197 83.6612 63.5519 83.6774 62.5983C83.6976 61.6487 83.7056 60.5172 83.7743 59.2565C83.843 57.9998 83.9683 56.6097 84.2997 55.1873C84.635 53.777 84.9745 52.4274 85.423 51.2434C85.8716 50.0594 86.4332 49.0492 87.0515 48.3138C87.6617 47.5702 88.2718 47.0813 88.7163 46.7863C88.9345 46.6327 89.1245 46.5438 89.2457 46.4711C89.3669 46.4024 89.4316 46.3701 89.4356 46.3782Z" fill="#263238"/>
    <path d="M77.9556 98.5466C77.9556 98.5547 77.8829 98.5466 77.7495 98.5223C77.5919 98.4941 77.402 98.4577 77.1717 98.4173C76.6706 98.3243 75.9513 98.1667 75.0623 97.9566C73.2884 97.5364 70.8598 96.8575 68.2373 95.9321C65.6148 95.0027 63.2993 94.0006 61.6547 93.2126C60.8344 92.8207 60.1757 92.4893 59.7272 92.2468C59.5211 92.1337 59.3514 92.0408 59.214 91.964C59.0968 91.8993 59.0362 91.8589 59.0402 91.8549C59.0443 91.8468 59.1089 91.8751 59.2342 91.9276C59.3797 91.9923 59.5534 92.0731 59.7676 92.1741C60.2282 92.3923 60.895 92.7035 61.7234 93.0793C63.3801 93.8309 65.6956 94.8088 68.3141 95.7382C70.9285 96.6635 73.345 97.3586 75.1068 97.8192C75.9877 98.0496 76.7029 98.2274 77.1959 98.3445C77.4222 98.4011 77.6121 98.4496 77.7657 98.49C77.891 98.5183 77.9556 98.5425 77.9556 98.5466Z" fill="#263238"/>
    <path d="M78.9052 93.9405C78.9052 93.9485 78.8325 93.9566 78.6951 93.9728C78.5335 93.9849 78.3355 94.0011 78.093 94.0172C77.5677 94.0576 76.808 94.0859 75.8705 94.1021C73.9915 94.1385 71.3932 94.0698 68.5444 93.7586C65.6915 93.4475 63.1417 92.9504 61.3153 92.514C60.402 92.2958 59.6666 92.1019 59.1655 91.9483C58.9352 91.8796 58.7412 91.819 58.5877 91.7745C58.4543 91.7341 58.3896 91.7059 58.3896 91.6978C58.3896 91.6897 58.4624 91.7018 58.5998 91.7301C58.7574 91.7665 58.9513 91.8109 59.1897 91.8675C59.6989 91.9928 60.4384 92.1665 61.3516 92.3645C63.1821 92.7646 65.7279 93.2333 68.5727 93.5485C71.4134 93.8556 74.0036 93.9485 75.8746 93.9485C76.812 93.9526 77.5717 93.9405 78.093 93.9283C78.3355 93.9243 78.5335 93.9243 78.6951 93.9203C78.8325 93.9324 78.9052 93.9364 78.9052 93.9405Z" fill="#263238"/>
    <g opacity="0.3">
      <path opacity="0.3" d="M90.7529 90.2625C90.0296 89.0704 88.6031 88.5451 87.302 88.0561C80.2506 85.3932 73.7246 81.3523 68.2007 76.2204C65.558 73.7676 63.0526 71.0036 59.7391 69.5853C56.4256 68.1669 51.9604 68.5912 50.0127 71.6259L51.229 72.4179C57.3388 74.4545 61.3918 80.0512 65.8004 84.7467C69.114 88.2744 72.8114 91.4141 76.5007 94.5458C78.8687 96.5582 81.5195 98.6756 84.6269 98.6796C87.7626 98.6837 90.7084 96.1541 91.1853 93.0547C91.3307 92.1011 91.254 91.0828 90.7529 90.2625Z" fill="black"/>
    </g>
    <path d="M28.648 31.3389H27.5933C26.7003 31.3389 25.8881 31.8561 25.5083 32.6643C25.1688 33.3836 25.2294 34.2281 25.6618 34.8948L27.2984 37.4204C27.2984 37.4204 25.678 38.3013 26.1305 40.0672C26.1305 40.0672 25.0678 40.7178 25.6254 42.8958C25.6254 42.8958 24.9142 44.7223 25.779 45.9871C26.6397 47.2559 29.3794 52.1211 29.3794 52.1211V57.4955L36.6692 56.655V50.4482C36.6692 50.4482 37.441 49.2319 37.744 47.66C38.0471 46.0881 36.8833 40.0672 36.8833 40.0672L33.5375 36.2041L29.7875 34.7332C29.7875 34.7332 29.3835 35.3393 29.5491 36.0869C29.5693 36.1758 29.5976 36.2647 29.634 36.3576L29.0764 36.1031L27.8237 33.824V33.5209C27.8237 33.5209 30.9028 32.83 29.7229 31.7389C29.4279 31.4682 29.04 31.3389 28.648 31.3389Z" fill="#F5A784"/>
    <path d="M33.2426 45.6965C33.2507 45.6884 33.3436 45.7854 33.4204 46.0036C33.4931 46.2177 33.5739 46.5572 33.4689 46.9774C33.4163 47.1835 33.2587 47.4098 33.0163 47.5149C32.7779 47.6199 32.4869 47.628 32.2162 47.5472C31.6424 47.3734 31.2787 46.836 30.911 46.3713C30.7211 46.1369 30.519 45.9268 30.2887 45.7854C30.0584 45.6359 29.8078 45.5874 29.5492 45.5995C29.036 45.6318 28.5632 45.6601 28.143 45.6844C27.3389 45.7288 26.8418 45.7409 26.8418 45.7126C26.8378 45.6844 27.3348 45.6197 28.1349 45.5348C28.535 45.4944 29.0077 45.4459 29.5452 45.4055C29.8159 45.3813 30.1392 45.4419 30.3978 45.6076C30.6605 45.7692 30.8787 45.9955 31.0767 46.238C31.4565 46.7188 31.8 47.2118 32.2768 47.3613C32.5112 47.4341 32.7577 47.4341 32.9516 47.3532C33.1496 47.2765 33.2749 47.1108 33.3315 46.933C33.4446 46.5693 33.3921 46.238 33.3476 46.0278C33.2911 45.8096 33.2264 45.7046 33.2426 45.6965Z" fill="black"/>
    <path d="M30.5352 37.0689C30.5271 37.0932 30.3735 37.073 30.1594 36.9518C29.9492 36.8305 29.6866 36.5881 29.533 36.2365C29.3795 35.885 29.3795 35.5294 29.432 35.2909C29.4845 35.0525 29.5734 34.9232 29.5977 34.9354C29.6583 34.9475 29.4441 35.5253 29.723 36.1517C30.0018 36.782 30.5675 37.0204 30.5352 37.0689Z" fill="#263238"/>
    <path d="M29.9089 45.4455C29.9332 45.4495 29.9494 45.6152 29.8847 45.8819C29.8241 46.1445 29.6665 46.5001 29.3958 46.8153C29.125 47.1305 28.7977 47.3407 28.5472 47.4417C28.2966 47.5467 28.1269 47.5589 28.1188 47.5346C28.0946 47.474 28.733 47.28 29.2341 46.6779C29.7514 46.092 29.8443 45.4334 29.9089 45.4455Z" fill="black"/>
    <path d="M34.3858 49.6764C34.3332 49.7128 33.917 48.9046 32.9715 48.3995C32.038 47.8782 31.1288 47.9671 31.1329 47.9024C31.1288 47.8782 31.347 47.8176 31.7107 47.8297C32.0744 47.8418 32.5795 47.9469 33.0684 48.2136C33.5574 48.4843 33.9211 48.848 34.1272 49.147C34.3413 49.4501 34.41 49.6643 34.3858 49.6764Z" fill="black"/>
    <path d="M34.4476 45.7611C34.7305 46.2662 34.9325 46.8158 35.0376 47.3856C35.1346 47.9311 35.2194 48.6019 35.1427 49.0666C34.9931 49.9838 34.5729 52.5781 35.1669 53.1883C35.7569 53.7984 39.7654 57.0796 39.7654 57.0796H42.2829C42.2829 57.0796 37.1712 53.9237 36.4842 51.8022C35.7973 49.6808 36.4559 48.5453 36.1125 47.2239C35.7448 45.8217 34.3911 42.9689 34.3911 42.9689L28.5439 33.3516L27.5781 33.5779L34.4476 45.7611Z" fill="#E0E0E0"/>
    <path d="M34.4471 45.7607C34.4471 45.7607 34.3945 45.688 34.3097 45.5465C34.2208 45.393 34.0955 45.1788 33.9339 44.904C33.6025 44.3262 33.1257 43.5019 32.5236 42.4512C31.3113 40.3176 29.5859 37.2789 27.5048 33.6179L27.4482 33.5168L27.5654 33.4885C27.8604 33.4199 28.1918 33.339 28.5272 33.2623L28.5918 33.2461L28.6282 33.3027C30.3738 36.1677 32.362 39.4286 34.4834 42.9119L34.4875 42.9159L34.4915 42.92C34.9724 43.9504 35.4613 45.0455 35.8896 46.189C36.0957 46.7629 36.318 47.3609 36.3261 47.9913C36.3422 48.6095 36.2574 49.2035 36.2655 49.7935C36.2695 50.3794 36.3503 50.9573 36.5119 51.5109C36.6574 52.0645 36.9605 52.5373 37.3242 52.9697C38.0596 53.8263 38.9163 54.5416 39.7649 55.2043C40.6215 55.8589 41.4822 56.461 42.3389 57.0025L42.6137 57.1762H42.2904C41.4176 57.1762 40.5811 57.1722 39.7729 57.1722H39.7406L39.7164 57.152C38.1323 55.8387 36.6817 54.6426 35.433 53.5354C35.2835 53.3899 35.1138 53.2687 35.0047 53.0666C34.9077 52.8727 34.8713 52.6706 34.8431 52.4726C34.7905 52.0807 34.8027 51.7008 34.8229 51.3412C34.8633 50.6179 34.9602 49.9632 35.0572 49.3733C35.1906 48.7914 35.138 48.262 35.0774 47.8054C35.0209 47.3488 34.936 46.9649 34.835 46.6659C34.738 46.3628 34.637 46.1406 34.5683 45.9951C34.4794 45.8415 34.439 45.7648 34.4471 45.7607C34.4471 45.7607 34.6491 46.0395 34.8713 46.6416C34.9805 46.9407 35.0734 47.3286 35.1421 47.7892C35.2067 48.2418 35.2714 48.7954 35.1421 49.3854C35.0532 49.9754 34.9683 50.63 34.932 51.3412C34.9158 51.6968 34.9118 52.0726 34.9643 52.4484C34.9926 52.6343 35.033 52.8282 35.1178 52.9939C35.2027 53.1475 35.3724 53.2808 35.5219 53.4182C36.7706 54.5133 38.2293 55.7013 39.8214 57.0065L39.7649 56.9863C40.573 56.9863 41.4095 56.9823 42.2823 56.9823L42.2338 57.156C41.3691 56.6145 40.5043 56.0165 39.6396 55.3578C38.7829 54.6951 37.9182 53.9758 37.1625 53.099C36.7908 52.6625 36.4594 52.1413 36.3059 51.5634C36.1402 50.9977 36.0553 50.3956 36.0513 49.7935C36.0432 49.1914 36.1281 48.5893 36.1119 47.9994C36.1079 47.4094 35.8977 46.8396 35.6876 46.2658C35.2633 45.1344 34.7744 44.0393 34.2975 43.0129L34.3016 43.021C32.1882 39.5378 30.2082 36.2687 28.4706 33.3996L28.5676 33.4401C28.2322 33.5168 27.9008 33.5936 27.6018 33.6623L27.6584 33.533C29.7111 37.2102 31.4164 40.257 32.6125 42.4027C33.1984 43.4655 33.6591 44.2979 33.9783 44.8798C34.1278 45.1586 34.245 45.3768 34.3299 45.5344C34.4107 45.6839 34.4471 45.7607 34.4471 45.7607Z" fill="#263238"/>
    <path d="M27.1162 37.7603C27.7506 37.0329 28.777 36.7218 29.7387 36.8107C30.7005 36.9036 31.5975 37.3562 32.3613 37.9462C33.125 38.5361 33.7715 39.2635 34.4181 39.9787C34.8303 40.4354 35.2626 40.9203 35.3839 41.5224C35.5051 42.1245 35.1818 42.8639 34.5716 42.9528C33.9817 43.0417 33.5008 42.5285 33.0886 42.0962C32.527 41.5062 31.8966 40.9809 31.2137 40.5364C30.7894 40.2616 30.3328 40.0151 29.8317 39.9505C29.2256 39.8737 28.6194 40.0717 28.0375 40.2697" fill="#F5A784"/>
    <path d="M28.0467 40.2733C28.0427 40.2652 28.1073 40.2369 28.2326 40.1884C28.3579 40.1399 28.5397 40.0712 28.7862 40.0025C29.0287 39.9379 29.3398 39.8651 29.7075 39.8813C30.0753 39.8934 30.4874 40.0268 30.8875 40.249C31.6835 40.6935 32.5564 41.3603 33.3645 42.2412C33.5706 42.4473 33.7929 42.6534 34.0596 42.7746C34.3182 42.8999 34.6334 42.8999 34.8677 42.7301C35.1021 42.5645 35.2557 42.2695 35.2961 41.9624C35.3446 41.6553 35.2557 41.336 35.1021 41.0451C34.7869 40.4672 34.2778 39.9985 33.8575 39.5095C33.4211 39.0327 32.9887 38.5882 32.5362 38.2084C31.6391 37.4447 30.645 36.98 29.7601 36.8911C28.8751 36.7941 28.1599 37.0446 27.7396 37.2951C27.3113 37.5497 27.1375 37.78 27.1214 37.7598C27.1173 37.7558 27.1577 37.6992 27.2466 37.5982C27.3396 37.5012 27.485 37.3638 27.6992 37.2224C28.1195 36.9436 28.8549 36.6567 29.7803 36.7375C30.7016 36.8143 31.7401 37.283 32.6655 38.0548C33.1302 38.4387 33.5747 38.8873 34.0151 39.3641C34.4394 39.853 34.9445 40.3056 35.2961 40.94C35.4618 41.2552 35.5668 41.6229 35.5102 41.9826C35.4618 42.3341 35.292 42.6816 34.993 42.8918C34.694 43.11 34.2818 43.1019 33.9828 42.9524C33.6757 42.8069 33.4454 42.5847 33.2352 42.3745C32.4351 41.4936 31.5946 40.8309 30.8228 40.3783C30.4389 40.1561 30.055 40.0227 29.7075 39.9985C29.36 39.9742 29.057 40.0268 28.8105 40.0834C28.3175 40.2005 28.0508 40.2935 28.0467 40.2733Z" fill="black"/>
    <path d="M26.9268 42.6537C28.2077 42.9608 29.6544 42.6537 30.7818 43.3285C31.1576 43.5548 31.4687 43.874 31.7758 44.1892C32.3658 44.7953 32.9558 45.4055 33.5457 46.0116C33.869 46.347 34.3135 46.7107 34.754 46.4965C34.96 46.3955 35.0893 46.1854 35.1298 45.9591C35.1984 45.5469 35.0126 45.1711 34.8267 44.8196C34.4145 44.0437 33.9417 43.2881 33.4447 42.5607C33.1901 42.1849 32.8992 41.8374 32.5759 41.5222C32.091 41.0535 31.3556 40.411 30.7939 40.2372C29.8806 39.9543 29.2018 39.8089 28.2885 40.2372" fill="#F5A784"/>
    <path d="M29.2618 33.0076C29.282 33.0561 28.6436 33.3793 27.7909 33.6056C26.9383 33.84 26.2069 33.8158 26.211 33.7592C26.211 33.7026 26.906 33.6299 27.7384 33.4036C28.5708 33.1854 29.2376 32.951 29.2618 33.0076Z" fill="black"/>
    <path d="M38.3944 66.3977L36.6609 55.9277L29.3711 57.2733C29.3711 57.2733 29.7509 71.5458 30.0985 75.0573C30.6601 80.7468 33.4766 86.7758 37.7842 85.705C41.7968 84.7069 46.5368 76.3221 46.5368 76.3221L38.3944 66.3977Z" fill="#F5A784"/>
    <path d="M74.8955 7.39695C75.1743 7.84549 75.9098 7.76467 76.2694 7.38079C76.6331 6.99286 76.7301 6.43522 76.823 5.91395C76.92 5.39267 77.0493 4.83503 77.4534 4.49155C77.8575 4.14808 78.6131 4.19657 78.7869 4.69764C78.4596 3.83693 79.49 2.82671 80.3426 3.17019C80.48 2.3216 81.2922 1.63465 82.157 1.63869C83.0177 1.64677 83.8218 2.3418 83.9471 3.19443C84.3108 2.79842 84.9492 2.68932 85.4261 2.93581C85.9029 3.18231 86.1777 3.76824 86.0645 4.29355C87.1717 4.39457 87.8708 5.88162 87.2404 6.79486C87.895 6.86355 88.4769 7.36866 88.6426 8.00308C88.8042 8.6375 88.5375 9.36486 87.9961 9.73662C88.4527 10.6054 87.6041 11.8258 86.6302 11.7005C86.0645 12.743 84.5492 13.1269 83.5551 12.4804C81.5428 13.2926 79.1182 12.9895 77.3726 11.7045" fill="black"/>
    <path d="M61.0204 39.407C61.0185 39.3947 60.9305 39.3228 60.8162 39.3138C60.8259 39.2135 60.826 39.2135 60.826 39.2135L60.8259 39.2135L60.8239 39.2133L60.8142 39.2122C60.8051 39.2112 60.7909 39.2094 60.772 39.2068C60.7341 39.2016 60.677 39.1929 60.6031 39.1794C60.4552 39.1522 60.2401 39.1055 59.9758 39.0276C59.4472 38.8719 58.7239 38.5922 57.9507 38.097C56.4092 37.1099 54.6545 35.2577 53.8555 31.7835C53.0535 28.2947 52.8346 22.4831 52.8063 17.6999C52.7964 15.5846 53.4015 13.1862 54.5327 11.3427C55.6611 9.50365 57.2876 8.25151 59.3231 8.3196L72.869 10.7737L72.8841 10.7764L72.8995 10.777C74.0915 10.8213 75.0514 11.769 75.1118 12.961L75.8472 44.2264C75.9374 48.108 72.9781 51.3853 69.1082 51.6914C64.9911 52.0172 61.4195 48.8695 61.2232 44.7445L61.2232 44.7444C61.1485 43.1878 61.0981 41.8524 61.0663 40.9086C61.0504 40.4368 61.0391 40.0629 61.0319 39.8082C61.0283 39.6809 61.0256 39.5834 61.0239 39.5184L61.022 39.4454L61.0215 39.4275L61.0214 39.4224L61.0213 39.4208L61.0211 39.4168L61.0204 39.407Z" fill="#F5A784" stroke="black" stroke-width="0.432703"/>
    <path d="M54.9946 22.7885C55.0108 23.2734 55.4351 23.6614 55.9402 23.6533C56.4453 23.6452 56.8453 23.2492 56.8292 22.7643C56.813 22.2794 56.3887 21.8915 55.8836 21.8995C55.3745 21.9036 54.9785 22.3036 54.9946 22.7885Z" fill="#263238"/>
    <path d="M54.1704 20.1824C54.2916 20.2955 54.9502 19.7338 55.9362 19.6692C56.9182 19.5884 57.6778 20.049 57.7789 19.9197C57.8274 19.8631 57.698 19.653 57.3667 19.4469C57.0394 19.2408 56.4979 19.055 55.8837 19.0994C55.2695 19.1439 54.7684 19.4065 54.4896 19.6571C54.1986 19.9076 54.1097 20.1298 54.1704 20.1824Z" fill="#263238"/>
    <path d="M64.2202 22.5053C64.2364 22.9902 64.6607 23.3782 65.1658 23.3701C65.6709 23.362 66.0709 22.966 66.0548 22.4811C66.0386 21.9962 65.6143 21.6083 65.1092 21.6163C64.6 21.6244 64.204 22.0204 64.2202 22.5053Z" fill="#263238"/>
    <path d="M63.9048 20.1619C64.026 20.275 64.6847 19.7133 65.6706 19.6487C66.6526 19.5678 67.4122 20.0285 67.5092 19.8992C67.5577 19.8426 67.4284 19.6325 67.0971 19.4264C66.7697 19.2203 66.2283 19.0345 65.6141 19.0789C64.9998 19.1234 64.4988 19.386 64.22 19.6365C63.933 19.8911 63.8442 20.1134 63.9048 20.1619Z" fill="#263238"/>
    <path d="M60.8294 27.7184C60.8294 27.6618 60.2111 27.5971 59.209 27.5406C58.9544 27.5325 58.712 27.4961 58.6594 27.3304C58.5867 27.1526 58.6756 26.8738 58.7766 26.5707C58.9706 25.9444 59.1767 25.2898 59.3908 24.6028C60.2354 21.8025 60.8334 19.5073 60.7203 19.475C60.6071 19.4426 59.8313 21.6853 58.9827 24.4857C58.7807 25.1766 58.5867 25.8353 58.4008 26.4616C58.324 26.7526 58.1826 27.088 58.3362 27.4597C58.417 27.6416 58.6109 27.7669 58.7766 27.7992C58.9423 27.8355 59.0837 27.8315 59.209 27.8275C60.2071 27.8113 60.8294 27.7749 60.8294 27.7184Z" fill="#263238"/>
    <path d="M63.2582 17.6283C63.3754 17.8909 64.3492 17.697 65.513 17.7536C66.6808 17.7899 67.6344 18.0647 67.7718 17.8142C67.8324 17.6929 67.6506 17.4545 67.2586 17.2202C66.8667 16.9858 66.2525 16.7797 65.5534 16.7514C64.8543 16.7231 64.228 16.8767 63.8158 17.0787C63.4077 17.2767 63.2097 17.503 63.2582 17.6283Z" fill="#263238"/>
    <path d="M54.3684 17.7658C54.5583 17.9759 55.221 17.6971 56.0373 17.6324C56.8495 17.5355 57.5566 17.6809 57.6981 17.4344C57.7587 17.3172 57.6375 17.099 57.3182 16.9091C57.0071 16.7192 56.4979 16.5818 55.9363 16.6343C55.3746 16.6909 54.9058 16.9253 54.6351 17.1758C54.3643 17.4264 54.2876 17.6607 54.3684 17.7658Z" fill="#263238"/>
    <path d="M57.5973 7.97439C57.173 8.85934 58.9065 10.4959 59.8359 10.8071C60.826 11.1424 61.9655 10.9566 62.4706 11.8011C63.0444 12.7588 61.8766 14.3024 63.8162 15.345C64.4264 15.6723 65.3235 14.9853 65.8367 15.4541C66.4711 16.0319 65.6427 17.0381 65.671 17.8948C65.7235 19.5596 68.7623 19.693 68.9643 21.3497C69.0896 22.3882 67.9258 23.3823 68.3339 24.3481C68.7501 25.334 70.4109 25.2532 70.8231 26.2392C71.3525 27.5121 69.2068 28.6072 69.4734 29.9608C69.7361 31.2943 71.9748 31.2943 72.4233 32.5793C72.8072 33.6785 71.5707 34.8786 71.9909 35.9656C72.4718 37.2021 74.565 37.0243 75.1266 38.2285C75.8055 39.6832 73.5022 41.3602 74.2861 42.7624C74.5488 43.2311 75.1469 43.3968 75.4984 43.8009C76.6379 45.1142 76.5329 47.967 75.357 49.1066C75.6237 49.1025 75.9025 49.0985 76.1975 49.0904C78.7634 49.046 81.1354 47.7205 82.5134 45.5587L83.2125 47.1791C85.4511 46.4679 87.1968 45.001 88.995 43.4938C89.8961 42.7341 91.1164 42.4714 92.2519 42.7826L92.7449 42.9159C94.2441 43.0291 96.212 42.2855 97.4606 41.4491C95.8079 41.1177 94.9189 39.3155 94.5108 37.6789C94.0986 36.0424 93.844 34.224 92.6115 33.0764C91.274 31.8358 88.9546 31.553 88.3403 29.8356C87.8554 28.4859 88.7525 26.9463 88.3201 25.5805C87.8797 24.1985 86.2593 23.5237 85.6329 22.2185C84.7803 20.4405 86.0128 18.0887 84.9298 16.4441C83.7499 14.654 80.598 14.9166 79.705 12.9689C79.212 11.89 79.612 10.4312 78.7594 9.60691C78.0805 8.94824 76.9168 9.05735 76.2015 8.43505C75.1509 7.52181 75.6641 5.65492 74.7508 4.60833C73.5184 3.19402 70.9888 4.43862 69.4048 3.43648C68.4067 2.80206 68.0753 1.44028 67.0893 0.785655C65.7518 -0.10334 63.9981 0.700797 62.4827 1.22611C61.3109 1.63424 60.0784 1.86861 58.9429 2.36968C57.8074 2.86671 56.7325 3.69509 56.3285 4.87099C55.9244 6.04689 56.4254 7.57838 57.5973 7.97439Z" fill="black"/>
    <path d="M95.2613 35.7517C95.2654 35.7476 95.3058 35.784 95.3785 35.8527C95.4553 35.9254 95.5644 36.0305 95.7058 36.176C95.8432 36.3214 96.017 36.5073 96.1827 36.7578C96.3483 37.0043 96.514 37.3155 96.5706 37.7074C96.6191 38.0954 96.514 38.5601 96.1948 38.9278C96.0372 39.1096 95.8069 39.2551 95.5402 39.2915C95.2735 39.3198 94.9866 39.247 94.7603 39.0611C94.3198 38.6732 94.1501 38.059 94.0814 37.4448C94.0369 36.8144 94.0652 36.1679 94.0935 35.4769C94.1258 34.7899 94.1905 34.0707 94.2875 33.3271C94.336 32.9554 94.3925 32.5755 94.4572 32.1916C94.5178 31.8118 94.5703 31.4198 94.5299 31.0319C94.4976 30.648 94.3319 30.2641 94.0006 30.054C93.6733 29.8398 93.249 29.8156 92.8287 29.8398C92.4044 29.8601 91.968 29.9328 91.5114 29.9045C91.0588 29.8883 90.5658 29.7025 90.2668 29.3105C89.9678 28.9226 89.8627 28.4336 89.8385 27.9608C89.8102 27.4881 89.8789 27.0031 89.9476 26.5425C90.0082 26.0778 90.0567 25.601 89.988 25.1363C89.9233 24.6756 89.7011 24.2392 89.3172 23.9684C88.9374 23.6856 88.4605 23.5361 87.9999 23.3138C87.5352 23.1037 87.0987 22.7441 86.8401 22.2794C86.3189 21.3378 86.3229 20.2347 86.3471 19.2002C86.3512 18.6789 86.3512 18.1617 86.2704 17.6606C86.1895 17.1636 86.0239 16.6827 85.7329 16.2867C85.1268 15.4947 84.1408 15.1432 83.2518 14.7391C82.7993 14.537 82.3467 14.3229 81.9466 14.0238C81.5466 13.7288 81.2233 13.3126 81.0657 12.8398C80.9162 12.363 80.9162 11.8822 80.8596 11.4296C80.8111 10.981 80.6818 10.5365 80.3586 10.2577C80.0393 9.97486 79.6029 9.86171 79.1746 9.7809C78.7462 9.69604 78.3017 9.63947 77.8896 9.46571C77.4693 9.30407 77.1218 8.96868 76.94 8.56863C76.7662 8.16858 76.7137 7.74429 76.6854 7.3402C76.6288 6.54011 76.649 5.73597 76.2773 5.10155C75.9176 4.46309 75.2872 4.06304 74.665 3.82059C74.0346 3.5741 73.388 3.48924 72.7738 3.45691C72.1596 3.42458 71.5777 3.43267 71.0282 3.41246C70.4826 3.39226 69.9694 3.34377 69.5128 3.23466C69.0522 3.1296 68.6521 2.9518 68.3208 2.75784C67.6459 2.36587 67.2701 1.85268 67.1166 1.48092C66.959 1.10512 66.959 0.882868 66.959 0.882868C66.9751 0.878827 66.9873 1.09703 67.157 1.46071C67.3227 1.82035 67.6985 2.3093 68.3652 2.6851C68.6966 2.87098 69.0885 3.03666 69.5411 3.13364C69.9937 3.23466 70.4988 3.27507 71.0403 3.29123C71.5818 3.3074 72.1677 3.29528 72.7859 3.31952C73.4042 3.34377 74.0709 3.42458 74.7256 3.67916C75.3681 3.92565 76.0348 4.33782 76.4227 5.01669C76.8268 5.70364 76.8026 6.53607 76.8632 7.32404C76.8915 7.72004 76.948 8.12413 77.1097 8.49185C77.2794 8.85149 77.5784 9.14244 77.9664 9.29195C78.3502 9.44954 78.7826 9.50612 79.219 9.59097C79.6514 9.67583 80.1242 9.78494 80.4959 10.1122C80.8758 10.4355 81.0132 10.9447 81.0657 11.4053C81.1263 11.8741 81.1263 12.3428 81.2678 12.7792C81.4132 13.2116 81.7001 13.5834 82.08 13.8662C82.4558 14.1491 82.8962 14.3592 83.3448 14.5572C83.7933 14.7552 84.258 14.9451 84.7065 15.1916C85.151 15.4341 85.5915 15.7412 85.9107 16.1695C86.23 16.5979 86.4078 17.1151 86.4886 17.6364C86.5734 18.1576 86.5734 18.687 86.5694 19.2123C86.5451 20.2468 86.5492 21.3136 87.0341 22.1824C87.2766 22.6107 87.6564 22.9259 88.1009 23.132C88.5413 23.3461 89.0303 23.4997 89.4505 23.8108C89.8789 24.1139 90.1375 24.619 90.2022 25.1161C90.2749 25.6171 90.2183 26.1061 90.1577 26.5789C90.089 27.0516 90.0203 27.5083 90.0486 27.9608C90.0688 28.4094 90.1698 28.862 90.4325 29.2014C90.6911 29.5449 91.1113 29.7065 91.5356 29.7267C91.964 29.755 92.3963 29.6863 92.8287 29.6661C93.2571 29.6418 93.7258 29.662 94.1097 29.9166C94.4976 30.1631 94.6835 30.6157 94.7158 31.0238C94.7562 31.44 94.6997 31.8441 94.635 32.228C94.5703 32.6119 94.5097 32.9877 94.4572 33.3554C94.3562 34.0949 94.2875 34.8101 94.2511 35.493C94.2188 36.1719 94.1824 36.8346 94.2228 37.4367C94.2834 38.0348 94.4491 38.6247 94.8411 38.9763C95.0391 39.142 95.2937 39.2107 95.5321 39.1905C95.7664 39.1622 95.9806 39.0369 96.1261 38.8672C96.4292 38.5318 96.5342 38.0873 96.4938 37.7236C96.4494 37.3519 96.2918 37.0407 96.1342 36.7982C95.9766 36.5518 95.8109 36.3618 95.6775 36.2123C95.5442 36.0709 95.4432 35.9577 95.3664 35.8769C95.2937 35.7921 95.2573 35.7517 95.2613 35.7517Z" fill="#263238"/>
    <path d="M79.6232 46.0962C79.6232 46.0922 79.6879 46.0639 79.8172 46.0114C79.9465 45.9588 80.1405 45.8821 80.3789 45.7568C80.6132 45.6315 80.9123 45.4537 81.1426 45.1426C81.3568 44.8395 81.5144 44.3425 81.284 43.902C81.1709 43.6838 80.9365 43.5424 80.6738 43.4616C80.4072 43.3767 80.1122 43.3403 79.8091 43.2393C79.6596 43.1868 79.502 43.11 79.3808 42.9807C79.2595 42.8554 79.1828 42.6817 79.1747 42.4958C79.1626 42.124 79.3646 41.8048 79.5343 41.4937C79.7202 41.1825 79.8616 40.8512 79.8859 40.4794C79.9142 40.1117 79.8495 39.7197 79.6758 39.3682C79.3363 38.665 78.4877 38.1761 77.627 38.2731L77.5422 38.2812L77.5341 38.1963C77.4775 37.5578 77.7685 36.9436 78.116 36.4102C78.4594 35.8647 78.8999 35.3717 79.1504 34.7615C79.2757 34.4625 79.3686 34.1352 79.3727 33.8079C79.3808 33.4806 79.2878 33.1533 79.0737 32.9027C78.6372 32.3855 77.8816 32.2683 77.2108 31.9572C76.8714 31.8077 76.5239 31.5612 76.3541 31.1854C76.1804 30.8096 76.2208 30.3772 76.3501 30.0135C76.5885 29.2781 77.0694 28.6194 77.0411 27.8718C77.0209 27.5082 76.8593 27.1566 76.6087 26.8697C76.3622 26.5788 76.0511 26.3403 75.7157 26.1343C75.0489 25.7261 74.2569 25.4513 73.6063 24.9099C73.2063 24.5866 72.8669 24.134 72.782 23.6087C72.681 23.0874 72.7941 22.5742 72.9275 22.1014C73.0608 21.6246 73.2305 21.168 73.3235 20.7033C73.376 20.473 73.3841 20.2426 73.376 20.0164C73.3437 19.7981 73.2952 19.5719 73.1618 19.3941C72.9315 19.0102 72.5032 18.8041 72.0748 18.6505C71.6465 18.4929 71.1859 18.3758 70.7737 18.1333C70.3534 17.8989 70.0382 17.4746 69.9574 17.0059C69.8645 16.5371 69.9493 16.0805 70.0342 15.6562C70.1231 15.2239 70.2322 14.8117 70.2847 14.3955C70.3373 13.9833 70.3292 13.5671 70.1837 13.2034C70.0342 12.8397 69.7513 12.5528 69.424 12.3427C69.0927 12.1366 68.729 11.9992 68.3613 11.8982C67.6258 11.7043 66.8621 11.6436 66.1711 11.3891C65.8276 11.2638 65.5003 11.09 65.2336 10.8516C64.9629 10.6173 64.7649 10.3223 64.6073 10.0273C64.2961 9.42923 64.1305 8.81906 63.8799 8.2897C63.6415 7.75227 63.2859 7.31585 62.8697 7.01279C62.0333 6.39453 61.0634 6.29755 60.3644 6.46727C59.6491 6.63294 59.1723 6.98046 58.8894 7.23907C58.6066 7.50173 58.4975 7.67953 58.4854 7.67145C58.4854 7.67145 58.5823 7.48557 58.8571 7.21079C59.1319 6.94005 59.6128 6.57233 60.3401 6.39049C61.0554 6.20461 62.0615 6.28947 62.9344 6.91984C63.3708 7.22695 63.7466 7.68761 63.9971 8.23313C64.2598 8.77461 64.4335 9.38478 64.7366 9.95859C64.8902 10.2415 65.0801 10.5203 65.3346 10.7344C65.5852 10.9567 65.8923 11.1183 66.2277 11.2355C66.8944 11.478 67.646 11.5345 68.4098 11.7285C68.7896 11.8295 69.1695 11.971 69.5251 12.1892C69.8726 12.4074 70.1918 12.7226 70.3615 13.1307C70.5272 13.5388 70.5353 13.9874 70.4827 14.4157C70.4302 14.8481 70.3211 15.2683 70.2322 15.6926C70.1473 16.1129 70.0706 16.5533 70.1595 16.9655C70.2362 17.3817 70.5029 17.7454 70.8828 17.9595C71.2626 18.1818 71.7112 18.2949 72.1516 18.4566C72.588 18.6142 73.0689 18.8364 73.3437 19.2809C73.4932 19.491 73.5538 19.7456 73.5902 19.9961C73.6023 20.2467 73.5902 20.5013 73.5336 20.7437C73.4366 21.2286 73.2669 21.6893 73.1376 22.158C73.0083 22.6227 72.9073 23.1076 72.9962 23.5723C73.0689 24.0411 73.372 24.4411 73.7478 24.7482C74.366 25.2614 75.1338 25.5322 75.8329 25.9565C76.1763 26.1706 76.5077 26.4171 76.7744 26.7363C77.0451 27.0435 77.231 27.4435 77.2512 27.8638C77.2714 28.7164 76.7623 29.3872 76.5441 30.0822C76.4228 30.4297 76.3946 30.7934 76.54 31.1086C76.6855 31.4197 76.9724 31.6379 77.2957 31.7834C77.6189 31.9329 77.9665 32.038 78.3059 32.1754C78.6413 32.3087 78.9807 32.4906 79.2272 32.7815C79.4737 33.0684 79.5788 33.4523 79.5707 33.8119C79.5626 34.1756 79.4616 34.5191 79.3282 34.8343C79.0615 35.4768 78.609 35.9778 78.2736 36.5072C77.9301 37.0285 77.6634 37.6023 77.7119 38.1842L77.6189 38.1074C78.5564 38.0064 79.4575 38.5398 79.8212 39.3035C80.2011 40.0632 80.0718 40.9643 79.6596 41.5664C79.4858 41.8775 79.2999 42.1846 79.308 42.4958C79.3161 42.815 79.5707 43.0454 79.8535 43.1343C80.1364 43.2353 80.4354 43.2757 80.7102 43.3646C80.985 43.4535 81.2477 43.6111 81.3689 43.8616C81.4982 44.1041 81.5063 44.3667 81.4618 44.5971C81.4214 44.8274 81.3204 45.0294 81.2032 45.1951C80.9527 45.5184 80.6456 45.6881 80.4031 45.8093C79.9061 46.0275 79.6232 46.0962 79.6232 46.0962Z" fill="#455A64"/>
    <path d="M91.1237 42.3508C91.1116 42.3427 91.2691 42.1811 91.4187 41.7931C91.548 41.4133 91.653 40.7546 91.3055 40.0434C91.1398 39.6878 90.8368 39.3646 90.4125 39.1383C90.2064 39.017 89.9801 38.8999 89.7659 38.7342C89.5558 38.5725 89.3619 38.3261 89.3214 38.023C89.2366 37.4128 89.6568 36.8673 89.6488 36.2571C89.6366 35.9581 89.4871 35.6631 89.2245 35.4732C88.9659 35.2752 88.6466 35.1418 88.3233 35.0004C88.0001 34.859 87.6526 34.7175 87.3535 34.4711C87.0464 34.2326 86.8282 33.8568 86.7716 33.4608C86.6464 32.6567 86.901 31.8606 86.9131 31.0444C86.9212 30.6403 86.8565 30.22 86.6221 29.8846C86.3837 29.5533 86.0039 29.3391 85.5998 29.1775C85.1957 29.0078 84.7552 28.8825 84.3431 28.6522C83.9269 28.438 83.5591 28.0218 83.4824 27.5207C83.3975 27.0277 83.5066 26.5469 83.5551 26.0781C83.6076 25.6134 83.5996 25.1164 83.3005 24.7648C83.0055 24.4092 82.5287 24.2476 82.064 24.0658C81.6034 23.892 81.0821 23.6738 80.775 23.201C80.4679 22.7363 80.4396 22.1625 80.5042 21.6412C80.5649 21.1119 80.7426 20.6027 80.8922 20.1057C81.0336 19.6046 81.1548 19.0874 81.0942 18.5782C81.0376 18.0731 80.7426 17.6125 80.3184 17.3296C79.8819 17.0548 79.3566 16.9215 78.8394 16.8164C78.3181 16.7114 77.7888 16.6305 77.2756 16.477C76.7664 16.3234 76.2451 16.1012 75.8734 15.7011C75.4935 15.3173 75.243 14.8323 75.0733 14.3434C74.7541 13.3493 74.6692 12.3432 74.4672 11.3936C74.3581 10.9208 74.2287 10.4561 74.0065 10.0439C73.7802 9.63577 73.461 9.30038 73.0731 9.07005C72.2649 8.63767 71.3153 8.75486 70.4384 8.79527C69.9939 8.81547 69.5454 8.82759 69.1089 8.75486C68.6725 8.68212 68.2523 8.5124 67.9088 8.24975C67.2259 7.70827 66.842 6.96879 66.3975 6.35053C66.1753 6.03938 65.9449 5.74036 65.6702 5.50194C65.3994 5.25949 65.0963 5.06553 64.7852 4.91198C63.5164 4.30988 62.1546 4.3705 61.0999 4.69781C60.0331 5.03724 59.2209 5.59893 58.6188 6.1C58.0127 6.60915 57.6005 7.06577 57.3257 7.38096C57.1964 7.53451 57.0954 7.6517 57.0186 7.74059C56.9499 7.82141 56.9136 7.86182 56.9095 7.86182C56.9055 7.85778 56.9378 7.81333 57.0025 7.72847C57.0631 7.63957 57.1641 7.5143 57.2934 7.35267C57.5601 7.0294 57.9642 6.56066 58.5663 6.03938C59.1684 5.52619 59.9806 4.9443 61.0676 4.5887C62.1425 4.24523 63.5325 4.16845 64.8499 4.78267C65.1731 4.94026 65.4883 5.14231 65.7752 5.3888C66.0621 5.63529 66.3046 5.9424 66.5309 6.25759C66.9834 6.88393 67.3714 7.61129 68.0179 8.11236C68.3412 8.35481 68.7291 8.5124 69.1413 8.57706C69.5575 8.64575 69.9899 8.63363 70.4303 8.61343C70.8708 8.58918 71.3233 8.55281 71.788 8.56898C72.2487 8.58514 72.7336 8.67 73.17 8.90437C73.5943 9.15086 73.9459 9.51858 74.1843 9.955C74.4187 10.3914 74.552 10.8723 74.6652 11.3531C74.8753 12.3189 74.9601 13.3251 75.2713 14.2828C75.437 14.7556 75.6713 15.2041 76.0229 15.5597C76.3664 15.9274 76.8432 16.1335 77.3362 16.283C77.8332 16.4285 78.3545 16.5093 78.8838 16.6144C79.4092 16.7235 79.9506 16.8528 80.4355 17.1559C80.9124 17.467 81.2478 17.9964 81.3043 18.558C81.369 19.1197 81.2397 19.6572 81.0942 20.1663C80.9447 20.6755 80.7709 21.1644 80.7144 21.6695C80.6497 22.1666 80.6861 22.6878 80.9528 23.0879C81.2114 23.496 81.6801 23.6981 82.1408 23.8758C82.5974 24.0577 83.1106 24.2193 83.4581 24.6355C83.6278 24.8416 83.7248 25.0962 83.7612 25.3508C83.7976 25.6053 83.7814 25.8559 83.7531 26.0983C83.7046 26.5792 83.5996 27.0479 83.6763 27.4884C83.745 27.9289 84.0481 28.2804 84.436 28.4865C84.8199 28.7047 85.2563 28.83 85.6685 29.0078C86.0807 29.1775 86.4969 29.4038 86.7676 29.7836C87.0343 30.1635 87.099 30.6282 87.0868 31.0484C87.0666 31.897 86.8121 32.689 86.9292 33.4366C86.9818 33.8043 87.1717 34.1357 87.4505 34.3539C87.7253 34.5802 88.0607 34.7256 88.3799 34.8671C88.7032 35.0085 89.0305 35.1459 89.3093 35.3641C89.5962 35.5702 89.774 35.9177 89.7821 36.2571C89.7781 36.936 89.3578 37.4653 89.4386 38.0109C89.471 38.2776 89.6366 38.4958 89.8346 38.6534C90.0326 38.811 90.2549 38.9322 90.465 39.0575C90.8933 39.2918 91.2166 39.6474 91.3783 40.0151C91.7258 40.7587 91.6045 41.4335 91.4591 41.8174C91.2934 42.2013 91.1237 42.3508 91.1237 42.3508Z" fill="#455A64"/>
    <path d="M64.4096 28.8137C64.4904 28.8339 64.5227 29.0723 64.4096 29.436C64.2964 29.7956 64.0136 30.2643 63.5367 30.6159C63.0599 30.9675 62.5265 31.1008 62.1507 31.1048C61.7709 31.1089 61.5527 31.0079 61.5567 30.923C61.5648 30.7452 62.4053 30.6806 63.1609 30.1108C63.9287 29.5491 64.2358 28.7652 64.4096 28.8137Z" fill="#263238"/>
    <path d="M38.8714 56.2754C38.6653 55.6612 38.8876 54.954 39.3361 54.4853C39.7846 54.0166 40.4312 53.7741 41.0737 53.7175C41.6394 53.665 42.2253 53.7539 42.7304 54.0206C43.2315 54.2873 43.6437 54.7439 43.7972 55.2935C43.9952 55.9804 43.7649 56.7522 43.284 57.2776C42.8032 57.8029 42.096 58.0979 41.3848 58.1504C40.7868 58.1948 40.1524 58.0655 39.6957 57.6816C39.231 57.2937 38.8593 56.7482 38.8714 56.2754Z" fill="#2E2E2E"/>
    <path d="M32.8219 58.5346C30.4297 59.165 27.8031 56.6637 27.0798 54.9584C27.003 54.7766 26.9424 54.5584 27.0515 54.3967C27.1687 54.223 27.4111 54.2068 27.6213 54.2189C28.8255 54.2876 30.0054 54.7523 30.9348 55.5201C31.8602 56.2919 32.535 57.3627 32.8219 58.5346Z" fill="black"/>
    <path d="M29.9847 57.4229C29.7786 56.8087 30.0008 56.1015 30.4494 55.6328C30.8979 55.164 31.5445 54.9216 32.187 54.865C32.7527 54.8125 33.3386 54.9014 33.8437 55.1681C34.3448 55.4348 34.757 55.8914 34.9105 56.4409C35.1085 57.1279 34.8782 57.8997 34.3973 58.425C33.9165 58.9503 33.2093 59.2453 32.4981 59.2978C31.9001 59.3423 31.2656 59.213 30.809 58.8291C30.3443 58.4412 29.9726 57.8957 29.9847 57.4229Z" fill="#2E2E2E"/>
    <path d="M42.5685 56.942C42.4877 55.6772 43.2353 54.0609 43.898 52.9779C44.5607 51.8949 45.5588 51.0221 46.7226 50.517C46.8034 50.4806 46.8963 50.4483 46.9771 50.4766C47.066 50.5089 47.1145 50.6019 47.1509 50.6867C47.7853 52.1172 47.5954 53.879 46.67 55.1398C45.7447 56.4046 44.1202 57.1158 42.5685 56.942Z" fill="black"/>
    <path d="M51.2401 54.065C51.6603 53.4588 52.0806 52.8527 52.3796 52.1779C52.6786 51.5071 52.8524 50.7595 52.7554 50.0322C52.7392 49.9231 52.711 49.8018 52.618 49.7453C52.5251 49.6887 52.4079 49.717 52.3069 49.7493C50.9693 50.1615 49.7692 51.006 48.9246 52.1213C48.0801 53.2366 47.5992 54.6226 47.5629 56.0248L47.5225 56.3925C48.7549 57.0108 50.0803 57.0471 51.4058 56.6592C52.4362 56.3561 53.4464 55.9318 54.2788 55.253C55.1112 54.5741 55.7457 53.6164 55.879 52.5496C54.2101 52.3355 52.4604 52.9052 51.2401 54.065Z" fill="black"/>
    <path d="M35.9455 53.1353C34.713 52.0605 33.0845 51.5473 31.4682 51.3008C31.3995 52.9212 32.0056 54.5577 33.1088 55.7458C34.2119 56.9338 35.804 57.6531 37.4244 57.6975L37.5052 57.5157C37.9295 55.9357 37.1739 54.2102 35.9455 53.1353Z" fill="black"/>
    <path d="M27.8154 57.4073C27.8154 57.4073 30.6279 67.1014 36.2568 70.5402C43.5951 75.0256 54.6267 69.0532 55.5642 66.7094C56.5017 64.3657 58.1423 54.8252 58.1423 54.8252L27.8154 57.4073Z" fill="#E0E0E0"/>
    <path d="M27.8151 57.4072C27.811 57.4072 27.8595 57.3991 27.9565 57.391C28.0615 57.3789 28.203 57.3668 28.3889 57.3466C28.7808 57.3102 29.3465 57.2577 30.0779 57.189C31.565 57.0556 33.7147 56.8617 36.406 56.6233C41.8288 56.1505 49.4176 55.4878 58.1419 54.724L58.2752 54.7119L58.251 54.8412C57.7338 57.7749 57.164 60.8783 56.4326 64.0464C56.271 64.7171 56.1134 65.3798 55.9073 66.0345C55.8628 66.2001 55.8022 66.3618 55.7456 66.5234C55.7174 66.6042 55.6931 66.6851 55.6567 66.7659C55.6163 66.8467 55.5759 66.9275 55.5315 67.0043C55.3416 67.3033 55.1031 67.5498 54.8607 67.7882C53.8585 68.7095 52.7029 69.3803 51.5431 69.9743C50.3793 70.5562 49.1832 71.029 47.9871 71.3886C46.787 71.7523 45.5869 72.015 44.3948 72.1443C42.0188 72.415 39.6791 72.1847 37.7031 71.3604C35.7069 70.5562 34.2118 69.1419 33.0642 67.7599C31.9125 66.3658 31.0639 64.9556 30.3891 63.6948C29.7143 62.43 29.2253 61.2945 28.8455 60.3611C28.4656 59.4276 28.2151 58.6841 28.0494 58.179C27.9686 57.9285 27.908 57.7345 27.8716 57.6011C27.8272 57.4759 27.811 57.4031 27.8151 57.4072C27.8191 57.4112 27.8393 57.4718 27.8837 57.6011C27.9322 57.7385 27.9969 57.9285 28.0818 58.1709C28.2596 58.6679 28.5222 59.4074 28.9142 60.3328C29.3061 61.2581 29.8032 62.3856 30.4861 63.6423C31.173 64.8949 32.0216 66.289 33.1733 67.667C34.3209 69.0288 35.7958 70.4148 37.7637 71.1987C39.7114 72.0029 42.0188 72.2251 44.3665 71.9503C46.7183 71.6756 49.1388 70.9361 51.4461 69.7885C52.5897 69.2025 53.7373 68.5317 54.7112 67.6347C54.9455 67.4043 55.1759 67.1659 55.3496 66.8952L55.4587 66.6851C55.4911 66.6123 55.5153 66.5275 55.5436 66.4507C55.6002 66.2931 55.6567 66.1355 55.7012 65.9739C55.9032 65.3314 56.0608 64.6646 56.2225 63.9979C56.9539 60.8379 57.5236 57.7345 58.0449 54.8049L58.154 54.922C49.4621 55.6413 41.8935 56.2677 36.4908 56.7162C33.7875 56.9344 31.6296 57.1082 30.1345 57.2294C29.395 57.286 28.8212 57.3304 28.4212 57.3627C28.2313 57.3749 28.0818 57.387 27.9726 57.3951C27.8716 57.4072 27.8151 57.4072 27.8151 57.4072Z" fill="#263238"/>
    <path d="M35.2464 68.4346C35.2343 68.4467 35.113 68.3376 34.9029 68.1315C34.6888 67.9295 34.3938 67.6183 34.0422 67.2304C33.3351 66.4505 32.4137 65.315 31.5247 63.9694C30.6357 62.6238 29.9488 61.3348 29.5083 60.3771C29.2861 59.9003 29.1164 59.5083 29.0154 59.2295C28.9103 58.9547 28.8578 58.8011 28.8699 58.7931C28.882 58.789 28.9628 58.9304 29.0881 59.1971C29.2174 59.4638 29.4033 59.8437 29.6417 60.3124C30.1185 61.2499 30.8176 62.5188 31.6985 63.8522C32.5835 65.1857 33.4765 66.3253 34.1513 67.1294C34.4867 67.5294 34.7655 67.8527 34.9595 68.075C35.1575 68.2972 35.2585 68.4265 35.2464 68.4346Z" fill="white"/>
    <path d="M56.5656 56.4527C56.5656 56.4608 56.4686 56.4769 56.2868 56.5052C56.0807 56.5335 55.814 56.5699 55.4827 56.6184C54.7836 56.7113 53.7693 56.8325 52.5126 56.974C50.0032 57.2568 46.5281 57.6003 42.6852 57.8953C38.8383 58.1903 35.355 58.3761 32.8295 58.4772C31.5687 58.5297 30.5464 58.562 29.8392 58.5742C29.5038 58.5782 29.2331 58.5822 29.027 58.5863C28.8411 58.5863 28.7441 58.5822 28.7441 58.5782C28.7441 58.5701 28.8411 58.562 29.027 58.5459C29.2331 58.5337 29.5038 58.5176 29.8392 58.4933C30.5706 58.4529 31.5808 58.3964 32.8254 58.3277C35.3469 58.1862 38.8302 57.9761 42.6731 57.6852C46.5159 57.3902 49.9871 57.0709 52.5005 56.8285C53.741 56.7073 54.7513 56.6103 55.4786 56.5375C55.814 56.5093 56.0807 56.485 56.2908 56.4648C56.4686 56.4527 56.5656 56.4486 56.5656 56.4527Z" fill="white"/>
    <path d="M84.6953 67.5892L82.6628 78.0672L61.8482 67.0234L57.1729 71.9533C57.1729 71.9533 76.9974 90.0807 81.1515 93.3943C85.2651 96.6754 90.9587 92.8811 92.6155 86.7349C94.2722 80.5887 96.4624 72.6403 97.0887 67.4801L84.6953 67.5892Z" fill="#F5A784"/>
    <path d="M63.6461 68.2963C63.6461 68.2963 57.6293 63.7301 55.4876 64.1988C54.6309 64.3847 54.045 64.5989 53.6449 64.7928C52.9378 65.1363 52.17 65.3343 51.382 65.3383C50.5941 65.3424 49.596 65.3343 48.6302 65.2898C46.7795 65.209 46.2259 65.698 46.0642 66.4051C45.9107 67.088 46.3956 67.7507 47.0947 67.8033C48.2261 67.8962 49.9354 68.0619 50.6507 68.2963C51.7659 68.664 50.4648 68.4337 49.0707 69.3388C47.6766 70.244 41.9991 70.4299 41.9991 70.4299L38.9119 68.0659C38.0673 67.4194 36.9036 68.3124 37.3238 69.2863C37.3319 69.3024 37.34 69.3186 37.344 69.3348L37.0652 69.0479C36.3863 68.3528 35.2347 69.1368 35.6509 70.0136C35.659 70.0258 35.663 70.0379 35.6711 70.0541L38.1845 72.4745L41.9991 74.0545L48.6019 73.4039C48.6019 73.4039 53.4389 71.6381 54.3683 71.3593C55.2977 71.0804 58.3728 71.9573 60.7327 74.592L63.6461 68.2963Z" fill="#F5A784"/>
    <path d="M87.6858 87.1869C87.6534 87.195 87.4756 86.6212 87.1362 85.716C86.7968 84.8109 86.2755 83.5824 85.5683 82.2893C84.8612 80.9963 84.1055 79.8931 83.5237 79.1213C82.9458 78.3454 82.5579 77.8888 82.5821 77.8686C82.5943 77.8605 82.6993 77.9616 82.8892 78.1596C83.0792 78.3535 83.3378 78.6525 83.6408 79.0283C84.2551 79.784 85.0349 80.8831 85.7502 82.1883C86.4614 83.4935 86.9705 84.7462 87.2736 85.6675C87.4272 86.1282 87.5363 86.508 87.6009 86.7707C87.6696 87.0333 87.7019 87.1829 87.6858 87.1869Z" fill="black"/>
    <path d="M48.6741 73.4004C48.6741 73.4165 48.4761 73.4489 48.1124 73.4933C47.7487 73.5378 47.2234 73.5984 46.5688 73.659C45.2676 73.7923 43.4533 73.9014 41.4571 73.9863C40.956 74.0105 40.4549 74.0146 39.9781 73.9095C39.5013 73.7923 39.081 73.5862 38.7133 73.3438C37.9738 72.8548 37.4445 72.2608 37.0161 71.7678C36.5918 71.2668 36.2686 70.8465 36.0423 70.5596C35.816 70.2687 35.6948 70.1111 35.7069 70.099C35.715 70.0909 35.8604 70.2323 36.1069 70.5071C36.3736 70.8102 36.7211 71.2021 37.1333 71.6709C37.5738 72.1477 38.1112 72.7215 38.8264 73.1822C39.182 73.4125 39.5902 73.6064 40.0306 73.7075C40.4751 73.8044 40.96 73.8044 41.4571 73.7762C43.4573 73.6953 45.2595 73.6105 46.5647 73.5135C47.187 73.4731 47.7083 73.4408 48.1124 73.4125C48.468 73.3882 48.6741 73.3842 48.6741 73.4004Z" fill="black"/>
    <path d="M47.0542 73.2426C47.0542 73.2548 46.9168 73.2669 46.6663 73.2709C46.3713 73.275 46.0197 73.275 45.6035 73.279C44.7024 73.279 43.4416 73.2628 42.0273 73.2345H42.0152L42.0031 73.2305C41.801 73.1861 41.5828 73.1376 41.3646 73.077C40.9807 72.9719 40.609 72.8426 40.2776 72.6486C39.9463 72.4587 39.6594 72.2162 39.4371 71.9495C39.0048 71.4202 38.629 70.9393 38.3218 70.5272C38.0147 70.115 37.7763 69.7715 37.6228 69.5291C37.4692 69.2866 37.3924 69.1452 37.4046 69.1371C37.4167 69.129 37.5137 69.2543 37.6915 69.4806C37.8652 69.7069 38.1198 70.0382 38.4431 70.4342C38.7785 70.8423 39.1664 71.3111 39.5907 71.8243C40.019 72.3334 40.6777 72.685 41.4252 72.8749C41.6394 72.9315 41.8495 72.98 42.0516 73.0285L42.0314 73.0244C43.4497 73.0567 44.7064 73.0972 45.6076 73.1376C46.0238 73.1578 46.3753 73.178 46.6703 73.1941C46.9168 73.2103 47.0542 73.2265 47.0542 73.2426Z" fill="black"/>
    <path d="M54.7082 69.0154C54.692 69.0761 53.9081 68.87 52.9221 68.7407C51.9402 68.6033 51.1279 68.5952 51.1279 68.5305C51.1239 68.478 51.9482 68.3931 52.9504 68.5305C53.9566 68.6639 54.7284 68.9629 54.7082 69.0154Z" fill="black"/>
    <path d="M80.5131 13.3534C80.5131 13.3656 80.3959 13.3858 80.1858 13.3575C79.9797 13.3292 79.6726 13.2403 79.3614 13.014C79.0543 12.7958 78.7351 12.424 78.6058 11.923C78.4724 11.434 78.4967 10.8804 78.3229 10.3753C78.238 10.1248 78.0764 9.92273 77.8703 9.79746C77.6602 9.67219 77.4177 9.61158 77.1793 9.55501C76.945 9.49439 76.7106 9.42974 76.5086 9.32064C76.3065 9.20749 76.1489 9.0499 76.0398 8.8923C75.8216 8.57307 75.7408 8.27809 75.6802 8.08008C75.6276 7.87804 75.6074 7.7649 75.6236 7.76085C75.6398 7.75681 75.6842 7.86188 75.761 8.0518C75.8418 8.23768 75.9469 8.52054 76.161 8.8034C76.2701 8.94079 76.4116 9.07414 76.5934 9.16304C76.7752 9.25598 76.9935 9.30851 77.2319 9.36509C77.4662 9.42166 77.7289 9.47419 77.9794 9.61966C78.23 9.76513 78.428 10.0197 78.5249 10.3026C78.7149 10.8723 78.6785 11.4179 78.7997 11.8704C78.9088 12.323 79.1796 12.6705 79.4544 12.8887C80.0282 13.3413 80.5292 13.309 80.5131 13.3534Z" fill="#455A64"/>
    <path d="M88.0775 6.66912C88.0816 6.66508 88.1341 6.72974 88.1786 6.87521C88.223 7.02068 88.2513 7.25505 88.1543 7.53387C88.0654 7.80057 87.823 8.14 87.4027 8.23295C87.0027 8.32993 86.4612 8.19658 86.1622 7.73996L86.3157 7.72379C86.1217 8.33397 85.5924 8.91586 84.861 9.15831C84.4973 9.28358 84.0851 9.30782 83.6851 9.21084C83.2891 9.10982 82.9133 8.89565 82.6102 8.59258C82.291 8.27335 82.0728 7.86523 81.992 7.44901L82.1617 7.50963C81.4626 8.10768 80.6423 8.45519 79.8826 8.59258C79.1189 8.73806 78.4198 8.69361 77.8622 8.56834C77.3005 8.44711 76.8762 8.25719 76.6055 8.0996C76.464 8.02686 76.3711 7.95008 76.3024 7.90563C76.2337 7.85714 76.2014 7.8329 76.2054 7.82482C76.2256 7.78037 76.7833 8.22486 77.8864 8.43499C78.4319 8.53601 79.1108 8.5643 79.8462 8.41074C80.5776 8.26527 81.3575 7.92584 82.0243 7.35203L82.1617 7.23485L82.198 7.41265C82.2708 7.78845 82.4688 8.15617 82.7597 8.44711C83.0345 8.72189 83.378 8.91586 83.7336 9.01284C84.0932 9.10174 84.465 9.08153 84.7963 8.97243C85.4671 8.75422 85.9642 8.2289 86.15 7.6753L86.2106 7.50155L86.3076 7.65914C86.542 8.04302 87.0188 8.18445 87.3704 8.10768C87.7381 8.03898 87.9644 7.75208 88.0614 7.50963C88.1624 7.25909 88.1543 7.03684 88.126 6.89541C88.1018 6.7459 88.0654 6.67316 88.0775 6.66912Z" fill="#455A64"/>
    <path d="M84.3715 2.45457C84.3715 2.44648 84.4402 2.45457 84.521 2.54346C84.5978 2.62428 84.6827 2.794 84.6422 3.01625C84.6018 3.2385 84.3917 3.46075 84.1008 3.54156C83.8058 3.63046 83.4623 3.56177 83.135 3.44862L83.2522 3.3274C83.531 3.94969 83.1431 4.77807 82.4561 5.14175C81.8985 5.43674 81.3004 5.47311 80.7832 5.49331C80.27 5.50947 79.7811 5.49331 79.4012 5.35188C79.0173 5.21449 78.7668 4.97204 78.6496 4.78212C78.5284 4.58815 78.5203 4.45884 78.5324 4.45884C78.5486 4.45076 78.585 4.57199 78.7143 4.73767C78.8436 4.90334 79.086 5.10539 79.4457 5.21449C79.8053 5.32763 80.2619 5.33168 80.7751 5.30339C81.2802 5.2751 81.85 5.23065 82.3511 4.95991C82.9612 4.64068 83.2966 3.90928 83.0744 3.40417L82.9855 3.20213L83.1916 3.28295C83.5027 3.40417 83.8017 3.46883 84.0523 3.40417C84.3028 3.3476 84.4846 3.17384 84.5291 3.00008C84.5776 2.82229 84.5251 2.66873 84.4685 2.58791C84.42 2.49497 84.3634 2.46669 84.3715 2.45457Z" fill="#455A64"/>
    <path d="M8.77517 16.0824C8.58381 15.8042 8.11444 15.9941 8.21877 16.3268C9.26683 19.771 11.2475 23.0469 12.9716 26.1892C14.8576 29.6455 16.8103 33.0426 18.9449 36.3432C19.0772 36.5546 19.388 36.3601 19.2806 36.1332C17.5424 32.7748 15.742 29.4553 14.0162 26.0891C12.3169 22.7929 10.8552 19.1577 8.77517 16.0824Z" fill="black"/>
    <path d="M20.7916 9.46346C18.9907 13.7736 19.4614 18.8939 20.5908 23.3253C20.7185 23.8335 21.4335 23.5937 21.3462 23.0948C20.5913 18.5156 21.1439 14.1735 21.3373 9.58908C21.3698 9.30925 20.9049 9.20224 20.7916 9.46346Z" fill="black"/>
    <path d="M34.1162 6.67812C32.1453 9.97012 30.7109 13.7049 29.2376 17.2391C29.0668 17.6573 29.6235 17.9664 29.8627 17.5745C31.8383 14.2623 33.8572 10.7154 34.9776 7.0041C35.1312 6.47548 34.3725 6.25826 34.1162 6.67812Z" fill="black"/>
  </g>
 
</svg>





