<svg width="231" height="232" viewBox="0 0 231 232" fill="none" xmlns="http://www.w3.org/2000/svg">
<rect width="231" height="232" fill="#C2BBBB"/>
<g id="Desktop - 2" clip-path="url(#clip0_0_1)">
<rect width="1440" height="4063" transform="translate(-70 -1067)" fill="white"/>
<rect id="Rectangle 41981" x="-70" y="-156" width="1440" height="540" fill="white"/>
<rect id="Rectangle 41972" x="-70" y="-156" width="1440" height="540" fill="url(#paint0_linear_0_1)"/>
<g id="about/us">
</g>
<g id="Frame 1171275611">
<g id="offering">
<g id="7/offering/illustration">
<g id="yoga">
<circle id="Ellipse 15" cx="115.099" cy="116" r="115.099" fill="white"/>
<g id="yoga_2">
<path id="Vector" opacity="0.2" d="M22.7893 150.643C22.0328 148.303 21.3044 145.838 21.7947 143.442C22.299 140.977 24.0221 138.945 25.0868 136.662C28.575 129.139 24.4704 120.565 23.2516 112.398C21.4024 100.07 26.8379 86.9299 36.9524 79.337C47.0669 71.7441 61.4261 70.007 73.1236 74.9522C82.1734 78.7766 89.5561 86.2154 99.1663 88.4008C105.316 89.8017 111.732 88.8771 118.036 88.695C127.226 88.4288 136.612 89.7877 144.822 93.8363C153.031 97.8709 159.993 104.777 162.865 113.323C165.205 120.257 164.826 127.906 167.67 134.658C171.957 144.857 182.464 150.881 191.64 157.283C197.495 161.374 203.575 166.921 203.365 173.968C203.183 179.753 198.518 184.208 193.377 186.394C186.821 189.181 180.587 188.089 173.638 188.187C150.972 188.509 128.305 188.817 105.638 189.139C103.285 189.167 100.861 189.195 98.676 188.355C96.9949 187.71 95.566 186.604 94.067 185.637C89.6542 182.793 85.9278 182.205 80.9266 181.729C75.6732 181.224 70.644 179.431 65.2926 179.123C56.3689 178.605 45.1196 177.932 37.2886 173.351C29.1074 168.532 25.5211 159.09 22.7893 150.643Z" fill="url(#paint1_linear_0_1)"/>
<path id="Vector_2" d="M94.7113 127.135C92.1756 134.49 84.3166 145.767 84.3166 145.767L57.3213 134.56C57.3913 133.594 56.0465 128.228 56.2846 126.323C56.2986 126.155 56.3407 126.015 56.3827 125.917C56.4667 125.707 56.5648 125.482 56.6629 125.272C57.1112 124.278 57.5875 123.353 57.9377 122.681C58.3019 121.994 58.5541 121.574 58.5541 121.574C58.5541 121.574 57.9097 120.229 55.9344 119.276C54.7997 118.716 53.2167 118.296 51.0733 118.296C50.9332 118.296 50.8071 118.296 50.695 118.282C48.4256 118.142 49.2521 116.517 50.8772 114.794C52.7964 112.706 55.8223 110.451 55.8223 110.451L62.7708 114.948C63.163 115.158 63.8495 114.653 64.5499 113.813C65.2083 113.042 65.8948 111.978 66.4411 110.871C66.8054 110.157 67.0856 109.414 67.2677 108.756C67.4918 107.915 71.0361 110.213 75.5049 113.435C80.1139 116.755 85.7315 121.07 89.7801 123.969C92.1056 125.636 93.9128 126.841 94.7113 127.135Z" fill="#F5A784"/>
<path id="Vector_3" d="M192.957 186.422C192.312 190.246 185.742 186.1 184.187 185.161C183.248 184.587 182.408 184.237 181.371 183.872C181.189 183.802 179.27 183.004 179.13 183.172C179.13 183.172 177.098 182.724 173.89 181.883C168.539 180.482 159.881 177.975 152.008 174.654C139.428 169.345 131.345 167.006 125.209 166.011C124.397 165.885 123.402 165.689 122.253 165.465C114.744 163.966 101.058 160.379 94.1372 155.014C89.9205 151.75 86.8105 148.584 84.8072 146.342C83.0281 144.339 82.1455 143.064 82.1455 143.064C82.1455 143.064 83.3923 142.742 85.0594 140.963C86.3482 139.562 87.9452 137.279 89.3041 133.496C89.3601 133.342 89.4022 133.23 89.4302 133.132C89.4302 133.132 89.8925 133.286 90.649 133.566C94.0672 134.841 103.579 138.651 103.845 141.817C103.845 141.817 103.859 141.831 103.915 141.859C105.162 142.406 129.398 153.207 129.468 153.249C134.315 155.49 179.046 178.143 179.83 178.549C182.324 179.88 185.154 180.65 187.787 181.701C189.44 182.331 193.349 184.026 192.957 186.422Z" fill="#F5A784"/>
<g id="Group">
<path id="Vector_4" d="M75.4766 58.6185C75.4766 58.6185 74.6501 56.1529 74.9302 53.6312C75.1264 51.8661 74.9583 47.9576 74.2298 46.8789C74.2298 46.8789 74.0477 46.7108 73.7115 46.5287C73.6694 46.5007 73.6134 46.4727 73.5574 46.4586C73.2492 46.3045 72.8569 46.1645 72.3806 46.1364C72.3526 46.1364 72.3106 46.1224 72.2685 46.1224C71.9323 46.1084 71.5401 46.1364 71.1338 46.2625C71.1058 46.2765 71.0638 46.2905 71.0357 46.2905C70.7275 46.3886 70.3913 46.5287 70.0551 46.7388C70.0551 46.7388 70.4193 50.6894 70.0691 51.9782C70.0691 51.9782 69.2286 49.6807 68.4721 49.5686L67.9678 49.7648C67.9678 49.7648 68.5842 52.3424 68.7523 53.5192C69.1725 56.377 71.386 58.2682 71.386 58.2682C71.386 58.2682 74.608 60.5097 75.4766 58.6185Z" fill="#F5A784"/>
<path id="Vector_5" d="M71.1198 46.248C71.0918 46.2621 71.0497 46.276 71.0217 46.276C71.3299 48.0272 71.3439 49.7783 71.414 51.5714C71.414 51.5995 71.47 51.6135 71.484 51.5714C71.8483 49.8203 71.5541 47.9992 71.1198 46.248Z" fill="#E0855C"/>
<path id="Vector_6" d="M72.367 46.1214C72.3389 46.1214 72.2969 46.1214 72.2549 46.1074C72.5631 47.8585 72.5771 49.6097 72.6471 51.4028C72.6471 51.4308 72.7032 51.4448 72.7032 51.4168C73.0394 49.6517 72.8012 47.8585 72.367 46.1214Z" fill="#E0855C"/>
<path id="Vector_7" d="M73.7112 46.5281C73.6692 46.5 73.6132 46.472 73.5571 46.458C73.8233 48.1111 73.8373 49.7781 73.9074 51.4732C73.9074 51.5012 73.9634 51.5152 73.9634 51.4872C74.3136 49.8342 74.0895 48.1531 73.7112 46.5281Z" fill="#E0855C"/>
<path id="Vector_8" d="M71.8205 118.59C71.8205 118.59 63.8214 121.069 65.9087 113.588C68.5985 103.978 72.479 88.6524 72.9272 82.6145C73.3755 76.5767 71.2181 56.782 71.2181 56.782L74.9866 56.3057C74.9866 56.3057 79.2453 75.7361 79.2873 83.385C79.3294 91.0479 77.9004 116.656 71.8205 118.59Z" fill="#F5A784"/>
</g>
<path id="Vector_9" d="M61.4258 114.094C60.4452 117.218 57.8115 118.619 55.9063 119.263C54.7715 118.703 53.1885 118.283 51.0451 118.283C50.905 118.283 50.779 118.283 50.6669 118.269L49.7983 117.834C49.7983 117.834 50.1766 116.517 50.849 114.78C52.7682 112.693 55.7942 110.438 55.7942 110.438L61.4258 114.094Z" fill="#E0855C"/>
<g id="Group_2">
<path id="Vector_10" d="M54.2394 114.093C53.9452 114.92 53.609 115.704 53.2448 116.405C52.3622 118.114 51.3256 119.837 51.2275 121.742C51.1014 124.362 52.7405 127.023 51.8439 129.489C51.4096 130.708 50.429 131.632 49.9106 132.795C49.8826 132.837 49.8686 132.893 49.8546 132.935C49.1261 134.728 49.6585 136.732 50.0367 138.609C50.401 140.5 50.5551 142.671 49.2802 144.114C48.5378 144.955 47.4171 145.389 46.3103 145.571C43.8027 145.964 40.8889 144.913 39.9643 142.545C38.6334 139.211 41.6874 135.079 39.8382 131.997C39.1938 130.96 38.1011 130.273 37.3726 129.307C34.0945 124.936 38.9136 120.523 38.6474 116.04C38.5354 114.233 37.5407 112.552 37.5547 110.745C37.5687 107.523 40.2585 103.502 42.9902 101.905C45.6659 100.35 48.7479 100.42 51.4096 101.877C52.8946 102.69 53.9312 103.937 54.5476 105.379C55.6403 107.985 55.2201 111.291 54.2394 114.093Z" fill="#3B2645"/>
<path id="Vector_11" d="M51.2272 121.741C51.1011 124.361 52.7402 127.023 51.8436 129.488C51.4093 130.707 50.4287 131.632 49.9104 132.794C49.2099 131.758 48.8737 130.497 49.0558 129.264C49.1819 128.438 49.5181 127.625 49.6442 126.799C49.8963 125.061 49.2239 123.324 48.3413 121.825C47.795 120.901 46.5482 119.304 46.9545 118.141C47.3467 116.978 48.9718 118.001 49.1819 116.558C49.2239 116.18 49.1539 115.801 49.1539 115.423C49.1399 114.807 49.308 114.176 49.7142 113.714C50.2466 113.112 51.1011 112.888 51.9136 112.958C52.7962 113.028 53.6227 113.462 54.2531 114.078C53.959 114.905 53.6227 115.689 53.2585 116.39C52.3619 118.113 51.3253 119.836 51.2272 121.741Z" fill="#2C1C33"/>
<path id="Vector_12" d="M54.1973 104.932C52.166 103.853 50.3588 103.069 49.084 103.181C43.4664 103.727 40.6506 110.423 42.892 113.505C43.7185 114.654 45.3296 115.733 47.3889 116.755C46.8706 117.077 46.2121 117.708 46.6464 118.618C47.1788 119.725 49.6303 119.249 51.1153 118.226C55.9344 119.361 58.6941 116.167 59.7308 114.36C60.8795 112.398 60.3332 108.21 54.1973 104.932Z" fill="#F5A784"/>
<path id="Vector_13" d="M52.9785 107.943C52.9785 107.943 53.4688 107.537 52.5022 107.075C51.6337 106.669 51.5356 107.103 51.5356 107.103C51.5356 107.103 51.3255 107.467 52.0819 107.831C52.8244 108.196 52.9785 107.943 52.9785 107.943Z" fill="#3B2645"/>
<path id="Vector_14" d="M50.2605 112.958C50.2605 112.958 50.7508 112.552 49.7842 112.09C48.9156 111.683 48.8176 112.118 48.8176 112.118C48.8176 112.118 48.6074 112.482 49.3639 112.846C50.1064 113.21 50.2605 112.958 50.2605 112.958Z" fill="#3B2645"/>
<path id="Vector_15" d="M53.4129 111.796C53.525 111.516 54.0293 110.998 53.8192 110.704C53.6371 110.465 51.998 110.087 51.7178 110.003C51.4236 109.919 51.1435 109.849 50.8773 109.779C50.8773 109.751 50.8633 109.709 50.8633 109.681C50.8633 109.611 50.8773 109.541 50.8913 109.471C51.998 109.779 53.1047 110.185 54.1554 110.479C54.2535 110.507 54.2955 110.619 54.2535 110.704C54.0293 111.082 53.8892 111.516 53.6651 111.894C53.595 112.034 53.3569 111.936 53.4129 111.796Z" fill="#E0855C"/>
<path id="Vector_16" d="M49.8405 106.893C49.8685 106.402 50.2188 105.688 50.7651 105.632C50.8632 105.618 50.9332 105.744 50.8772 105.828C50.7651 106.01 50.583 106.122 50.4569 106.304C50.3308 106.5 50.2608 106.711 50.2048 106.935C50.1627 107.145 49.8265 107.117 49.8405 106.893Z" fill="#3B2645"/>
<path id="Vector_17" d="M47.4588 112.384C47.0526 111.866 47.5289 110.913 48.0892 110.703C48.2153 110.661 48.3274 110.801 48.2994 110.913C48.2433 111.179 48.0052 111.375 47.8931 111.628C47.795 111.852 47.781 112.076 47.739 112.3C47.725 112.426 47.5289 112.482 47.4588 112.384Z" fill="#3B2645"/>
<path id="Vector_18" d="M54.4917 113.253C54.884 112.986 55.2482 112.832 55.5144 112.412C55.7245 112.09 55.7665 111.628 56.0607 111.375C56.1028 111.333 56.1868 111.333 56.2148 111.403C56.439 111.852 56.1028 112.51 55.8366 112.888C55.5564 113.295 55.1081 113.701 54.5898 113.701C54.3656 113.687 54.2956 113.379 54.4917 113.253Z" fill="#E0855C"/>
<path id="Vector_19" d="M41.3227 114.456C42.6116 115.717 44.0825 117.412 45.9177 117.748C49.6721 118.449 45.7216 112.747 45.3994 111.738C45.1052 110.8 45.0912 109.791 44.853 108.825C44.7269 108.292 43.8163 107.228 43.8864 106.793C43.9564 106.331 44.9511 105.771 45.2312 105.35C45.9737 104.23 46.8843 103.837 47.8789 104.426C48.8736 105.014 49.56 103.039 50.5266 103.361C51.5073 103.683 48.9997 102.479 48.9997 102.479L44.2786 103.319L41.5609 106.891L40.8464 111.178L41.3227 114.456Z" fill="#3B2645"/>
</g>
<path id="Vector_20" d="M63.5694 134.7C63.7235 143.134 62.5327 153.22 61.8182 157.507C61.1738 161.275 59.0304 168.434 57.0412 174.668C55.0519 180.888 53.2167 186.169 53.2167 186.169L52.9926 187.01C52.7404 187.92 51.8999 188.565 50.9613 188.537L40.6647 188.383C40.1183 188.369 39.9362 187.682 40.3845 187.388C42.4438 186.043 47.6271 185.217 48.2015 184.796C48.3976 184.656 48.7058 183.998 49.056 183.115C49.056 183.115 54.9118 163.265 55.4441 157.255C55.9765 151.231 53.679 136.381 54.7997 128.704C54.9538 127.654 55.164 126.757 55.4161 126.001C56.0185 124.18 56.845 123.101 57.6295 122.47C58.9324 121.434 60.1512 121.602 60.1512 121.602C61.0898 122.078 61.7902 123.157 62.3085 124.67C63.1351 127.107 63.5133 130.722 63.5694 134.7Z" fill="#F5A784"/>
<path id="Vector_21" d="M89.7661 123.941C88.2671 127.359 85.6054 133.299 81.5988 139.197C81.4728 139.379 81.3607 139.561 81.2346 139.743C80.9684 140.136 80.7023 140.542 80.4221 140.934C80.254 141.186 80.0999 141.41 79.9178 141.649C79.5115 142.237 79.0772 142.811 78.643 143.386L63.6253 137.152C63.5273 136.787 63.5833 134.616 61.4679 131.618C60.2772 129.923 58.3719 127.976 55.374 125.958C55.9764 124.137 56.8029 123.059 57.5874 122.428C57.6855 122.498 57.7976 122.568 57.9097 122.652C58.9743 123.353 60.5433 124.207 62.2664 124.628C64.2277 125.076 66.4131 124.95 68.2903 123.311C71.6945 120.341 67.4358 116.11 64.4939 113.785C65.1523 113.014 65.8387 111.949 66.3851 110.843C68.3884 111.823 71.7085 113.154 75.4629 113.406C80.0999 116.741 85.7175 121.041 89.7661 123.941Z" fill="#03C0FF"/>
<path id="Vector_22" d="M195.674 180.874C194.147 182.779 190.281 180.972 188.684 180.187C186.162 178.926 183.683 177.329 181.021 176.363C180.138 176.04 179.256 175.718 178.387 175.382C172.938 173.323 167.53 171.109 162.039 169.12C161.604 168.966 86.8525 139.393 86.8525 139.393C88.0993 137.067 88.8558 135.092 89.2901 133.467C89.5563 132.459 89.6964 131.618 89.7524 130.904C89.9765 128.466 89.3742 127.331 89.3742 127.331C89.3742 127.331 91.0833 127.121 93.9971 127.121C96.981 127.135 101.254 127.359 106.283 128.27C115.417 129.937 128.123 138.58 133.881 143.007C134.385 143.4 134.833 143.75 135.226 144.058C140.073 147.966 147.189 152.421 159.559 158.235C167.754 162.102 175.824 167.215 180.334 170.227C182.618 171.754 184.005 172.748 184.005 172.748C183.977 172.959 185.854 173.855 186.022 173.953C186.989 174.471 187.815 174.864 188.88 175.186C190.617 175.732 198.098 177.834 195.674 180.874Z" fill="#F5A784"/>
<path id="Vector_23" d="M133.894 143.022C132.325 146.734 130.756 150.11 129.229 153.122C128.809 153.949 128.403 154.761 127.982 155.532C122.141 153.08 97.1766 143.386 89.2896 140.346C90.2982 138.665 91.3629 136.62 92.3575 134.21C93.2121 132.123 94.0246 129.769 94.683 127.136C97.6249 127.178 101.645 127.43 106.31 128.284C115.43 129.952 128.15 138.595 133.894 143.022Z" fill="#25D366"/>
<g id="Group_3">
<path id="Vector_24" d="M129.229 153.123C123.584 150.531 103.859 141.818 103.859 141.818C103.621 139.086 96.4901 135.85 92.3575 134.211C91.3628 136.606 90.3122 138.652 89.2895 140.347C86.894 144.353 84.8066 146.343 84.8066 146.343C86.8099 148.584 89.9059 151.75 94.1366 155.014C101.057 160.38 114.744 163.966 122.253 165.465C123.752 163.111 125.573 160.058 127.548 156.359C118.624 151.092 104.966 142.518 103.929 141.86C105.162 142.392 123.766 150.615 129.229 153.123Z" fill="#25D366"/>
<path id="Vector_25" d="M176.243 176.657C171.424 174.177 166.535 171.809 161.758 169.232C156.967 166.668 129.299 153.149 129.215 153.107C128.795 153.934 128.388 154.746 127.968 155.517C127.828 155.797 127.674 156.063 127.534 156.33C129.733 157.632 131.652 158.725 133.011 159.453C140.016 163.194 175.15 176.25 176.243 176.657Z" fill="#E0855C"/>
<path id="Vector_26" d="M129.229 153.123C123.78 150.629 105.162 142.392 103.915 141.859C104.952 142.518 118.624 151.091 127.534 156.359C127.674 156.092 127.828 155.826 127.968 155.546C128.389 154.762 128.809 153.949 129.229 153.123Z" fill="#0E863B"/>
</g>
<path id="Vector_27" d="M101.954 141.831C98.676 141.929 95.9022 139.743 92.9463 138.665C92.7082 138.581 92.512 138.945 92.7081 139.099C94.1791 140.304 96.0423 141.074 97.7934 141.775C99.1523 142.321 100.595 142.994 102.066 142.559C102.458 142.433 102.374 141.817 101.954 141.831Z" fill="#0E863B"/>
<path id="Vector_28" d="M73.1233 129.517C73.0953 129.167 72.605 129.097 72.5069 129.447C72.1707 130.652 72.0166 131.815 71.1901 132.837C70.4476 133.762 69.3549 134.378 68.1641 134.518C67.6178 134.574 67.6178 135.415 68.1781 135.373C71.022 135.191 73.3615 132.375 73.1233 129.517Z" fill="#262626"/>
<path id="Vector_29" d="M79.6231 118.702C79.511 118.226 78.7265 118.338 78.7685 118.842C78.8806 119.991 78.7265 121.014 78.0821 121.994C77.4096 123.017 76.485 123.241 75.5604 123.899C75.2242 124.138 75.4484 124.614 75.8546 124.544C78.4183 124.068 80.2675 121.266 79.6231 118.702Z" fill="#262626"/>
<path id="Vector_30" d="M69.0046 139.421L63.6252 137.18C63.5271 136.816 63.5831 134.63 61.4678 131.646C61.4818 131.646 65.6284 133.832 69.0046 139.421Z" fill="#262626"/>
<path id="Vector_31" d="M63.2052 85.9068C62.0284 81.9002 60.2913 78.0197 58.9184 74.0692C57.7697 70.735 57.0272 66.7285 54.7718 63.9267C54.6317 63.7446 54.2394 63.7726 54.2815 64.0668C54.3375 64.5431 54.3095 64.487 54.6457 64.8372C54.6037 65.0614 54.7157 65.2855 55.0519 65.5377C55.3742 66.1961 55.6403 66.8826 55.8785 67.569C56.1306 68.2975 56.3548 69.0399 56.5789 69.7684C57.1813 71.7017 57.7977 73.6349 58.4561 75.5541C59.6749 79.1124 60.8517 82.8248 62.6028 86.1729C62.7709 86.5232 63.3172 86.271 63.2052 85.9068Z" fill="#747474"/>
<path id="Vector_32" d="M117.938 66.2383C113.609 69.3903 109.785 73.3689 105.904 77.0392C101.8 80.9197 97.6391 84.8002 93.8426 88.9749C93.5625 89.2831 93.9967 89.6894 94.3049 89.4232C98.3955 85.7388 102.276 81.8023 106.283 78.0339C110.261 74.2795 114.632 70.7632 118.316 66.7146C118.54 66.4625 118.232 66.0282 117.938 66.2383Z" fill="#747474"/>
<path id="Vector_33" d="M123.303 88.3447C119.731 89.3673 116.383 91.3006 113.077 92.9536C109.519 94.7188 105.834 96.4279 102.472 98.5292C102.178 98.7113 102.388 99.2577 102.738 99.1176C106.198 97.7167 109.519 95.9235 112.867 94.2985C116.425 92.5754 120.278 91.0764 123.528 88.821C123.752 88.6529 123.598 88.2606 123.303 88.3447Z" fill="#747474"/>
<path id="Vector_34" d="M127.969 108.252C122.589 107.285 116.565 106.879 111.144 107.523C110.766 107.565 110.78 108.084 111.158 108.112C116.706 108.616 122.295 108.896 127.843 109.386C128.487 109.443 128.613 108.364 127.969 108.252Z" fill="#747474"/>
<path id="Vector_35" d="M195.674 180.873C194.147 182.779 190.281 180.971 188.684 180.187C186.162 178.926 183.683 177.329 181.021 176.363C180.138 176.04 179.256 175.718 178.387 175.382C179.13 173.701 179.746 171.964 180.334 170.227C182.618 171.754 184.005 172.748 184.005 172.748C183.977 172.958 185.854 173.855 186.022 173.953C186.989 174.471 187.815 174.864 188.88 175.186C190.617 175.732 198.098 177.833 195.674 180.873Z" fill="#03C0FF"/>
<path id="Vector_36" d="M192.956 186.422C192.311 190.246 185.741 186.099 184.186 185.161C183.248 184.586 182.407 184.236 181.37 183.872C181.188 183.802 179.269 183.003 179.129 183.172C179.129 183.172 177.098 182.723 173.89 181.883C174.716 181.014 175.683 180.174 176.327 179.235C176.747 178.605 177.126 177.974 177.476 177.302C178.274 177.708 179.045 178.128 179.829 178.535C182.323 179.865 185.153 180.636 187.787 181.687C189.44 182.331 193.348 184.026 192.956 186.422Z" fill="#03C0FF"/>
</g>
</g>
</g>
</g>
</g>
</g>
<defs>
<linearGradient id="paint0_linear_0_1" x1="-70" y1="-105.375" x2="255.641" y2="917.835" gradientUnits="userSpaceOnUse">
<stop stop-color="#25D366"/>
<stop offset="1" stop-color="#03C0FF"/>
</linearGradient>
<linearGradient id="paint1_linear_0_1" x1="21.6353" y1="83.1314" x2="124.345" y2="271.14" gradientUnits="userSpaceOnUse">
<stop stop-color="#25D366"/>
<stop offset="1" stop-color="#03C0FF"/>
</linearGradient>
<clipPath id="clip0_0_1">
<rect width="1440" height="4063" fill="white" transform="translate(-70 -1067)"/>
</clipPath>
</defs>
</svg>
