<svg xmlns="http://www.w3.org/2000/svg" width="24" height="24" viewBox="0 0 24 24" fill="none">
  <g clip-path="url(#clip0_768_2700)">
    <path d="M9.78694 9.87334C8.89532 9.87333 8.02374 9.60885 7.28248 9.11336C6.54121 8.61787 5.96359 7.91363 5.62269 7.08975C5.28178 6.26588 5.19293 5.3594 5.36736 4.48501C5.54179 3.61062 5.97167 2.80762 6.60261 2.17762C7.23354 1.54761 8.03718 1.11892 8.91182 0.945786C9.78647 0.772649 10.6928 0.862847 11.5162 1.20497C12.3396 1.54709 13.0429 2.12576 13.5373 2.86775C14.0317 3.60975 14.2949 4.48172 14.2936 5.37334C14.2901 6.56688 13.8139 7.71043 12.9693 8.55378C12.1247 9.39712 10.9805 9.87158 9.78694 9.87334ZM9.78694 2.2C9.15931 2.2 8.54578 2.38612 8.02393 2.73481C7.50208 3.0835 7.09534 3.5791 6.85516 4.15895C6.61498 4.7388 6.55213 5.37686 6.67458 5.99242C6.79702 6.60799 7.09925 7.17342 7.54305 7.61722C7.98685 8.06102 8.55228 8.36325 9.16785 8.48569C9.78342 8.60814 10.4215 8.5453 11.0013 8.30511C11.5812 8.06493 12.0768 7.6582 12.4255 7.13635C12.7742 6.61449 12.9603 6.00096 12.9603 5.37334C12.9603 4.53172 12.6259 3.72457 12.0308 3.12945C11.4357 2.53434 10.6286 2.2 9.78694 2.2Z" fill="#868788"/>
    <path d="M10.9463 21.12C10.8006 20.9743 10.6882 20.7987 10.6169 20.6053C10.5455 20.412 10.5169 20.2055 10.533 20H2.66634V16.1467C3.61161 15.138 4.75815 14.3391 6.03174 13.8017C7.30532 13.2642 8.67758 13.0002 10.0597 13.0267H10.5397C10.5091 12.8032 10.5304 12.5756 10.6021 12.3617C10.6738 12.1478 10.7939 11.9533 10.953 11.7933L11.033 11.72C10.7197 11.72 10.3663 11.68 10.0597 11.68C8.43328 11.6414 6.81862 11.9647 5.33246 12.6265C3.84629 13.2883 2.52576 14.272 1.46634 15.5067C1.37979 15.6221 1.33301 15.7624 1.33301 15.9067V20C1.33301 20.3536 1.47348 20.6928 1.72353 20.9428C1.97358 21.1929 2.31272 21.3333 2.66634 21.3333H11.133L10.9463 21.12Z" fill="#868788"/>
    <path d="M17.9131 10.86C17.9461 10.8532 17.9801 10.8532 18.0131 10.86C17.98 10.854 17.9461 10.854 17.9131 10.86Z" fill="#868788"/>
    <path d="M22.4532 15.5467L21.1198 15.14C21.0245 14.8139 20.8949 14.4988 20.7332 14.2L21.3998 12.96C21.4215 12.9104 21.4268 12.8552 21.4148 12.8024C21.4028 12.7496 21.3742 12.702 21.3332 12.6667L20.3665 11.7C20.33 11.6604 20.2811 11.6343 20.2279 11.6258C20.1747 11.6174 20.1202 11.6271 20.0732 11.6533L18.8465 12.32C18.5445 12.1502 18.2248 12.0138 17.8932 11.9133L17.4865 10.58C17.4693 10.5309 17.4365 10.4888 17.3932 10.4599C17.3499 10.4311 17.2985 10.4171 17.2465 10.42H15.8798C15.8273 10.4194 15.7761 10.436 15.734 10.4673C15.6918 10.4986 15.6611 10.5429 15.6465 10.5933L15.2398 11.9267C14.9059 12.0238 14.5839 12.158 14.2798 12.3267L13.0665 11.66C13.0205 11.6342 12.9671 11.6248 12.915 11.6333C12.863 11.6418 12.8153 11.6676 12.7798 11.7067L11.7932 12.6667C11.7566 12.7052 11.7331 12.7542 11.7259 12.8069C11.7187 12.8595 11.7282 12.9131 11.7532 12.96L12.4198 14.1733C12.2435 14.4738 12.1026 14.7937 11.9998 15.1267L10.6665 15.5267C10.6161 15.5412 10.5718 15.572 10.5405 15.6141C10.5092 15.6563 10.4926 15.7075 10.4932 15.76V17.1267C10.4971 17.1748 10.5159 17.2206 10.547 17.2576C10.578 17.2946 10.6198 17.3211 10.6665 17.3333L11.9998 17.74C12.0984 18.067 12.2325 18.3823 12.3998 18.68L11.7332 19.9533C11.7077 19.999 11.6979 20.0516 11.7051 20.1034C11.7123 20.1551 11.7362 20.2031 11.7732 20.24L12.7398 21.2067C12.7776 21.2443 12.8263 21.2691 12.879 21.2775C12.9316 21.2859 12.9856 21.2774 13.0332 21.2533L14.2798 20.5867C14.5765 20.7462 14.8894 20.8736 15.2132 20.9667L15.6132 22.3C15.6296 22.3493 15.6608 22.3925 15.7025 22.4235C15.7443 22.4545 15.7945 22.4719 15.8465 22.4733H17.2132C17.2654 22.4729 17.3162 22.4558 17.3581 22.4247C17.4 22.3935 17.431 22.3499 17.4465 22.3L17.8532 20.9333C18.1727 20.8402 18.4811 20.7128 18.7732 20.5533L20.0332 21.22C20.0795 21.2446 20.1326 21.2534 20.1844 21.245C20.2361 21.2365 20.2837 21.2114 20.3198 21.1733L21.3332 20.2667C21.3604 20.2275 21.375 20.181 21.375 20.1333C21.375 20.0857 21.3604 20.0391 21.3332 20L20.6665 18.7467C20.8284 18.4526 20.958 18.1419 21.0532 17.82L22.3865 17.4133C22.437 17.3988 22.4812 17.368 22.5125 17.3259C22.5438 17.2837 22.5605 17.2325 22.5598 17.18V15.78C22.566 15.735 22.5592 15.6892 22.5403 15.6479C22.5214 15.6066 22.4912 15.5715 22.4532 15.5467ZM16.5665 18.6667C16.1256 18.668 15.6941 18.5383 15.3269 18.2942C14.9597 18.05 14.6733 17.7023 14.504 17.2952C14.3346 16.8881 14.2899 16.4398 14.3757 16.0072C14.4614 15.5747 14.6736 15.1773 14.9854 14.8655C15.2972 14.5537 15.6945 14.3415 16.1271 14.2558C16.5596 14.1701 17.0079 14.2148 17.415 14.3841C17.8222 14.5535 18.1699 14.8399 18.414 15.2071C18.6582 15.5743 18.7878 16.0057 18.7865 16.4467C18.7848 17.0349 18.5503 17.5986 18.1343 18.0145C17.7184 18.4305 17.1548 18.6649 16.5665 18.6667Z" fill="#868788"/>
  </g>
  <defs>
    <clipPath id="clip0_768_2700">
      <rect width="24" height="24" fill="white"/>
    </clipPath>
  </defs>
</svg>