<svg xmlns="http://www.w3.org/2000/svg" width="24" height="24" viewBox="0 0 24 24" fill="none">
  <path d="M7.49965 15.251C7.30965 15.251 7.11965 15.181 6.96965 15.031C6.83017 14.8899 6.75195 14.6994 6.75195 14.501C6.75195 14.3026 6.83017 14.1121 6.96965 13.971L10.1697 10.771C10.247 10.6916 10.3412 10.6306 10.4453 10.5924C10.5493 10.5542 10.6607 10.5399 10.771 10.5504C10.8814 10.561 10.988 10.5962 11.0829 10.6534C11.1779 10.7106 11.2588 10.7884 11.3197 10.881L12.4097 12.521L15.9597 8.97101C16.2497 8.68101 16.7297 8.68101 17.0197 8.97101C17.3097 9.26101 17.3097 9.74101 17.0197 10.031L12.8197 14.231C12.7423 14.3104 12.6481 14.3715 12.544 14.4096C12.44 14.4478 12.3286 14.4622 12.2183 14.4516C12.1079 14.4411 12.0014 14.4059 11.9064 14.3487C11.8115 14.2914 11.7306 14.2136 11.6697 14.121L10.5797 12.481L8.02965 15.031C7.87965 15.181 7.68965 15.251 7.49965 15.251Z" fill="#868788"/>
  <path d="M16.5 12.25C16.09 12.25 15.75 11.91 15.75 11.5V10.25H14.5C14.09 10.25 13.75 9.91 13.75 9.5C13.75 9.09 14.09 8.75 14.5 8.75H16.5C16.91 8.75 17.25 9.09 17.25 9.5V11.5C17.25 11.91 16.91 12.25 16.5 12.25Z" fill="#868788"/>
  <path d="M15 22.75H9C3.57 22.75 1.25 20.43 1.25 15V9C1.25 3.57 3.57 1.25 9 1.25H15C20.43 1.25 22.75 3.57 22.75 9V15C22.75 20.43 20.43 22.75 15 22.75ZM9 2.75C4.39 2.75 2.75 4.39 2.75 9V15C2.75 19.61 4.39 21.25 9 21.25H15C19.61 21.25 21.25 19.61 21.25 15V9C21.25 4.39 19.61 2.75 15 2.75H9Z" fill="#868788"/>
</svg>