<svg xmlns="http://www.w3.org/2000/svg" width="24" height="24" viewBox="0 0 24 24" fill="none">
  <path d="M18 7.662H17.87C15.98 7.602 14.57 6.142 14.57 4.342C14.57 2.502 16.07 1.012 17.9 1.012C19.73 1.012 21.23 2.512 21.23 4.342C21.2312 5.20666 20.8958 6.03784 20.2947 6.65943C19.6937 7.28102 18.8742 7.64419 18.01 7.672C18.01 7.662 18.01 7.662 18 7.662ZM17.9 2.502C16.89 2.502 16.07 3.322 16.07 4.332C16.07 5.322 16.84 6.122 17.83 6.162C17.84 6.152 17.92 6.152 18.01 6.162C18.4835 6.13078 18.9264 5.91705 19.2455 5.56582C19.5646 5.21458 19.7349 4.75324 19.7206 4.27893C19.7064 3.80462 19.5086 3.35435 19.1691 3.02291C18.8295 2.69147 18.3745 2.50473 17.9 2.502ZM18.009 15.03C17.619 15.03 17.229 15 16.839 14.93C16.7417 14.9131 16.6488 14.8772 16.5654 14.8242C16.4821 14.7713 16.41 14.7025 16.3534 14.6217C16.2967 14.5408 16.2565 14.4496 16.2352 14.3532C16.2139 14.2568 16.2117 14.1572 16.229 14.06C16.2459 13.9627 16.2818 13.8698 16.3348 13.7864C16.3877 13.7031 16.4565 13.631 16.5373 13.5744C16.6182 13.5177 16.7094 13.4775 16.8058 13.4562C16.9022 13.4349 17.0018 13.4327 17.099 13.45C18.329 13.66 19.629 13.43 20.499 12.85C20.969 12.54 21.219 12.15 21.219 11.76C21.219 11.37 20.959 10.99 20.499 10.68C19.629 10.1 18.309 9.87 17.069 10.09C16.659 10.17 16.269 9.89 16.199 9.48C16.129 9.07 16.399 8.68 16.809 8.61C18.439 8.32 20.129 8.63 21.329 9.43C22.209 10.02 22.719 10.86 22.719 11.76C22.719 12.65 22.219 13.5 21.329 14.1C20.419 14.7 19.239 15.03 18.009 15.03ZM5.97 7.66H5.95C5.08726 7.63299 4.26886 7.27145 3.66792 6.65184C3.06697 6.03223 2.73062 5.20316 2.73 4.34C2.73 2.5 4.23 1 6.06 1C7.89 1 9.39 2.5 9.39 4.33C9.39 6.14 7.98 7.6 6.18 7.66L5.97 6.91L6.04 7.66H5.97ZM6.07 6.16C6.13 6.16 6.18 6.16 6.24 6.17C7.13 6.13 7.91 5.33 7.91 4.34C7.90947 3.98244 7.80419 3.63286 7.60719 3.33447C7.41018 3.03607 7.13007 2.80192 6.80147 2.66095C6.47287 2.51999 6.11017 2.47837 5.75818 2.54126C5.40618 2.60414 5.08033 2.76876 4.82086 3.01478C4.56139 3.26081 4.37968 3.57746 4.29818 3.92561C4.21667 4.27376 4.23895 4.63816 4.36225 4.97379C4.48555 5.30942 4.70448 5.60158 4.99198 5.81417C5.27949 6.02676 5.62297 6.15046 5.98 6.17C5.99 6.16 6.03 6.16 6.07 6.16ZM5.96 15.03C4.73 15.03 3.55 14.7 2.64 14.1C1.76 13.51 1.25 12.66 1.25 11.76C1.25 10.87 1.76 10.02 2.64 9.43C3.84 8.63 5.53 8.32 7.16 8.61C7.57 8.68 7.84 9.07 7.77 9.48C7.7 9.89 7.31 10.17 6.9 10.09C5.66 9.87 4.35 10.1 3.47 10.68C3 10.99 2.75 11.37 2.75 11.76C2.75 12.15 3.01 12.54 3.47 12.85C4.34 13.43 5.64 13.66 6.87 13.45C7.28 13.38 7.67 13.66 7.74 14.06C7.81 14.47 7.54 14.86 7.13 14.93C6.74 15 6.35 15.03 5.96 15.03ZM12 15.13H11.87C9.98 15.07 8.57 13.61 8.57 11.81C8.57 9.97 10.07 8.48 11.9 8.48C13.73 8.48 15.23 9.98 15.23 11.81C15.2312 12.6747 14.8958 13.5058 14.2947 14.1274C13.6937 14.749 12.8742 15.1122 12.01 15.14C12.01 15.13 12.01 15.13 12 15.13ZM11.9 9.97C10.89 9.97 10.07 10.79 10.07 11.8C10.07 12.79 10.84 13.59 11.83 13.63C11.84 13.62 11.92 13.62 12.01 13.63C12.98 13.58 13.73 12.78 13.74 11.8C13.74 10.8 12.92 9.97 11.9 9.97ZM12.001 22.509C10.801 22.509 9.601 22.199 8.671 21.569C7.791 20.979 7.281 20.139 7.281 19.239C7.281 18.349 7.781 17.489 8.671 16.899C10.541 15.659 13.471 15.659 15.331 16.899C16.211 17.489 16.721 18.329 16.721 19.229C16.721 20.119 16.221 20.979 15.331 21.569C14.401 22.189 13.201 22.509 12.001 22.509ZM9.501 18.159C9.031 18.469 8.781 18.859 8.781 19.249C8.781 19.639 9.041 20.019 9.501 20.329C10.851 21.239 13.141 21.239 14.491 20.329C14.961 20.019 15.211 19.629 15.211 19.239C15.211 18.849 14.951 18.469 14.491 18.159C13.151 17.249 10.861 17.259 9.501 18.159Z" fill="#868788"/>
</svg>