<svg xmlns="http://www.w3.org/2000/svg" width="174" height="92" viewBox="0 0 174 92" fill="none">
  <path fill-rule="evenodd" clip-rule="evenodd" d="M101.337 56.1804V2.51631C101.337 -0.838687 105.228 -0.838687 105.228 2.51631C105.228 10.2983 105.228 7.07009 105.228 7.07009C105.228 7.07009 105.43 45.6719 105.43 56.1804C105.43 61.8179 101.337 61.8179 101.337 56.1804Z" fill="white"/>
  <path fill-rule="evenodd" clip-rule="evenodd" d="M85.7822 57.3426V18.4275C85.7822 15.9946 89.6734 15.9946 89.6734 18.4275C89.6734 24.0707 89.6734 21.7298 89.6734 21.7298C89.6734 21.7298 89.8754 49.7223 89.8754 57.3426C89.8754 61.4307 85.7822 61.4307 85.7822 57.3426Z" fill="white"/>
  <path fill-rule="evenodd" clip-rule="evenodd" d="M56.3117 6.69537C64.2857 6.69537 82.5187 6.70352 84.2539 6.70352C85.9893 6.70352 86.0673 7.89232 85.4819 8.38546C74.5805 17.5666 63.8747 36.3895 62.8608 43.699C62.8933 41.7708 79.86 21.5233 118.498 23.4722C116.676 26.7786 67.2633 24.2314 56.2942 65.6848C55.9462 66.9996 54.1381 68.326 53.0387 65.3186C52.6912 64.3682 54.7949 31.033 79.3421 10.0674C79.3421 10.0674 63.0108 10.0593 56.3117 10.0593C53.1625 10.0593 53.1625 6.69537 56.3117 6.69537Z" fill="white"/>
  <path d="M4.5966 88.4256H11.7521V91.7428H0V88.6626L7.10814 78.4268H0V75.1097H11.7521V78.1899L4.5966 88.4256Z" fill="white"/>
  <path d="M13.5932 85.1085C13.5932 83.75 13.8459 82.5575 14.3514 81.5307C14.8727 80.504 15.5756 79.7142 16.4602 79.1614C17.3447 78.6085 18.332 78.3321 19.4219 78.3321C20.3538 78.3321 21.1673 78.5216 21.8623 78.9007C22.5731 79.2798 23.1181 79.7774 23.4972 80.3934V78.5216H27.5488V91.7428H23.4972V89.8709C23.1023 90.487 22.5495 90.9846 21.8386 91.3637C21.1436 91.7428 20.3301 91.9323 19.3982 91.9323C18.3241 91.9323 17.3447 91.6559 16.4602 91.103C15.5756 90.5344 14.8727 89.7367 14.3514 88.71C13.8459 87.6674 13.5932 86.4669 13.5932 85.1085ZM23.4972 85.1322C23.4972 84.1213 23.2129 83.3236 22.6442 82.7391C22.0914 82.1547 21.4122 81.8624 20.6066 81.8624C19.801 81.8624 19.1139 82.1547 18.5452 82.7391C17.9923 83.3078 17.7159 84.0976 17.7159 85.1085C17.7159 86.1194 17.9923 86.925 18.5452 87.5253C19.1139 88.1097 19.801 88.4019 20.6066 88.4019C21.4122 88.4019 22.0914 88.1097 22.6442 87.5253C23.2129 86.9408 23.4972 86.1431 23.4972 85.1322Z" fill="white"/>
  <path d="M38.5359 78.3795C40.0839 78.3795 41.316 78.8849 42.2321 79.8959C43.1641 80.891 43.6301 82.2652 43.6301 84.0186V91.7428H39.6021V84.5635C39.6021 83.679 39.3731 82.9918 38.915 82.5022C38.4569 82.0125 37.8409 81.7677 37.0669 81.7677C36.2929 81.7677 35.6769 82.0125 35.2188 82.5022C34.7607 82.9918 34.5317 83.679 34.5317 84.5635V91.7428H30.48V78.5216H34.5317V80.275C34.9424 79.6905 35.4952 79.2324 36.1902 78.9007C36.8852 78.5532 37.6671 78.3795 38.5359 78.3795Z" fill="white"/>
  <path d="M45.64 85.1085C45.64 83.75 45.8927 82.5575 46.3982 81.5307C46.9194 80.504 47.6224 79.7142 48.5069 79.1614C49.3915 78.6085 50.3787 78.3321 51.4687 78.3321C52.4006 78.3321 53.2141 78.5216 53.9091 78.9007C54.6199 79.2798 55.1649 79.7774 55.544 80.3934V78.5216H59.5956V91.7428H55.544V89.8709C55.1491 90.487 54.5962 90.9846 53.8854 91.3637C53.1904 91.7428 52.3769 91.9323 51.445 91.9323C50.3708 91.9323 49.3915 91.6559 48.5069 91.103C47.6224 90.5344 46.9194 89.7367 46.3982 88.71C45.8927 87.6674 45.64 86.4669 45.64 85.1085ZM55.544 85.1322C55.544 84.1213 55.2597 83.3236 54.691 82.7391C54.1382 82.1547 53.4589 81.8624 52.6533 81.8624C51.8477 81.8624 51.1606 82.1547 50.592 82.7391C50.0391 83.3078 49.7627 84.0976 49.7627 85.1085C49.7627 86.1194 50.0391 86.925 50.592 87.5253C51.1606 88.1097 51.8477 88.4019 52.6533 88.4019C53.4589 88.4019 54.1382 88.1097 54.691 87.5253C55.2597 86.9408 55.544 86.1431 55.544 85.1322Z" fill="white"/>
  <path d="M61.7212 85.1085C61.7212 83.75 61.9739 82.5575 62.4794 81.5307C63.0007 80.504 63.7036 79.7142 64.5882 79.1614C65.4727 78.6085 66.46 78.3321 67.5499 78.3321C68.4187 78.3321 69.2085 78.5137 69.9193 78.877C70.6459 79.2403 71.2145 79.73 71.6252 80.346V74.2094H75.6769V91.7428H71.6252V89.8473C71.2461 90.4791 70.7012 90.9846 69.9903 91.3637C69.2953 91.7428 68.4818 91.9323 67.5499 91.9323C66.46 91.9323 65.4727 91.6559 64.5882 91.103C63.7036 90.5344 63.0007 89.7367 62.4794 88.71C61.9739 87.6674 61.7212 86.4669 61.7212 85.1085ZM71.6252 85.1322C71.6252 84.1213 71.3409 83.3236 70.7722 82.7391C70.2194 82.1547 69.5402 81.8624 68.7346 81.8624C67.929 81.8624 67.2419 82.1547 66.6732 82.7391C66.1204 83.3078 65.8439 84.0976 65.8439 85.1085C65.8439 86.1194 66.1204 86.925 66.6732 87.5253C67.2419 88.1097 67.929 88.4019 68.7346 88.4019C69.5402 88.4019 70.2194 88.1097 70.7722 87.5253C71.3409 86.9408 71.6252 86.1431 71.6252 85.1322Z" fill="white"/>
  <path d="M91.6633 78.5216V91.7428H87.6117V89.942C87.201 90.5265 86.6402 91.0003 85.9294 91.3637C85.2344 91.7112 84.4604 91.8849 83.6074 91.8849C82.5965 91.8849 81.704 91.6638 80.93 91.2215C80.156 90.7634 79.5558 90.1079 79.1293 89.2549C78.7028 88.4019 78.4896 87.3989 78.4896 86.2458V78.5216H82.5175V85.7008C82.5175 86.5854 82.7466 87.2725 83.2046 87.7622C83.6627 88.2519 84.2787 88.4967 85.0527 88.4967C85.8425 88.4967 86.4665 88.2519 86.9246 87.7622C87.3826 87.2725 87.6117 86.5854 87.6117 85.7008V78.5216H91.6633Z" fill="white"/>
  <path d="M112.674 75.2282V91.7428H110.517V84.2555H102.106V91.7428H99.95V75.2282H102.106V82.4785H110.517V75.2282H112.674Z" fill="white"/>
  <path d="M128.202 84.7531C128.202 85.1638 128.178 85.5982 128.131 86.0562H117.753C117.832 87.3357 118.267 88.3387 119.056 89.0654C119.862 89.7762 120.833 90.1316 121.971 90.1316C122.903 90.1316 123.677 89.9183 124.293 89.4918C124.924 89.0496 125.367 88.4651 125.619 87.7385H127.941C127.594 88.9864 126.899 90.0052 125.856 90.795C124.814 91.569 123.519 91.956 121.971 91.956C120.739 91.956 119.633 91.6796 118.654 91.1267C117.69 90.5739 116.932 89.792 116.379 88.781C115.826 87.7543 115.55 86.5696 115.55 85.227C115.55 83.8843 115.818 82.7075 116.355 81.6966C116.892 80.6857 117.643 79.9117 118.606 79.3746C119.585 78.8217 120.707 78.5453 121.971 78.5453C123.203 78.5453 124.293 78.8138 125.24 79.3509C126.188 79.888 126.915 80.6304 127.42 81.5781C127.941 82.5101 128.202 83.5684 128.202 84.7531ZM125.975 84.3029C125.975 83.4815 125.793 82.7786 125.43 82.1942C125.067 81.5939 124.569 81.1437 123.937 80.8436C123.321 80.5277 122.634 80.3697 121.876 80.3697C120.786 80.3697 119.854 80.7172 119.08 81.4123C118.322 82.1073 117.887 83.0708 117.777 84.3029H125.975Z" fill="white"/>
  <path d="M130.243 85.2033C130.243 83.8764 130.511 82.7154 131.048 81.7203C131.585 80.7093 132.32 79.9275 133.252 79.3746C134.199 78.8217 135.25 78.5453 136.403 78.5453C137.54 78.5453 138.527 78.7901 139.365 79.2798C140.202 79.7695 140.826 80.3855 141.236 81.1279V78.7586H143.416V91.7428H141.236V89.326C140.81 90.0842 140.17 90.716 139.317 91.2215C138.48 91.7112 137.501 91.956 136.379 91.956C135.226 91.956 134.184 91.6717 133.252 91.103C132.32 90.5344 131.585 89.7367 131.048 88.71C130.511 87.6832 130.243 86.5143 130.243 85.2033ZM141.236 85.227C141.236 84.2476 141.039 83.3946 140.644 82.668C140.249 81.9414 139.712 81.3886 139.033 81.0095C138.37 80.6146 137.635 80.4171 136.829 80.4171C136.024 80.4171 135.289 80.6067 134.626 80.9858C133.962 81.3649 133.433 81.9177 133.038 82.6443C132.644 83.3709 132.446 84.2239 132.446 85.2033C132.446 86.1984 132.644 87.0672 133.038 87.8096C133.433 88.5362 133.962 89.0969 134.626 89.4918C135.289 89.8709 136.024 90.0605 136.829 90.0605C137.635 90.0605 138.37 89.8709 139.033 89.4918C139.712 89.0969 140.249 88.5362 140.644 87.8096C141.039 87.0672 141.236 86.2063 141.236 85.227Z" fill="white"/>
  <path d="M149.216 74.2094V91.7428H147.06V74.2094H149.216Z" fill="white"/>
  <path d="M155.521 80.5356V88.1887C155.521 88.8205 155.655 89.2707 155.924 89.5392C156.192 89.792 156.658 89.9183 157.322 89.9183H158.909V91.7428H156.966C155.766 91.7428 154.865 91.4663 154.265 90.9135C153.665 90.3606 153.365 89.4524 153.365 88.1887V80.5356H151.682V78.7586H153.365V75.4888H155.521V78.7586H158.909V80.5356H155.521Z" fill="white"/>
  <path d="M167.966 78.5216C168.946 78.5216 169.83 78.7349 170.62 79.1614C171.41 79.572 172.026 80.196 172.468 81.0332C172.926 81.8703 173.155 82.8892 173.155 84.0897V91.7428H171.023V84.3977C171.023 83.1024 170.699 82.1152 170.051 81.436C169.404 80.7409 168.519 80.3934 167.398 80.3934C166.26 80.3934 165.352 80.7488 164.673 81.4597C164.009 82.1705 163.678 83.2051 163.678 84.5635V91.7428H161.521V74.2094H163.678V80.6067C164.104 79.9432 164.689 79.4299 165.431 79.0666C166.189 78.7033 167.034 78.5216 167.966 78.5216Z" fill="white"/>
</svg>